<svg width="150" height="27" viewBox="0 0 150 27" fill="none" xmlns="http://www.w3.org/2000/svg">
<path d="M13.8281 19.0312C13.8281 18.1458 13.5156 17.4688 12.8906 17C12.2656 16.5208 11.1406 16.0208 9.51562 15.5C7.89062 14.9688 6.60417 14.4479 5.65625 13.9375C3.07292 12.5417 1.78125 10.6615 1.78125 8.29688C1.78125 7.06771 2.125 5.97396 2.8125 5.01562C3.51042 4.04688 4.50521 3.29167 5.79688 2.75C7.09896 2.20833 8.55729 1.9375 10.1719 1.9375C11.7969 1.9375 13.2448 2.23438 14.5156 2.82812C15.7865 3.41146 16.7708 4.23958 17.4688 5.3125C18.1771 6.38542 18.5312 7.60417 18.5312 8.96875H13.8438C13.8438 7.92708 13.5156 7.11979 12.8594 6.54688C12.2031 5.96354 11.2812 5.67188 10.0938 5.67188C8.94792 5.67188 8.05729 5.91667 7.42188 6.40625C6.78646 6.88542 6.46875 7.52083 6.46875 8.3125C6.46875 9.05208 6.83854 9.67188 7.57812 10.1719C8.32812 10.6719 9.42708 11.1406 10.875 11.5781C13.5417 12.3802 15.4844 13.375 16.7031 14.5625C17.9219 15.75 18.5312 17.2292 18.5312 19C18.5312 20.9688 17.7865 22.5156 16.2969 23.6406C14.8073 24.7552 12.8021 25.3125 10.2812 25.3125C8.53125 25.3125 6.9375 24.9948 5.5 24.3594C4.0625 23.7135 2.96354 22.8333 2.20312 21.7188C1.45312 20.6042 1.07812 19.3125 1.07812 17.8438H5.78125C5.78125 20.3542 7.28125 21.6094 10.2812 21.6094C11.3958 21.6094 12.2656 21.3854 12.8906 20.9375C13.5156 20.4792 13.8281 19.8438 13.8281 19.0312ZM26.4062 21.2344H36.3594V25H21.7188V2.25H26.4062V21.2344ZM56.75 14.1406C56.75 16.3802 56.3542 18.3438 55.5625 20.0312C54.7708 21.7188 53.6354 23.0208 52.1562 23.9375C50.6875 24.8542 49 25.3125 47.0938 25.3125C45.2083 25.3125 43.526 24.8594 42.0469 23.9531C40.5677 23.0469 39.4219 21.7552 38.6094 20.0781C37.7969 18.3906 37.3854 16.4531 37.375 14.2656V13.1406C37.375 10.901 37.776 8.93229 38.5781 7.23438C39.3906 5.52604 40.5312 4.21875 42 3.3125C43.4792 2.39583 45.1667 1.9375 47.0625 1.9375C48.9583 1.9375 50.6406 2.39583 52.1094 3.3125C53.5885 4.21875 54.7292 5.52604 55.5312 7.23438C56.3438 8.93229 56.75 10.8958 56.75 13.125V14.1406ZM52 13.1094C52 10.724 51.5729 8.91146 50.7188 7.67188C49.8646 6.43229 48.6458 5.8125 47.0625 5.8125C45.4896 5.8125 44.276 6.42708 43.4219 7.65625C42.5677 8.875 42.1354 10.6667 42.125 13.0312V14.1406C42.125 16.4635 42.5521 18.2656 43.4062 19.5469C44.2604 20.8281 45.4896 21.4688 47.0938 21.4688C48.6667 21.4688 49.875 20.8542 50.7188 19.625C51.5625 18.3854 51.9896 16.5833 52 14.2188V13.1094ZM75.9375 6.04688H68.9688V25H64.2812V6.04688H57.4062V2.25H75.9375V6.04688ZM96 6.04688H89.0312V25H84.3438V6.04688H77.4688V2.25H96V6.04688ZM103.672 25H98.9844V2.25H103.672V25ZM125.891 17.4219C125.714 19.8698 124.807 21.7969 123.172 23.2031C121.547 24.6094 119.401 25.3125 116.734 25.3125C113.818 25.3125 111.521 24.3333 109.844 22.375C108.177 20.4062 107.344 17.7083 107.344 14.2812V12.8906C107.344 10.7031 107.729 8.77604 108.5 7.10938C109.271 5.44271 110.37 4.16667 111.797 3.28125C113.234 2.38542 114.901 1.9375 116.797 1.9375C119.422 1.9375 121.536 2.64062 123.141 4.04688C124.745 5.45312 125.672 7.42708 125.922 9.96875H121.234C121.12 8.5 120.708 7.4375 120 6.78125C119.302 6.11458 118.234 5.78125 116.797 5.78125C115.234 5.78125 114.062 6.34375 113.281 7.46875C112.51 8.58333 112.115 10.3177 112.094 12.6719V14.3906C112.094 16.849 112.464 18.6458 113.203 19.7812C113.953 20.9167 115.13 21.4844 116.734 21.4844C118.182 21.4844 119.26 21.1562 119.969 20.5C120.688 19.8333 121.099 18.8073 121.203 17.4219H125.891ZM141.812 20.3125H133.594L132.031 25H127.047L135.516 2.25H139.859L148.375 25H143.391L141.812 20.3125ZM134.859 16.5156H140.547L137.688 8L134.859 16.5156Z" fill="#E9FB1D"/>
<path d="M12.8906 17L12.2822 17.7937L12.2906 17.8L12.8906 17ZM9.51562 15.5L9.20488 16.4505L9.21041 16.4523L9.51562 15.5ZM5.65625 13.9375L5.18088 14.8173L5.18215 14.818L5.65625 13.9375ZM2.8125 5.01562L2.00113 4.43109L1.99996 4.43272L2.8125 5.01562ZM5.79688 2.75L5.41278 1.8267L5.41015 1.82781L5.79688 2.75ZM14.5156 2.82812L14.0923 3.73414L14.0985 3.73695L14.5156 2.82812ZM17.4688 5.3125L16.6305 5.85779L16.6342 5.86345L17.4688 5.3125ZM18.5312 8.96875V9.96875H19.5312V8.96875H18.5312ZM13.8438 8.96875H12.8438V9.96875H13.8438V8.96875ZM12.8594 6.54688L12.195 7.29431L12.2017 7.30019L12.8594 6.54688ZM7.42188 6.40625L8.024 7.20472L8.03221 7.19839L7.42188 6.40625ZM7.57812 10.1719L7.01804 11.0003L7.02342 11.0039L7.57812 10.1719ZM10.875 11.5781L10.5858 12.5354L10.587 12.5357L10.875 11.5781ZM16.2969 23.6406L16.896 24.4413L16.8995 24.4386L16.2969 23.6406ZM5.5 24.3594L5.09018 25.2716L5.09571 25.274L5.5 24.3594ZM2.20312 21.7188L1.37345 22.277L1.37706 22.2823L2.20312 21.7188ZM1.07812 17.8438V16.8438H0.078125V17.8438H1.07812ZM5.78125 17.8438H6.78125V16.8438H5.78125V17.8438ZM12.8906 20.9375L13.4732 21.7504L13.482 21.7439L12.8906 20.9375ZM14.8281 19.0312C14.8281 17.8791 14.4035 16.8847 13.4906 16.2L12.2906 17.8C12.6277 18.0528 12.8281 18.4126 12.8281 19.0312H14.8281ZM13.4991 16.2064C12.7269 15.6144 11.4578 15.0724 9.82084 14.5477L9.21041 16.4523C10.8234 16.9693 11.8044 17.4273 12.2822 17.7936L13.4991 16.2064ZM9.82636 14.5495C8.22907 14.0273 7.00483 13.5279 6.13035 13.057L5.18215 14.818C6.20351 15.3679 7.55218 15.9102 9.20489 16.4505L9.82636 14.5495ZM6.13162 13.0577C3.77911 11.7866 2.78125 10.1998 2.78125 8.29688H0.78125C0.78125 11.1231 2.36673 13.2967 5.18088 14.8173L6.13162 13.0577ZM2.78125 8.29688C2.78125 7.26744 3.0648 6.37947 3.62504 5.59853L1.99996 4.43272C1.1852 5.56845 0.78125 6.86798 0.78125 8.29688H2.78125ZM3.62387 5.60016C4.19661 4.80516 5.03208 4.15509 6.1836 3.67219L5.41015 1.82781C3.97834 2.42824 2.82423 3.28859 2.00113 4.43109L3.62387 5.60016ZM6.18097 3.6733C7.34497 3.18907 8.67017 2.9375 10.1719 2.9375V0.9375C8.44442 0.9375 6.85295 1.2276 5.41278 1.8267L6.18097 3.6733ZM10.1719 2.9375C11.6737 2.9375 12.9735 3.21136 14.0923 3.73412L14.9389 1.92213C13.5161 1.25738 11.9201 0.9375 10.1719 0.9375V2.9375ZM14.0985 3.73695C15.2139 4.24895 16.0452 4.958 16.6305 5.85777L18.307 4.76723C17.4965 3.52117 16.359 2.57397 14.9328 1.9193L14.0985 3.73695ZM16.6342 5.86345C17.2279 6.76265 17.5312 7.78742 17.5312 8.96875H19.5312C19.5312 7.42091 19.1263 6.00818 18.3033 4.76155L16.6342 5.86345ZM18.5312 7.96875H13.8438V9.96875H18.5312V7.96875ZM14.8438 8.96875C14.8438 7.70025 14.4335 6.59363 13.517 5.79356L12.2017 7.30019C12.5978 7.64596 12.8438 8.15391 12.8438 8.96875H14.8438ZM13.5237 5.79947C12.6283 5.00356 11.439 4.67188 10.0938 4.67188V6.67188C11.1235 6.67188 11.7779 6.92352 12.195 7.29428L13.5237 5.79947ZM10.0938 4.67188C8.81903 4.67188 7.68289 4.94274 6.81154 5.61411L8.03221 7.19839C8.43169 6.8906 9.07681 6.67188 10.0938 6.67188V4.67188ZM6.81978 5.60782C5.93535 6.27477 5.46875 7.20505 5.46875 8.3125H7.46875C7.46875 7.83662 7.63757 7.49606 8.02397 7.20468L6.81978 5.60782ZM5.46875 8.3125C5.46875 9.45575 6.06853 10.3584 7.01805 11.0003L8.1382 9.34343C7.60855 8.98536 7.46875 8.64842 7.46875 8.3125H5.46875ZM7.02342 11.0039C7.89204 11.583 9.09824 12.0859 10.5858 12.5354L11.1642 10.6209C9.75593 10.1953 8.76421 9.76075 8.13282 9.33982L7.02342 11.0039ZM10.587 12.5357C13.1865 13.3176 14.9527 14.2532 16.0053 15.2787L17.401 13.8463C16.016 12.4968 13.8968 11.4428 11.163 10.6205L10.587 12.5357ZM16.0053 15.2787C17.0222 16.2696 17.5312 17.4866 17.5312 19H19.5312C19.5312 16.9717 18.8215 15.2304 17.401 13.8463L16.0053 15.2787ZM17.5312 19C17.5312 20.6752 16.918 21.9184 15.6942 22.8426L16.8995 24.4386C18.6549 23.1129 19.5312 21.2623 19.5312 19H17.5312ZM15.6978 22.84C14.4332 23.7861 12.6618 24.3125 10.2812 24.3125V26.3125C12.9424 26.3125 15.1814 25.7243 16.896 24.4413L15.6978 22.84ZM10.2812 24.3125C8.65463 24.3125 7.20069 24.0178 5.90429 23.4447L5.09571 25.274C6.67431 25.9718 8.40787 26.3125 10.2812 26.3125V24.3125ZM5.90981 23.4472C4.61188 22.8641 3.66926 22.0934 3.02919 21.1552L1.37706 22.2823C2.25782 23.5733 3.51312 24.563 5.09019 25.2715L5.90981 23.4472ZM3.03278 21.1605C2.40416 20.2263 2.07812 19.133 2.07812 17.8438H0.078125C0.078125 19.492 0.502087 20.9821 1.37347 22.277L3.03278 21.1605ZM1.07812 18.8438H5.78125V16.8438H1.07812V18.8438ZM4.78125 17.8438C4.78125 19.3045 5.22615 20.566 6.2645 21.4349C7.26872 22.2752 8.66623 22.6094 10.2812 22.6094V20.6094C8.89627 20.6094 8.04378 20.3159 7.548 19.9011C7.08635 19.5147 6.78125 18.8934 6.78125 17.8438H4.78125ZM10.2812 22.6094C11.5148 22.6094 12.6174 22.3636 13.4731 21.7503L12.3081 20.1247C11.9138 20.4073 11.2769 20.6094 10.2812 20.6094V22.6094ZM13.482 21.7439C14.3781 21.0868 14.8281 20.1442 14.8281 19.0312H12.8281C12.8281 19.5433 12.6531 19.8716 12.2993 20.1311L13.482 21.7439ZM26.4062 21.2344H25.4062V22.2344H26.4062V21.2344ZM36.3594 21.2344H37.3594V20.2344H36.3594V21.2344ZM36.3594 25V26H37.3594V25H36.3594ZM21.7188 25H20.7188V26H21.7188V25ZM21.7188 2.25V1.25H20.7188V2.25H21.7188ZM26.4062 2.25H27.4062V1.25H26.4062V2.25ZM26.4062 22.2344H36.3594V20.2344H26.4062V22.2344ZM35.3594 21.2344V25H37.3594V21.2344H35.3594ZM36.3594 24H21.7188V26H36.3594V24ZM22.7188 25V2.25H20.7188V25H22.7188ZM21.7188 3.25H26.4062V1.25H21.7188V3.25ZM25.4062 2.25V21.2344H27.4062V2.25H25.4062ZM52.1562 23.9375L51.6295 23.0875L51.6268 23.0892L52.1562 23.9375ZM38.6094 20.0781L37.7084 20.5119L37.7094 20.5141L38.6094 20.0781ZM37.375 14.2656H36.375L36.375 14.2704L37.375 14.2656ZM38.5781 7.23438L37.6751 6.80487L37.6739 6.80724L38.5781 7.23438ZM42 3.3125L42.5251 4.16354L42.5268 4.16251L42 3.3125ZM52.1094 3.3125L51.5799 4.16086L51.587 4.16519L52.1094 3.3125ZM55.5312 7.23438L54.626 7.65939L54.6292 7.66603L55.5312 7.23438ZM43.4219 7.65625L44.2408 8.23019L44.2431 8.22691L43.4219 7.65625ZM42.125 13.0312L41.125 13.0268V13.0312H42.125ZM50.7188 19.625L51.5432 20.1909L51.5454 20.1877L50.7188 19.625ZM52 14.2188L53 14.2232V14.2188H52ZM55.75 14.1406C55.75 16.2625 55.3752 18.076 54.6572 19.6065L56.4678 20.456C57.3331 18.6115 57.75 16.4979 57.75 14.1406H55.75ZM54.6572 19.6065C53.9417 21.1316 52.9321 22.2803 51.6295 23.0875L52.683 24.7875C54.3388 23.7614 55.6 22.3059 56.4678 20.456L54.6572 19.6065ZM51.6268 23.0892C50.3327 23.8968 48.8324 24.3125 47.0938 24.3125V26.3125C49.1676 26.3125 51.0423 25.8115 52.6857 24.7858L51.6268 23.0892ZM47.0938 24.3125C45.3761 24.3125 43.8777 23.902 42.5693 23.1004L41.5245 24.8058C43.1744 25.8167 45.0405 26.3125 47.0938 26.3125V24.3125ZM42.5693 23.1004C41.2654 22.3016 40.2449 21.1604 39.5093 19.6421L37.7094 20.5141C38.5989 22.35 39.87 23.7922 41.5245 24.8058L42.5693 23.1004ZM39.5104 19.6443C38.7723 18.1114 38.3848 16.3246 38.375 14.2609L36.375 14.2704C36.386 16.5817 36.8214 18.6699 37.7084 20.5119L39.5104 19.6443ZM38.375 14.2656V13.1406H36.375V14.2656H38.375ZM38.375 13.1406C38.375 11.0206 38.7543 9.20259 39.4823 7.66151L37.6739 6.80724C36.7978 8.66199 36.375 10.7814 36.375 13.1406H38.375ZM39.4812 7.66388C40.2192 6.11215 41.236 4.95897 42.5251 4.16354L41.4749 2.46146C39.8265 3.47853 38.562 4.93993 37.6751 6.80487L39.4812 7.66388ZM42.5268 4.16251C43.8337 3.3526 45.3355 2.9375 47.0625 2.9375V0.9375C44.9978 0.9375 43.1247 1.43907 41.4732 2.46249L42.5268 4.16251ZM47.0625 2.9375C48.7896 2.9375 50.2849 3.35261 51.5799 4.16084L52.6388 2.46416C50.9963 1.43906 49.1271 0.9375 47.0625 0.9375V2.9375ZM51.587 4.16519C52.8848 4.96036 53.8994 6.11171 54.6261 7.65937L56.4364 6.80938C55.5589 4.94037 54.2923 3.47714 52.6318 2.45981L51.587 4.16519ZM54.6292 7.66603C55.3664 9.20657 55.75 11.018 55.75 13.125H57.75C57.75 10.7737 57.3211 8.65801 56.4333 6.80272L54.6292 7.66603ZM55.75 13.125V14.1406H57.75V13.125H55.75ZM53 13.1094C53 10.6304 52.5607 8.58254 51.5422 7.10447L49.8953 8.23928C50.5851 9.24038 51 10.8175 51 13.1094H53ZM51.5422 7.10447C50.4902 5.5778 48.9545 4.8125 47.0625 4.8125V6.8125C48.3371 6.8125 49.239 7.28678 49.8953 8.23928L51.5422 7.10447ZM47.0625 4.8125C45.1818 4.8125 43.6527 5.57165 42.6007 7.08559L44.2431 8.22691C44.8993 7.28251 45.7974 6.8125 47.0625 6.8125V4.8125ZM42.603 7.08232C41.5813 8.54006 41.1358 10.5689 41.125 13.0268L43.125 13.0357C43.135 10.7644 43.5541 9.20994 44.2408 8.23018L42.603 7.08232ZM41.125 13.0312V14.1406H43.125V13.0312H41.125ZM41.125 14.1406C41.125 16.567 41.568 18.5922 42.5742 20.1016L44.2383 18.9922C43.5362 17.939 43.125 16.3601 43.125 14.1406H41.125ZM42.5742 20.1016C43.6229 21.6747 45.172 22.4688 47.0938 22.4688V20.4688C45.8072 20.4688 44.8979 19.9816 44.2383 18.9922L42.5742 20.1016ZM47.0938 22.4688C48.9747 22.4688 50.5011 21.7091 51.5432 20.1909L49.8943 19.0591C49.2489 19.9993 48.3586 20.4688 47.0938 20.4688V22.4688ZM51.5454 20.1877C52.5488 18.7135 52.9892 16.6811 53 14.2232L51 14.2143C50.99 16.4855 50.5762 18.0573 49.8921 19.0623L51.5454 20.1877ZM53 14.2188V13.1094H51V14.2188H53ZM75.9375 6.04688V7.04688H76.9375V6.04688H75.9375ZM68.9688 6.04688V5.04688H67.9688V6.04688H68.9688ZM68.9688 25V26H69.9688V25H68.9688ZM64.2812 25H63.2812V26H64.2812V25ZM64.2812 6.04688H65.2812V5.04688H64.2812V6.04688ZM57.4062 6.04688H56.4062V7.04688H57.4062V6.04688ZM57.4062 2.25V1.25H56.4062V2.25H57.4062ZM75.9375 2.25H76.9375V1.25H75.9375V2.25ZM75.9375 5.04688H68.9688V7.04688H75.9375V5.04688ZM67.9688 6.04688V25H69.9688V6.04688H67.9688ZM68.9688 24H64.2812V26H68.9688V24ZM65.2812 25V6.04688H63.2812V25H65.2812ZM64.2812 5.04688H57.4062V7.04688H64.2812V5.04688ZM58.4062 6.04688V2.25H56.4062V6.04688H58.4062ZM57.4062 3.25H75.9375V1.25H57.4062V3.25ZM74.9375 2.25V6.04688H76.9375V2.25H74.9375ZM96 6.04688V7.04688H97V6.04688H96ZM89.0312 6.04688V5.04688H88.0312V6.04688H89.0312ZM89.0312 25V26H90.0312V25H89.0312ZM84.3438 25H83.3438V26H84.3438V25ZM84.3438 6.04688H85.3438V5.04688H84.3438V6.04688ZM77.4688 6.04688H76.4688V7.04688H77.4688V6.04688ZM77.4688 2.25V1.25H76.4688V2.25H77.4688ZM96 2.25H97V1.25H96V2.25ZM96 5.04688H89.0312V7.04688H96V5.04688ZM88.0312 6.04688V25H90.0312V6.04688H88.0312ZM89.0312 24H84.3438V26H89.0312V24ZM85.3438 25V6.04688H83.3438V25H85.3438ZM84.3438 5.04688H77.4688V7.04688H84.3438V5.04688ZM78.4688 6.04688V2.25H76.4688V6.04688H78.4688ZM77.4688 3.25H96V1.25H77.4688V3.25ZM95 2.25V6.04688H97V2.25H95ZM103.672 25V26H104.672V25H103.672ZM98.9844 25H97.9844V26H98.9844V25ZM98.9844 2.25V1.25H97.9844V2.25H98.9844ZM103.672 2.25H104.672V1.25H103.672V2.25ZM103.672 24H98.9844V26H103.672V24ZM99.9844 25V2.25H97.9844V25H99.9844ZM98.9844 3.25H103.672V1.25H98.9844V3.25ZM102.672 2.25V25H104.672V2.25H102.672ZM125.891 17.4219L126.888 17.494L126.966 16.4219H125.891V17.4219ZM123.172 23.2031L122.52 22.4449L122.518 22.447L123.172 23.2031ZM109.844 22.375L109.081 23.0211L109.084 23.0255L109.844 22.375ZM108.5 7.10938L107.592 6.6896L108.5 7.10938ZM111.797 3.28125L112.324 4.13099L112.326 4.12994L111.797 3.28125ZM123.141 4.04688L122.481 4.79885L123.141 4.04688ZM125.922 9.96875V10.9688H127.025L126.917 9.87086L125.922 9.96875ZM121.234 9.96875L120.237 10.0465L120.309 10.9688H121.234V9.96875ZM120 6.78125L119.309 7.50436L119.315 7.50963L119.32 7.51481L120 6.78125ZM113.281 7.46875L112.46 6.89835L112.459 6.89994L113.281 7.46875ZM112.094 12.6719L111.094 12.663V12.6719H112.094ZM113.203 19.7812L112.365 20.3271L112.369 20.3324L113.203 19.7812ZM119.969 20.5L120.648 21.2336L120.649 21.2332L119.969 20.5ZM121.203 17.4219V16.4219H120.275L120.206 17.3469L121.203 17.4219ZM124.893 17.3497C124.732 19.572 123.925 21.2367 122.52 22.4449L123.824 23.9614C125.69 22.3571 126.695 20.1676 126.888 17.494L124.893 17.3497ZM122.518 22.447C121.115 23.6607 119.221 24.3125 116.734 24.3125V26.3125C119.581 26.3125 121.979 25.5581 123.826 23.9593L122.518 22.447ZM116.734 24.3125C114.067 24.3125 112.064 23.4304 110.603 21.7245L109.084 23.0255C110.977 25.2362 113.568 26.3125 116.734 26.3125V24.3125ZM110.607 21.7289C109.137 19.9927 108.344 17.5502 108.344 14.2812H106.344C106.344 17.8664 107.217 20.8198 109.081 23.0211L110.607 21.7289ZM108.344 14.2812V12.8906H106.344V14.2812H108.344ZM108.344 12.8906C108.344 10.8207 108.708 9.04149 109.408 7.52915L107.592 6.6896C106.75 8.5106 106.344 10.5855 106.344 12.8906H108.344ZM109.408 7.52915C110.104 6.02264 111.079 4.90376 112.324 4.13099L111.27 2.43151C109.661 3.42958 108.437 4.86277 107.592 6.6896L109.408 7.52915ZM112.326 4.12994C113.586 3.34447 115.065 2.9375 116.797 2.9375V0.9375C114.737 0.9375 112.883 1.42636 111.268 2.43256L112.326 4.12994ZM116.797 2.9375C119.238 2.9375 121.099 3.58708 122.481 4.79885L123.8 3.2949C121.974 1.69417 119.606 0.9375 116.797 0.9375V2.9375ZM122.481 4.79885C123.858 6.00564 124.696 7.72489 124.927 10.0666L126.917 9.87086C126.647 7.12927 125.632 4.90061 123.8 3.2949L122.481 4.79885ZM125.922 8.96875H121.234V10.9688H125.922V8.96875ZM122.231 9.89097C122.107 8.29935 121.649 6.9456 120.68 6.04769L119.32 7.51481C119.768 7.9294 120.132 8.70065 120.237 10.0465L122.231 9.89097ZM120.691 6.05814C119.733 5.14345 118.368 4.78125 116.797 4.78125V6.78125C118.101 6.78125 118.871 7.08571 119.309 7.50436L120.691 6.05814ZM116.797 4.78125C114.96 4.78125 113.457 5.46315 112.46 6.89835L114.103 8.03915C114.668 7.22435 115.509 6.78125 116.797 6.78125V4.78125ZM112.459 6.89994C111.517 8.2611 111.115 10.2391 111.094 12.663L113.094 12.6807C113.114 10.3963 113.503 8.90557 114.104 8.03756L112.459 6.89994ZM111.094 12.6719V14.3906H113.094V12.6719H111.094ZM111.094 14.3906C111.094 16.9065 111.464 18.9439 112.365 20.327L114.041 19.2355C113.463 18.3478 113.094 16.7914 113.094 14.3906H111.094ZM112.369 20.3324C113.339 21.8015 114.864 22.4844 116.734 22.4844V20.4844C115.397 20.4844 114.567 20.0318 114.038 19.2301L112.369 20.3324ZM116.734 22.4844C118.311 22.4844 119.681 22.1295 120.648 21.2336L119.289 19.7664C118.84 20.183 118.053 20.4844 116.734 20.4844V22.4844ZM120.649 21.2332C121.617 20.3348 122.085 19.029 122.2 17.4969L120.206 17.3469C120.113 18.5856 119.758 19.3319 119.289 19.7668L120.649 21.2332ZM121.203 18.4219H125.891V16.4219H121.203V18.4219ZM141.812 20.3125L142.76 19.9934L142.531 19.3125H141.812V20.3125ZM133.594 20.3125V19.3125H132.873L132.645 19.9963L133.594 20.3125ZM132.031 25V26H132.752L132.98 25.3162L132.031 25ZM127.047 25L126.11 24.6511L125.608 26H127.047V25ZM135.516 2.25V1.25H134.821L134.578 1.90113L135.516 2.25ZM139.859 2.25L140.796 1.89944L140.553 1.25H139.859V2.25ZM148.375 25V26H149.817L149.312 24.6494L148.375 25ZM143.391 25L142.443 25.3191L142.672 26H143.391V25ZM134.859 16.5156L133.91 16.2004L133.474 17.5156H134.859V16.5156ZM140.547 16.5156V17.5156H141.938L141.495 16.1973L140.547 16.5156ZM137.688 8L138.635 7.68169L137.682 4.84293L136.738 7.68482L137.688 8ZM141.812 19.3125H133.594V21.3125H141.812V19.3125ZM132.645 19.9963L131.083 24.6838L132.98 25.3162L134.542 20.6287L132.645 19.9963ZM132.031 24H127.047V26H132.031V24ZM127.984 25.3489L136.453 2.59887L134.578 1.90113L126.11 24.6511L127.984 25.3489ZM135.516 3.25H139.859V1.25H135.516V3.25ZM138.923 2.60056L147.438 25.3506L149.312 24.6494L140.796 1.89944L138.923 2.60056ZM148.375 24H143.391V26H148.375V24ZM144.338 24.6809L142.76 19.9934L140.865 20.6316L142.443 25.3191L144.338 24.6809ZM134.859 17.5156H140.547V15.5156H134.859V17.5156ZM141.495 16.1973L138.635 7.68169L136.74 8.31831L139.599 16.8339L141.495 16.1973ZM136.738 7.68482L133.91 16.2004L135.808 16.8308L138.637 8.31518L136.738 7.68482Z" fill="black"/>
</svg>
