<svg width="162" height="162" viewBox="0 0 162 162" fill="none" xmlns="http://www.w3.org/2000/svg">
<path d="M110.346 31.413C104.756 28.0842 98.7053 25.745 92.4389 24.4643C79.4655 21.808 65.6757 23.641 53.5238 30.219C50.7331 31.7283 48.0061 33.4281 45.4216 35.4449C42.8368 37.4619 40.5251 39.6942 38.3832 42.0341C29.0487 52.223 23.9208 65.1501 23.3403 78.3808C23.0638 84.7701 23.8611 91.2061 25.7315 97.4374C27.7271 104.093 30.9139 110.505 35.4449 116.311C39.609 121.648 44.5542 125.991 49.9574 129.428C55.4537 132.923 61.4275 135.45 67.6463 136.914C81.0914 140.077 95.5385 138.373 108.209 131.514C110.999 130.005 113.727 128.305 116.311 126.288C118.896 124.271 121.207 122.039 123.35 119.699C133.082 109.075 138.247 95.4752 138.447 81.666C138.539 75.2783 137.539 68.8694 135.485 62.6886C133.464 56.6122 130.452 50.7577 126.288 45.4216C121.758 39.6167 116.312 34.9672 110.346 31.413ZM107.416 38.6453L103.051 49.4284C97.6695 45.6349 91.4675 43.3521 85.0793 42.6465L89.4844 31.7628C95.7942 32.8674 101.887 35.1757 107.416 38.6453ZM105.153 61.9141C115.604 75.3056 113.212 94.7024 99.8189 105.153C86.4258 115.605 67.0295 113.211 56.5794 99.819C46.1295 86.4279 48.5212 67.0307 61.9141 56.5796C75.3067 46.1285 94.7035 48.5229 105.153 61.9141ZM50.1476 41.5011C52.7378 39.4798 55.4751 37.7745 58.3005 36.3403L65.5348 45.6108C62.6206 46.8763 59.8049 48.4812 57.1881 50.5233C54.5708 52.5657 52.3298 54.9071 50.3942 57.4258L43.1599 48.1553C45.2374 45.7635 47.5569 43.5227 50.1476 41.5011ZM31.142 77.2884L42.7714 75.6616C41.9021 82.0283 42.6064 88.6011 44.9778 94.7437L33.4571 96.3572C31.4382 90.1485 30.68 83.6771 31.142 77.2884ZM52.8835 122.196L57.3135 111.253C62.5372 115.301 68.6209 117.859 74.9598 118.843L70.5719 129.682C64.3167 128.366 58.2993 125.856 52.8835 122.196ZM111.585 120.232C108.995 122.253 106.257 123.959 103.432 125.393L96.1981 116.122C99.1121 114.857 101.928 113.252 104.545 111.21C107.162 109.168 109.403 106.827 111.339 104.307L118.573 113.578C116.495 115.97 114.176 118.21 111.585 120.232ZM130.717 82.7476L119.14 84.3673C119.727 77.9806 118.723 71.456 116.066 65.4053L127.759 63.7694C129.992 69.9109 130.964 76.3577 130.717 82.7476Z" fill="#00FF19"/>
<path d="M80.8579 75.5635C75.8617 77.1239 73.5294 77.4094 72.3593 75.91C71.3672 74.6385 71.3274 72.6239 74.2814 70.3187C75.9846 68.9896 77.5893 68.192 78.9569 67.6763C79.732 67.3832 80.3527 66.7826 80.6771 66.0152C80.9998 65.2519 80.9926 64.3893 80.6601 63.6279L80.5794 63.4391C79.8193 61.7033 77.7983 60.9058 76.0574 61.6626C74.7205 62.242 73.2349 63.0636 71.5828 64.2384L70.2521 62.5331C69.3476 61.374 67.6973 61.0303 66.4591 61.8228C65.0391 62.7317 64.736 64.641 65.75 65.9404L67.3802 68.0294C63.2631 72.7765 62.8938 78.108 66.0125 82.1045C69.4509 86.5107 74.5379 86.195 80.6755 84.0364C84.9212 82.5502 87.2262 82.505 88.5725 84.2303C89.9905 86.0475 88.9996 88.4293 86.409 90.4509C84.5549 91.8977 82.5128 92.8847 80.5762 93.5302C79.7668 93.7977 79.1084 94.3993 78.7607 95.1797C78.4134 95.9597 78.4077 96.8489 78.7523 97.6321L78.7919 97.7251C79.6036 99.5822 81.7321 100.469 83.6211 99.7373C85.4721 99.0182 87.483 97.9605 89.3401 96.64L90.9231 98.6686C91.8822 99.8976 93.656 100.116 94.885 99.1574C96.1141 98.1983 96.3329 96.4245 95.3738 95.1955L93.5428 92.849C98.0566 87.8659 98.2249 82.1796 95.0705 78.1373C91.8815 74.0507 87.7522 73.2526 80.8579 75.5635Z" fill="#00FF19"/>
</svg>
