<svg width="239" height="239" viewBox="0 0 239 239" fill="none" xmlns="http://www.w3.org/2000/svg">
<path d="M177.75 152.576C181.516 145.96 184.115 138.828 185.47 131.467C188.281 116.227 185.821 100.136 177.848 86.0687C176.018 82.8382 173.967 79.6865 171.548 76.7088C169.129 73.7309 166.465 71.0772 163.678 68.6247C151.544 57.9366 136.303 52.2326 120.81 51.8559C113.328 51.6784 105.816 52.7583 98.5687 55.0891C90.828 57.576 83.3985 61.451 76.7088 66.885C70.5608 71.8788 65.5919 77.7639 61.6948 84.164C57.7313 90.6744 54.9107 97.7213 53.3407 105.031C49.9472 120.833 52.2708 137.697 60.5856 152.364C62.4149 155.595 64.4661 158.746 66.885 161.724C69.3037 164.702 71.9681 167.356 74.755 169.808C87.4066 180.952 103.436 186.684 119.597 186.602C127.073 186.564 134.548 185.248 141.733 182.703C148.796 180.2 155.576 176.542 161.724 171.548C168.412 166.116 173.728 159.638 177.75 152.576ZM169.221 149.314L156.505 144.453C160.821 138.07 163.35 130.762 164.029 123.272L176.863 128.177C175.715 135.584 173.154 142.766 169.221 149.314ZM141.946 147.198C126.517 159.731 103.768 157.376 91.2349 141.946C78.701 126.515 81.0587 103.767 96.4875 91.2346C111.916 78.7025 134.665 81.0573 147.198 96.4877C159.732 111.918 157.374 134.666 141.946 147.198ZM164.571 82.3765C166.995 85.3608 169.052 88.5244 170.795 91.7973L160.114 100.473C158.567 97.0925 156.625 93.8349 154.176 90.8199C151.727 87.8045 148.936 85.2361 145.945 83.0291L156.626 74.3533C159.472 76.7292 162.146 79.3918 164.571 82.3765ZM122.266 60.9587L124.435 74.5275C116.967 73.656 109.293 74.6303 102.16 77.5452L100.009 64.1032C107.227 61.5992 114.781 60.5641 122.266 60.9587ZM70.2222 87.4221L83.127 92.355C78.5107 98.559 75.6563 105.735 74.65 113.174L61.8683 108.288C63.2647 100.94 66.0638 93.8421 70.2222 87.4221ZM73.8625 156.057C71.4381 153.072 69.3803 149.908 67.6381 146.636L78.319 137.96C79.8656 141.34 81.8079 144.598 84.2573 147.613C86.7063 150.628 89.4964 153.197 92.4883 155.404L81.8075 164.08C78.9613 161.703 76.2866 159.041 73.8625 156.057ZM118.155 177.583L115.996 164.075C123.481 164.616 131.092 163.292 138.11 160.045L140.292 173.689C133.157 176.441 125.637 177.727 118.155 177.583Z" fill="#DB00FF"/>
<path d="M125.421 119.085C123.481 113.276 123.094 110.553 124.821 109.15C126.286 107.96 128.642 107.868 131.407 111.271C133.001 113.234 133.97 115.093 134.605 116.681C134.966 117.581 135.682 118.294 136.588 118.656C137.488 119.016 138.497 118.988 139.38 118.581L139.599 118.482C141.613 117.553 142.5 115.171 141.575 113.151C140.866 111.6 139.871 109.881 138.459 107.975L140.423 106.379C141.759 105.294 142.123 103.356 141.168 101.925C140.072 100.285 137.831 99.9736 136.334 101.19L133.927 103.145C128.279 98.4363 122.033 98.1261 117.429 101.866C112.352 105.99 112.838 111.934 115.503 119.066C117.339 123.999 117.445 126.695 115.457 128.309C113.363 130.01 110.554 128.905 108.13 125.92C106.395 123.784 105.193 121.418 104.394 119.166C104.062 118.226 103.343 117.469 102.422 117.08C101.502 116.692 100.461 116.705 99.553 117.126L99.4451 117.175C97.2908 118.167 96.3021 120.678 97.2012 122.871C98.0849 125.02 99.3683 127.348 100.956 129.491L98.6185 131.39C97.2024 132.54 96.987 134.62 98.1372 136.036C99.2874 137.452 101.368 137.668 102.784 136.517L105.487 134.321C111.42 139.489 118.077 139.556 122.734 135.773C127.443 131.948 128.282 127.099 125.421 119.085Z" fill="#DB00FF"/>
</svg>
