<svg width="80" height="80" viewBox="0 0 80 80" fill="none" xmlns="http://www.w3.org/2000/svg">
<path d="M77.2576 25.5235C75.6197 21.3138 73.3072 17.4493 70.4243 14.0718C64.458 7.07676 56.1275 2.19014 46.6667 0.600279C44.4946 0.234418 42.276 0 40 0C37.7238 0 35.505 0.234418 33.3333 0.600279C23.8723 2.19014 15.5443 7.07542 9.57549 14.0691C6.69516 17.4481 4.38262 21.3113 2.74487 25.5208C0.994604 30.0158 0 34.8867 0 40C0 44.6993 0.851441 49.1889 2.341 53.3776C3.85652 57.6381 6.04666 61.573 8.82535 65.0302C14.8333 72.5041 23.4685 77.7422 33.3333 79.3997C35.505 79.7656 37.7238 80 40 80C42.276 80 44.4946 79.7656 46.6667 79.3997C56.5312 77.742 65.1667 72.504 71.1745 65.0312C73.9532 61.5744 76.1433 57.6395 77.6587 53.3789C79.1482 49.1902 80 44.6993 80 40C80 34.888 79.0051 30.0171 77.2576 25.5235ZM72.5651 28.2307L65.5702 32.2682C64.2449 27.8933 61.8254 23.9949 58.6302 20.8802L65.6899 16.8046C68.6717 20.1042 71.0208 23.9701 72.5651 28.2307ZM61.388 40C61.388 51.7931 51.7941 61.388 40 61.388C28.2056 61.388 18.6118 51.7931 18.6118 40C18.6118 28.2072 28.2057 18.612 40 18.612C51.7941 18.612 61.388 28.2072 61.388 40ZM40 5.33335C42.2811 5.33335 44.5077 5.56911 46.6667 5.9909V14.1549C44.5311 13.6028 42.3045 13.2786 40 13.2786C37.6952 13.2786 35.4685 13.603 33.3333 14.1549V5.9909C35.492 5.56911 37.7186 5.33335 40 5.33335ZM14.3123 16.8035L21.3723 20.8802C18.1771 23.9936 15.7553 27.8919 14.4296 32.2669L7.43475 28.2293C8.98158 23.9688 11.3306 20.1029 14.3123 16.8035ZM7.03121 50.6694L14.1301 46.5718C15.2603 51.0183 17.4973 55.0172 20.5466 58.2632L13.5154 62.3217C10.6537 58.9298 8.4322 54.9859 7.03121 50.6694ZM40 74.6666C37.7186 74.6666 35.492 74.4309 33.3333 74.0091V65.8451C35.4685 66.3974 37.6952 66.7214 40 66.7214C42.3045 66.7214 44.5311 66.3974 46.6667 65.8451V74.0091C44.5077 74.4309 42.2811 74.6666 40 74.6666ZM66.4816 62.3217L59.453 58.2632C62.5023 55.0184 64.7395 51.0183 65.8696 46.5718L72.9684 50.6707C71.5675 54.9859 69.3462 58.9298 66.4816 62.3217Z" fill="#FF038B"/>
<path d="M42.2603 37.0939C38.8592 35.814 37.4607 34.9741 37.4607 33.6536C37.4607 32.5339 38.2994 31.4143 40.9008 31.4143C42.4008 31.4143 43.6197 31.6631 44.5886 31.965C45.1379 32.1356 45.7342 32.072 46.2395 31.7905C46.7422 31.5105 47.1067 31.0353 47.2499 30.4766L47.2864 30.3388C47.6117 29.064 46.8462 27.7644 45.5701 27.435C44.5909 27.1812 43.4268 26.9963 42.0208 26.9337V25.4319C42.0208 24.4112 41.2643 23.5182 40.2481 23.4231C39.0827 23.3141 38.1014 24.2297 38.1014 25.374V27.2136C33.8204 28.0534 31.3411 30.8138 31.3411 34.3333C31.3411 38.2136 34.2602 40.2135 38.5416 41.6535C41.5001 42.6535 42.781 43.6132 42.781 45.1326C42.781 46.7328 41.2213 47.6132 38.9399 47.6132C37.3072 47.6132 35.7679 47.2812 34.4322 46.8073C33.875 46.6081 33.2576 46.6561 32.734 46.9348C32.2108 47.2134 31.8278 47.6976 31.682 48.2735L31.6639 48.3413C31.3149 49.7044 32.1013 51.0989 33.4477 51.5053C34.7679 51.9023 36.3203 52.1822 37.9008 52.2527V54.0392C37.9008 55.1215 38.7782 55.9989 39.8605 55.9989C40.9428 55.9989 41.8202 55.1215 41.8202 54.0392V51.9728C46.4192 51.1732 48.94 48.1328 48.94 44.573C48.94 40.9742 47.0208 38.7737 42.2603 37.0939Z" fill="#FF038B"/>
</svg>
