<svg width="130" height="126" viewBox="0 0 130 126" fill="none" xmlns="http://www.w3.org/2000/svg">
<path d="M61.0667 14.7351L43.5955 26.0221L58.3248 29.8404L61.0667 14.7351Z" fill="#EBFF00"/>
<path d="M36.7918 30.4175L21.0005 40.6193L34.4854 44.17L36.7918 30.4175Z" fill="#EBFF00"/>
<path d="M71.189 37.959L61.9605 35.4682L60.2152 44.9294L71.189 37.959Z" fill="#EBFF00"/>
<path d="M55.0075 48.2938L57.5659 34.3785L41.4837 30.1246L38.9343 45.3437L53.5795 49.2163L55.0075 48.2938Z" fill="#EBFF00"/>
<path d="M96.6101 21.6551L65.853 13.6669L62.7736 31.0141L76.3967 34.5946L96.6101 21.6551Z" fill="#EBFF00"/>
<path d="M31.1823 63.5666L33.7265 48.7081L18.0592 44.5434L12.4808 75.5294L31.1823 63.5666Z" fill="#EBFF00"/>
<path d="M48.4557 52.5264L38.1211 49.7977L36.39 60.2022L48.4557 52.5264Z" fill="#EBFF00"/>
<path d="M90.4703 91.577L99.2743 25.4104L78.221 38.8925L90.4703 91.577Z" fill="#EBFF00"/>
<path d="M35.1361 66.3697L14.6708 79.472L78.6268 99.2283L35.1361 66.3697Z" fill="#EBFF00"/>
<path d="M39.3062 63.7947L87.5699 100.356L74.1891 41.4972L39.3062 63.7947Z" fill="#EBFF00"/>
</svg>
