<svg width="89" height="77" viewBox="0 0 89 77" fill="none" xmlns="http://www.w3.org/2000/svg">
<path d="M65.9689 1.24077L47.8569 0.892487L56.6383 10.8175L65.9689 1.24077Z" fill="#E9FB1D"/>
<path d="M40.8037 0.75684L24.4332 0.442047L32.446 9.56835L40.8037 0.75684Z" fill="#E9FB1D"/>
<path d="M61.98 22.9413L56.526 16.6517L50.6617 22.6365L61.98 22.9413Z" fill="#E9FB1D"/>
<path d="M45.263 22.5327L53.8819 13.7263L44.3353 2.82828L35.0884 12.5809L43.7827 22.5043L45.263 22.5327Z" fill="#E9FB1D"/>
<path d="M88.2756 23.5341L69.9459 2.7981L59.2807 13.8301L67.3789 23.0451L88.2756 23.5341Z" fill="#E9FB1D"/>
<path d="M20.622 21.9718L29.6897 12.4771L20.3992 1.84535L1.29262 21.513L20.622 21.9718Z" fill="#E9FB1D"/>
<path d="M38.4711 22.4021L32.3338 15.4025L26.0208 22.0756L38.4711 22.4021Z" fill="#E9FB1D"/>
<path d="M49.8179 71.0529L88.3727 27.5429L66.6052 27.0373L49.8179 71.0529Z" fill="#E9FB1D"/>
<path d="M22.114 25.9204L0.956055 25.4264L37.54 70.8168L22.114 25.9204Z" fill="#E9FB1D"/>
<path d="M26.3792 26.0895L43.4513 75.9827L62.4256 26.9568L26.3792 26.0895Z" fill="#E9FB1D"/>
</svg>
