<?xml version="1.0" encoding="utf-8"?>
<!-- Generator: Adobe Illustrator 21.0.0, SVG Export Plug-In . SVG Version: 6.00 Build 0)  -->
<svg version="1.1" id="Слой_1" xmlns="http://www.w3.org/2000/svg" xmlns:xlink="http://www.w3.org/1999/xlink" x="0px" y="0px"
	 viewBox="0 0 200 200" style="enable-background:new 0 0 200 200;" xml:space="preserve">
<style type="text/css">
	.st0{fill:#008B83;}
	.st1{fill:#EFC14D;}
	.st2{fill:#FFFFFF;}
</style>
<rect x="7" y="28.3" class="st0" width="176.7" height="46"/>
<g>
	<g>
		<path class="st1" d="M19.1,49.9V55h20.5v-5.1l2.2,2c0.2,0.2,0.5,0.2,0.7,0l2-2.2c0.2-0.2,0.2-0.5,0-0.7l-5.7-5.3v-3.9
			c0-0.1-0.1-0.2-0.2-0.2h-1.9c-0.1,0-0.2,0.1-0.2,0.2v1.7l-5.7-5.3c-0.8-0.7-2-0.7-2.7,0L14.1,49.1c-0.2,0.2-0.2,0.4,0,0.6l2.1,2.3
			c0.2,0.2,0.4,0.2,0.6,0L19.1,49.9z M26,54c0,0.1-0.1,0.2-0.2,0.2l-3,0.4c0,0,0,0,0,0c-0.1,0-0.1,0-0.2-0.1c-0.1,0-0.1-0.1-0.1-0.2
			v-5.9c0-0.1,0-0.1,0.1-0.2c0.1,0,0.1-0.1,0.2-0.1l3,0.4c0.1,0,0.2,0.1,0.2,0.2V54z M22.6,46.7l3.2-3l3,3H22.6z M29,54.5l-1.7-0.1
			c-0.4,0-0.8-0.4-0.8-0.8v-4.2c0-0.4,0.3-0.8,0.8-0.8l1.7-0.1V54.5z M32.1,53.7c0,0.4-0.3,0.8-0.8,0.8l-1.7,0.1v-5.9l1.7,0
			c0.4,0,0.8,0.4,0.8,0.8V53.7z M36.1,54.4c0,0.1,0,0.1-0.1,0.2c0,0-0.1,0.1-0.2,0.1c0,0,0,0,0,0l-3-0.4c-0.1,0-0.2-0.1-0.2-0.2
			v-5.1c0-0.1,0.1-0.2,0.2-0.2l3-0.4c0.1,0,0.1,0,0.2,0.1c0.1,0,0.1,0.1,0.1,0.2V54.4z M29.9,46.7l3-3l3.2,3H29.9z M32.3,43.2
			l-2.6,2.6v-5L32.3,43.2z M29,40.7v5l-2.6-2.6L29,40.7z"/>
		<polygon class="st1" points="33.2,53.8 35.6,54.1 35.6,48.8 33.2,49.2 		"/>
		<polygon class="st1" points="23,54.1 25.5,53.8 25.5,49.2 23,48.8 		"/>
		<rect x="26.9" y="57.3" class="st1" width="5.2" height="6.2"/>
		<path class="st1" d="M38.5,64.3c0.6,0,1.1-0.5,1.1-1.1v-7.3H19.1v7.3c0,0.6,0.5,1.1,1.1,1.1h5.9l0-7.3c0-0.2,0.2-0.4,0.4-0.4h6
			c0.2,0,0.4,0.2,0.4,0.4v7.3H38.5z"/>
		<path class="st1" d="M32.3,64h-5.6c-0.1,0-0.1,0.1-0.1,0.1v0.6c0,0.1,0.1,0.1,0.1,0.1h5.6c0.1,0,0.1-0.1,0.1-0.1v-0.6
			C32.4,64.1,32.4,64,32.3,64z"/>
		<path class="st1" d="M32.3,65.5h-5.6c-0.1,0-0.1,0.1-0.1,0.1v0.6c0,0.1,0.1,0.1,0.1,0.1h5.6c0.1,0,0.1-0.1,0.1-0.1v-0.6
			C32.4,65.5,32.4,65.5,32.3,65.5z"/>
		<path class="st1" d="M42.1,65.4H34c-0.1,0-0.1,0.1-0.1,0.1v0.8c0,0.1,0.1,0.1,0.1,0.1h8.1c0.1,0,0.1-0.1,0.1-0.1v-0.8
			C42.2,65.4,42.2,65.4,42.1,65.4z"/>
		<path class="st1" d="M25,65.4h-8.1c-0.1,0-0.1,0.1-0.1,0.1v0.8c0,0.1,0.1,0.1,0.1,0.1H25c0.1,0,0.1-0.1,0.1-0.1v-0.8
			C25.1,65.4,25,65.4,25,65.4z"/>
		<path class="st1" d="M32.3,66.9h-5.6c-0.1,0-0.1,0.1-0.1,0.1v0.6c0,0.1,0.1,0.1,0.1,0.1h5.6c0.1,0,0.1-0.1,0.1-0.1v-0.6
			C32.4,67,32.4,66.9,32.3,66.9z"/>
		<path class="st1" d="M38,39c-0.2-0.1-0.2-0.3-0.1-0.5c0-0.2,0.1-0.3,0.1-0.5c0.1-0.3,0.4-0.6,0.5-1c0.1-0.4,0.1-0.9-0.1-1.3
			c-0.2-0.3-0.5-0.6-0.3-1c-0.2,0.1-0.2,0.4-0.2,0.6c0,0.2,0.1,0.4,0.2,0.6c0.1,0.3,0.1,0.7,0,1c-0.1,0.3-0.4,0.6-0.4,1.1
			c0,0.2-0.1,0.4,0,0.6C37.6,38.7,37.8,39,38,39z"/>
		<path class="st1" d="M36.9,38.3c-0.2-0.1-0.2-0.3-0.1-0.5c0-0.2,0.1-0.3,0.1-0.5c0.1-0.3,0.4-0.6,0.5-1c0.1-0.4,0.1-0.9-0.1-1.3
			c-0.2-0.3-0.5-0.6-0.3-1c-0.2,0.1-0.2,0.4-0.2,0.6c0,0.2,0.1,0.4,0.2,0.6c0.1,0.3,0.1,0.7,0,1c-0.1,0.3-0.4,0.6-0.4,1.1
			c0,0.2-0.1,0.4,0,0.6C36.6,38.1,36.7,38.3,36.9,38.3z"/>
	</g>
	<g>
		<path class="st2" d="M118.2,49.5l0,1.7c0,0.2,0.2,0.3,0.3,0.3l2.8,0.1c1,0.1,1.8,0.8,1.8,1.6c0,0.9-0.9,1.6-2,1.6h-4.1
			c-0.2,0-0.3,0.2-0.3,0.3V57c0,0.2,0.2,0.3,0.3,0.3h4.1c2.5,0,4.5-1.9,4.5-4.1c0-1.3-0.6-2.4-1.6-3.1c0.4-0.6,0.8-1.3,0.8-2.4
			c0-2.2-1.7-4.2-3.7-4.2h-3.6c-0.2,0-0.3,0.2-0.3,0.3v1.8c0,0.2,0.2,0.3,0.3,0.3h3.4c1.2,0,1.3,0.8,1.4,1.5c0,0.5-0.3,1.5-1.4,1.6
			l-2.4,0C118.3,49.1,118.2,49.3,118.2,49.5"/>
		<g>
			<path class="st2" d="M52.8,46h3l0,11c0,0.2,0.2,0.4,0.4,0.4h2.1c0.2,0,0.4-0.2,0.4-0.4l0-11h3c0.2,0,0.3-0.1,0.3-0.3v-1.9
				c0-0.2-0.1-0.3-0.3-0.3h-8.9c-0.2,0-0.3,0.2-0.3,0.3v1.8C52.4,45.9,52.6,46,52.8,46z"/>
			<path class="st2" d="M72.3,55.1l-4.8,0v-3.5h3.5c0.2,0,0.3-0.2,0.3-0.3v-1.8c0-0.2-0.2-0.3-0.3-0.3h-3.5V46h4.8
				c0.2,0,0.3-0.2,0.3-0.3v-1.8c0-0.2-0.2-0.4-0.4-0.3l-6.9,0c-0.2,0-0.3,0.2-0.3,0.3L65,57c0,0.2,0.2,0.3,0.4,0.3h6.9
				c0.2,0,0.3-0.2,0.3-0.3l0-1.6C72.7,55.3,72.5,55.1,72.3,55.1z"/>
			<path class="st2" d="M94.8,55.1l-4.8,0v-3.5h3.7c0.2,0,0.4-0.2,0.4-0.3v-1.8c0-0.2-0.2-0.3-0.4-0.3H90V46h4.8
				c0.2,0,0.3-0.2,0.3-0.3v-1.8c0-0.2-0.2-0.4-0.4-0.3l-6.9,0c-0.2,0-0.3,0.2-0.3,0.3l0,13.1c0,0.2,0.2,0.3,0.4,0.3h6.9
				c0.2,0,0.3-0.2,0.3-0.3l0-1.6C95.1,55.3,95,55.1,94.8,55.1z"/>
			<path class="st2" d="M78.5,52.7l2.2-0.1c2.4,0,4.4-1.9,4.3-4.2c0-2.7-1.6-4.9-5-4.9h-3.7c-0.2,0-0.3,0.2-0.3,0.3l0,8.3l0,4.8
				c0,0.2,0.2,0.3,0.3,0.3h1.8c0.2,0,0.3-0.2,0.3-0.3L78.5,52.7z M82,48.1c0,0.8-0.7,2-2,2h-1.5V46H80C81.4,46,82,47.3,82,48.1z"/>
			<path class="st2" d="M111.9,43.5h-2.7c-0.2,0-0.3,0.1-0.3,0.2l-2.9,9.3l-2.9-9.3c0-0.1-0.2-0.2-0.3-0.2h-2.7
				c-0.2,0-0.3,0.1-0.3,0.3L98.5,57c0,0.2,0.1,0.4,0.3,0.4h1.8c0.2,0,0.3-0.1,0.3-0.3l0.8-8.9l2.8,9c0,0.1,0.2,0.2,0.3,0.2h2
				c0.2,0,0.3-0.1,0.3-0.2l2.8-9l0.8,8.9c0,0.2,0.2,0.3,0.3,0.3h1.8c0.2,0,0.4-0.2,0.3-0.4l-1.2-13.1
				C112.3,43.7,112.1,43.5,111.9,43.5z"/>
			<path class="st2" d="M171.4,43.5h-2.7c-0.2,0-0.3,0.1-0.3,0.2l-2.9,9.3l-2.9-9.3c0-0.1-0.2-0.2-0.3-0.2h-2.7
				c-0.2,0-0.3,0.1-0.3,0.3L158,57c0,0.2,0.1,0.4,0.3,0.4h1.8c0.2,0,0.3-0.1,0.3-0.3l0.8-8.9l2.8,9c0,0.1,0.2,0.2,0.3,0.2h2
				c0.2,0,0.3-0.1,0.3-0.2l2.8-9l0.8,8.9c0,0.2,0.2,0.3,0.3,0.3h1.8c0.2,0,0.4-0.2,0.3-0.4l-1.2-13.1
				C171.7,43.7,171.6,43.5,171.4,43.5z"/>
			<path class="st2" d="M135.3,43.5h-2.1c-0.2,0-0.3,0.1-0.3,0.3L129,56.9c-0.1,0.2,0.1,0.4,0.3,0.4l1.9,0c0.1,0,0.3-0.1,0.3-0.2
				l0.9-2.8h3.4l0.9,2.8c0,0.1,0.2,0.2,0.3,0.2h1.9c0.2,0,0.4-0.2,0.3-0.4l-3.8-13.1C135.6,43.6,135.4,43.5,135.3,43.5z M133.2,51.9
				l0.9-3.7l1,3.7H133.2z"/>
			<path class="st2" d="M153.1,43.5h-1.7c-0.1,0-0.2,0.1-0.3,0.2L146,53l0-9.1c0-0.2-0.1-0.3-0.3-0.3h-1.9c-0.2,0-0.3,0.1-0.3,0.3
				l0,13.2c0,0.2,0.2,0.3,0.4,0.3h2.3c0.1,0,0.2-0.1,0.3-0.2l4.5-8.3l0,8.2c0,0.2,0.2,0.3,0.4,0.3h1.8c0.2,0,0.4-0.2,0.4-0.3V43.9
				C153.5,43.7,153.3,43.5,153.1,43.5z"/>
			<path class="st2" d="M151.5,39.3l-5.6-0.1c-0.2,0-0.3,0.1-0.3,0.3l0,1.9c0,0.2,0.1,0.3,0.3,0.3l5.6,0.1c0.2,0,0.3-0.1,0.3-0.3
				l0-1.9C151.8,39.5,151.7,39.3,151.5,39.3z"/>
		</g>
	</g>
</g>
</svg>
