<svg width="125" height="117" viewBox="0 0 125 117" fill="none" xmlns="http://www.w3.org/2000/svg">
<g clip-path="url(#clip0)">
<path d="M100.02 26.4456L80.5897 19.0222L86.2142 33.1607L100.02 26.4456Z" fill="#E9FB1D"/>
<path d="M73.0231 16.1314L55.4611 9.4219L60.5661 22.3984L73.0231 16.1314Z" fill="#E9FB1D"/>
<path d="M87.2676 48.336L83.823 39.4194L75.1594 43.603L87.2676 48.336Z" fill="#E9FB1D"/>
<path d="M69.3678 41.3903L82.1049 35.2304L76.0323 19.7432L62.2486 26.6808L67.7797 40.7836L69.3678 41.3903Z" fill="#E9FB1D"/>
<path d="M115.443 59.2075L103.71 29.6753L87.8966 37.4431L93.0593 50.5487L115.443 59.2075Z" fill="#E9FB1D"/>
<path d="M42.9671 31.1969L56.4569 24.4681L50.5574 9.36826L22.2647 23.1805L42.9671 31.1969Z" fill="#E9FB1D"/>
<path d="M62.0814 38.6065L58.175 28.6572L48.7588 33.4096L62.0814 38.6065Z" fill="#E9FB1D"/>
<path d="M55.4097 95.5772L113.988 63.5759L90.6703 54.5603L55.4097 95.5772Z" fill="#E9FB1D"/>
<path d="M43.0425 36.0429L20.3784 27.2771L42.2382 90.5451L43.0425 36.0429Z" fill="#E9FB1D"/>
<path d="M47.5841 37.8851L46.6139 98.4257L86.1864 52.8472L47.5841 37.8851Z" fill="#E9FB1D"/>
</g>
<defs>
<clipPath id="clip0">
<rect width="100.4" height="86.3" fill="white" transform="translate(30.7996) rotate(20.9093)"/>
</clipPath>
</defs>
</svg>
