<?xml version="1.0" encoding="utf-8"?>
<!-- Generator: Adobe Illustrator 21.0.0, SVG Export Plug-In . SVG Version: 6.00 Build 0)  -->
<svg version="1.1" id="Слой_1" xmlns="http://www.w3.org/2000/svg" xmlns:xlink="http://www.w3.org/1999/xlink" x="0px" y="0px"
	 viewBox="0 0 100.4 86.3" style="enable-background:new 0 0 100.4 86.3;" xml:space="preserve">
<g>
	<g>
		<polygon points="74.1,0 53.3,0 63.6,11.2 		"/>
		<polygon points="45.2,0 26.4,0 35.8,10.3 		"/>
		<g>
			<polygon points="70,25 63.6,17.9 57,24.9 			"/>
			<polygon points="50.8,24.9 60.5,14.6 49.3,2.3 38.9,13.7 49.1,24.9 			"/>
			<polygon points="100.2,25.1 78.7,1.7 66.7,14.6 76.2,25 			"/>
			<polygon points="22.5,24.8 32.7,13.7 21.8,1.7 0.3,24.7 			"/>
			<polygon points="43,24.9 35.8,17 28.7,24.8 			"/>
		</g>
		<g>
			<polygon points="57.1,80.5 100.4,29.7 75.4,29.6 			"/>
		</g>
	</g>
	<g>
		<polygon points="24.3,29.3 0,29.2 43,80.5 		"/>
		<polygon points="29.2,29.4 49.9,86.3 70.6,29.6 		"/>
	</g>
</g>
</svg>
