<svg width="114" height="25" viewBox="0 0 114 25" fill="none" xmlns="http://www.w3.org/2000/svg">
<path d="M14.7188 14.7031H5.71875V24H1.03125V1.25H15.8438V5.04688H5.71875V10.9219H14.7188V14.7031ZM28.4062 19.3125H20.1875L18.625 24H13.6406L22.1094 1.25H26.4531L34.9688 24H29.9844L28.4062 19.3125ZM21.4531 15.5156H27.1406L24.2812 7L21.4531 15.5156ZM44.2812 18.3594L49.4375 1.25H54.6562L46.7344 24H41.8438L33.9531 1.25H39.1562L44.2812 18.3594ZM56.8125 24V1.25H64.7812C67.5417 1.25 69.6354 1.78125 71.0625 2.84375C72.4896 3.89583 73.2031 5.44271 73.2031 7.48438C73.2031 8.59896 72.9167 9.58333 72.3438 10.4375C71.7708 11.2812 70.974 11.901 69.9531 12.2969C71.1198 12.5885 72.0365 13.1771 72.7031 14.0625C73.3802 14.9479 73.7188 16.0312 73.7188 17.3125C73.7188 19.5 73.0208 21.1562 71.625 22.2812C70.2292 23.4062 68.2396 23.9792 65.6562 24H56.8125ZM61.5 14.0938V20.2344H65.5156C66.6198 20.2344 67.4792 19.974 68.0938 19.4531C68.7188 18.9219 69.0312 18.1927 69.0312 17.2656C69.0312 15.1823 67.9531 14.125 65.7969 14.0938H61.5ZM61.5 10.7812H64.9688C67.3333 10.7396 68.5156 9.79688 68.5156 7.95312C68.5156 6.92188 68.2135 6.18229 67.6094 5.73438C67.0156 5.27604 66.0729 5.04688 64.7812 5.04688H61.5V10.7812ZM90.9375 14.1406H81.9375V20.2344H92.5V24H77.25V1.25H92.4688V5.04688H81.9375V10.4688H90.9375V14.1406ZM112.688 5.04688H105.719V24H101.031V5.04688H94.1562V1.25H112.688V5.04688Z" fill="#E9FB1D"/>
<path d="M14.7188 14.7031V15.7031H15.7188V14.7031H14.7188ZM5.71875 14.7031V13.7031H4.71875V14.7031H5.71875ZM5.71875 24V25H6.71875V24H5.71875ZM1.03125 24H0.03125V25H1.03125V24ZM1.03125 1.25V0.25H0.03125V1.25H1.03125ZM15.8438 1.25H16.8438V0.25H15.8438V1.25ZM15.8438 5.04688V6.04688H16.8438V5.04688H15.8438ZM5.71875 5.04688V4.04688H4.71875V5.04688H5.71875ZM5.71875 10.9219H4.71875V11.9219H5.71875V10.9219ZM14.7188 10.9219H15.7188V9.92188H14.7188V10.9219ZM14.7188 13.7031H5.71875V15.7031H14.7188V13.7031ZM4.71875 14.7031V24H6.71875V14.7031H4.71875ZM5.71875 23H1.03125V25H5.71875V23ZM2.03125 24V1.25H0.03125V24H2.03125ZM1.03125 2.25H15.8438V0.25H1.03125V2.25ZM14.8438 1.25V5.04688H16.8438V1.25H14.8438ZM15.8438 4.04688H5.71875V6.04688H15.8438V4.04688ZM4.71875 5.04688V10.9219H6.71875V5.04688H4.71875ZM5.71875 11.9219H14.7188V9.92188H5.71875V11.9219ZM13.7188 10.9219V14.7031H15.7188V10.9219H13.7188ZM28.4062 19.3125L29.354 18.9934L29.1247 18.3125H28.4062V19.3125ZM20.1875 19.3125V18.3125H19.4667L19.2388 18.9963L20.1875 19.3125ZM18.625 24V25H19.3458L19.5737 24.3162L18.625 24ZM13.6406 24L12.7035 23.6511L12.2013 25H13.6406V24ZM22.1094 1.25V0.25H21.4146L21.1722 0.901135L22.1094 1.25ZM26.4531 1.25L27.3897 0.899441L27.1466 0.25H26.4531V1.25ZM34.9688 24V25H36.4108L35.9053 23.6494L34.9688 24ZM29.9844 24L29.0366 24.3191L29.2659 25H29.9844V24ZM21.4531 15.5156L20.5041 15.2004L20.0673 16.5156H21.4531V15.5156ZM27.1406 15.5156V16.5156H28.5313L28.0886 15.1973L27.1406 15.5156ZM24.2812 7L25.2292 6.68169L24.276 3.84293L23.3322 6.68482L24.2812 7ZM28.4062 18.3125H20.1875V20.3125H28.4062V18.3125ZM19.2388 18.9963L17.6763 23.6838L19.5737 24.3162L21.1362 19.6287L19.2388 18.9963ZM18.625 23H13.6406V25H18.625V23ZM14.5778 24.3489L23.0465 1.59887L21.1722 0.901135L12.7035 23.6511L14.5778 24.3489ZM22.1094 2.25H26.4531V0.25H22.1094V2.25ZM25.5166 1.60056L34.0322 24.3506L35.9053 23.6494L27.3897 0.899441L25.5166 1.60056ZM34.9688 23H29.9844V25H34.9688V23ZM30.9321 23.6809L29.354 18.9934L27.4585 19.6316L29.0366 24.3191L30.9321 23.6809ZM21.4531 16.5156H27.1406V14.5156H21.4531V16.5156ZM28.0886 15.1973L25.2292 6.68169L23.3333 7.31831L26.1926 15.8339L28.0886 15.1973ZM23.3322 6.68482L20.5041 15.2004L22.4022 15.8308L25.2303 7.31518L23.3322 6.68482ZM44.2812 18.3594L43.3233 18.6463L44.2783 21.8346L45.2387 18.6479L44.2812 18.3594ZM49.4375 1.25V0.25H48.6944L48.48 0.961449L49.4375 1.25ZM54.6562 1.25L55.6006 1.57885L56.0634 0.25H54.6562V1.25ZM46.7344 24V25H47.4451L47.6788 24.3288L46.7344 24ZM41.8438 24L40.899 24.3277L41.1321 25H41.8438V24ZM33.9531 1.25V0.25H32.5478L33.0083 1.57769L33.9531 1.25ZM39.1562 1.25L40.1142 0.963053L39.9006 0.25H39.1562V1.25ZM45.2387 18.6479L50.395 1.53855L48.48 0.961449L43.3238 18.0708L45.2387 18.6479ZM49.4375 2.25H54.6562V0.25H49.4375V2.25ZM53.7119 0.921152L45.79 23.6712L47.6788 24.3288L55.6006 1.57885L53.7119 0.921152ZM46.7344 23H41.8438V25H46.7344V23ZM42.7885 23.6723L34.8979 0.92231L33.0083 1.57769L40.899 24.3277L42.7885 23.6723ZM33.9531 2.25H39.1562V0.25H33.9531V2.25ZM38.1983 1.53695L43.3233 18.6463L45.2392 18.0724L40.1142 0.963053L38.1983 1.53695ZM56.8125 24H55.8125V25H56.8125V24ZM56.8125 1.25V0.25H55.8125V1.25H56.8125ZM71.0625 2.84375L70.4653 3.64586L70.4691 3.64866L71.0625 2.84375ZM72.3438 10.4375L73.1711 10.9993L73.1742 10.9945L72.3438 10.4375ZM69.9531 12.2969L69.5916 11.3645L66.6551 12.5031L69.7106 13.267L69.9531 12.2969ZM72.7031 14.0625L71.9042 14.664L71.9088 14.67L72.7031 14.0625ZM65.6562 24V25L65.6643 25L65.6562 24ZM61.5 14.0938V13.0938H60.5V14.0938H61.5ZM61.5 20.2344H60.5V21.2344H61.5V20.2344ZM68.0938 19.4531L68.7403 20.216L68.7414 20.2151L68.0938 19.4531ZM65.7969 14.0938L65.8114 13.0939L65.8041 13.0938H65.7969V14.0938ZM61.5 10.7812H60.5V11.7812H61.5V10.7812ZM64.9688 10.7812V11.7812H64.9776L64.9864 11.7811L64.9688 10.7812ZM67.6094 5.73438L66.9983 6.52597L67.006 6.5319L67.0138 6.53769L67.6094 5.73438ZM61.5 5.04688V4.04688H60.5V5.04688H61.5ZM57.8125 24V1.25H55.8125V24H57.8125ZM56.8125 2.25H64.7812V0.25H56.8125V2.25ZM64.7812 2.25C67.4377 2.25 69.2826 2.76531 70.4653 3.64585L71.6597 2.04165C69.9882 0.79719 67.6456 0.25 64.7812 0.25V2.25ZM70.4691 3.64866C71.5993 4.48184 72.2031 5.70537 72.2031 7.48438H74.2031C74.2031 5.18004 73.3799 3.30983 71.6559 2.03884L70.4691 3.64866ZM72.2031 7.48438C72.2031 8.41795 71.9664 9.20491 71.5133 9.88046L73.1742 10.9945C73.867 9.96175 74.2031 8.77997 74.2031 7.48438H72.2031ZM71.5164 9.87575C71.0661 10.539 70.4378 11.0364 69.5916 11.3645L70.3147 13.2292C71.5101 12.7657 72.4756 12.0235 73.1711 10.9993L71.5164 9.87575ZM69.7106 13.267C70.6753 13.5082 71.3874 13.9775 71.9043 14.664L73.502 13.461C72.6855 12.3766 71.5643 11.6689 70.1957 11.3267L69.7106 13.267ZM71.9088 14.67C72.433 15.3555 72.7188 16.2165 72.7188 17.3125H74.7188C74.7188 15.846 74.3274 14.5403 73.4975 13.455L71.9088 14.67ZM72.7188 17.3125C72.7188 19.271 72.1059 20.6093 70.9975 21.5027L72.2525 23.0598C73.9357 21.7032 74.7188 19.729 74.7188 17.3125H72.7188ZM70.9975 21.5027C69.8401 22.4355 68.1026 22.9802 65.6482 23L65.6643 25C68.3765 24.9781 70.6183 24.377 72.2525 23.0598L70.9975 21.5027ZM65.6562 23H56.8125V25H65.6562V23ZM60.5 14.0938V20.2344H62.5V14.0938H60.5ZM61.5 21.2344H65.5156V19.2344H61.5V21.2344ZM65.5156 21.2344C66.7689 21.2344 67.8879 20.9384 68.7403 20.216L67.4472 18.6902C67.0705 19.0095 66.4706 19.2344 65.5156 19.2344V21.2344ZM68.7414 20.2151C69.6206 19.4678 70.0312 18.4433 70.0312 17.2656H68.0312C68.0312 17.9421 67.8169 18.376 67.4461 18.6912L68.7414 20.2151ZM70.0312 17.2656C70.0312 16.0597 69.7172 14.9752 68.9228 14.1962C68.1346 13.4232 67.0364 13.1116 65.8114 13.0939L65.7824 15.0936C66.7136 15.1071 67.2326 15.3398 67.5225 15.6241C67.8063 15.9024 68.0312 16.3882 68.0312 17.2656H70.0312ZM65.7969 13.0938H61.5V15.0938H65.7969V13.0938ZM61.5 11.7812H64.9688V9.78125H61.5V11.7812ZM64.9864 11.7811C66.2726 11.7584 67.4157 11.4919 68.2523 10.8248C69.1337 10.1221 69.5156 9.10552 69.5156 7.95312H67.5156C67.5156 8.64448 67.3064 9.02118 67.0055 9.26109C66.6598 9.5367 66.0295 9.7624 64.9511 9.78141L64.9864 11.7811ZM69.5156 7.95312C69.5156 6.73162 69.1504 5.63199 68.2049 4.93106L67.0138 6.53769C67.2767 6.7326 67.5156 7.11213 67.5156 7.95312H69.5156ZM68.2204 4.94278C67.3645 4.28204 66.1503 4.04688 64.7812 4.04688V6.04688C65.9955 6.04688 66.6668 6.27005 66.9983 6.52597L68.2204 4.94278ZM64.7812 4.04688H61.5V6.04688H64.7812V4.04688ZM60.5 5.04688V10.7812H62.5V5.04688H60.5ZM90.9375 14.1406V15.1406H91.9375V14.1406H90.9375ZM81.9375 14.1406V13.1406H80.9375V14.1406H81.9375ZM81.9375 20.2344H80.9375V21.2344H81.9375V20.2344ZM92.5 20.2344H93.5V19.2344H92.5V20.2344ZM92.5 24V25H93.5V24H92.5ZM77.25 24H76.25V25H77.25V24ZM77.25 1.25V0.25H76.25V1.25H77.25ZM92.4688 1.25H93.4688V0.25H92.4688V1.25ZM92.4688 5.04688V6.04688H93.4688V5.04688H92.4688ZM81.9375 5.04688V4.04688H80.9375V5.04688H81.9375ZM81.9375 10.4688H80.9375V11.4688H81.9375V10.4688ZM90.9375 10.4688H91.9375V9.46875H90.9375V10.4688ZM90.9375 13.1406H81.9375V15.1406H90.9375V13.1406ZM80.9375 14.1406V20.2344H82.9375V14.1406H80.9375ZM81.9375 21.2344H92.5V19.2344H81.9375V21.2344ZM91.5 20.2344V24H93.5V20.2344H91.5ZM92.5 23H77.25V25H92.5V23ZM78.25 24V1.25H76.25V24H78.25ZM77.25 2.25H92.4688V0.25H77.25V2.25ZM91.4688 1.25V5.04688H93.4688V1.25H91.4688ZM92.4688 4.04688H81.9375V6.04688H92.4688V4.04688ZM80.9375 5.04688V10.4688H82.9375V5.04688H80.9375ZM81.9375 11.4688H90.9375V9.46875H81.9375V11.4688ZM89.9375 10.4688V14.1406H91.9375V10.4688H89.9375ZM112.688 5.04688V6.04688H113.688V5.04688H112.688ZM105.719 5.04688V4.04688H104.719V5.04688H105.719ZM105.719 24V25H106.719V24H105.719ZM101.031 24H100.031V25H101.031V24ZM101.031 5.04688H102.031V4.04688H101.031V5.04688ZM94.1562 5.04688H93.1562V6.04688H94.1562V5.04688ZM94.1562 1.25V0.25H93.1562V1.25H94.1562ZM112.688 1.25H113.688V0.25H112.688V1.25ZM112.688 4.04688H105.719V6.04688H112.688V4.04688ZM104.719 5.04688V24H106.719V5.04688H104.719ZM105.719 23H101.031V25H105.719V23ZM102.031 24V5.04688H100.031V24H102.031ZM101.031 4.04688H94.1562V6.04688H101.031V4.04688ZM95.1562 5.04688V1.25H93.1562V5.04688H95.1562ZM94.1562 2.25H112.688V0.25H94.1562V2.25ZM111.688 1.25V5.04688H113.688V1.25H111.688Z" fill="black"/>
</svg>
