<svg width="97" height="27" viewBox="0 0 97 27" fill="none" xmlns="http://www.w3.org/2000/svg">
<path d="M14.7188 15.7031H5.71875V25H1.03125V2.25H15.8438V6.04688H5.71875V11.9219H14.7188V15.7031ZM26.9844 16.6719H23.25V25H18.5625V2.25H27.0156C29.7031 2.25 31.776 2.84896 33.2344 4.04688C34.6927 5.24479 35.4219 6.9375 35.4219 9.125C35.4219 10.6771 35.0833 11.974 34.4062 13.0156C33.7396 14.0469 32.724 14.8698 31.3594 15.4844L36.2812 24.7812V25H31.25L26.9844 16.6719ZM23.25 12.875H27.0312C28.2083 12.875 29.1198 12.5781 29.7656 11.9844C30.4115 11.3802 30.7344 10.5521 30.7344 9.5C30.7344 8.42708 30.4271 7.58333 29.8125 6.96875C29.2083 6.35417 28.276 6.04688 27.0156 6.04688H23.25V12.875ZM52.6875 15.1406H43.6875V21.2344H54.25V25H39V2.25H54.2188V6.04688H43.6875V11.4688H52.6875V15.1406ZM68.7969 19.0312C68.7969 18.1458 68.4844 17.4688 67.8594 17C67.2344 16.5208 66.1094 16.0208 64.4844 15.5C62.8594 14.9688 61.5729 14.4479 60.625 13.9375C58.0417 12.5417 56.75 10.6615 56.75 8.29688C56.75 7.06771 57.0938 5.97396 57.7812 5.01562C58.4792 4.04688 59.474 3.29167 60.7656 2.75C62.0677 2.20833 63.526 1.9375 65.1406 1.9375C66.7656 1.9375 68.2135 2.23438 69.4844 2.82812C70.7552 3.41146 71.7396 4.23958 72.4375 5.3125C73.1458 6.38542 73.5 7.60417 73.5 8.96875H68.8125C68.8125 7.92708 68.4844 7.11979 67.8281 6.54688C67.1719 5.96354 66.25 5.67188 65.0625 5.67188C63.9167 5.67188 63.026 5.91667 62.3906 6.40625C61.7552 6.88542 61.4375 7.52083 61.4375 8.3125C61.4375 9.05208 61.8073 9.67188 62.5469 10.1719C63.2969 10.6719 64.3958 11.1406 65.8438 11.5781C68.5104 12.3802 70.4531 13.375 71.6719 14.5625C72.8906 15.75 73.5 17.2292 73.5 19C73.5 20.9688 72.7552 22.5156 71.2656 23.6406C69.776 24.7552 67.7708 25.3125 65.25 25.3125C63.5 25.3125 61.9062 24.9948 60.4688 24.3594C59.0312 23.7135 57.9323 22.8333 57.1719 21.7188C56.4219 20.6042 56.0469 19.3125 56.0469 17.8438H60.75C60.75 20.3542 62.25 21.6094 65.25 21.6094C66.3646 21.6094 67.2344 21.3854 67.8594 20.9375C68.4844 20.4792 68.7969 19.8438 68.7969 19.0312ZM95.2031 25H90.5156V15.25H81.375V25H76.6875V2.25H81.375V11.4688H90.5156V2.25H95.2031V25Z" fill="#E9FB1D"/>
<path d="M14.7188 15.7031V16.7031H15.7188V15.7031H14.7188ZM5.71875 15.7031V14.7031H4.71875V15.7031H5.71875ZM5.71875 25V26H6.71875V25H5.71875ZM1.03125 25H0.03125V26H1.03125V25ZM1.03125 2.25V1.25H0.03125V2.25H1.03125ZM15.8438 2.25H16.8438V1.25H15.8438V2.25ZM15.8438 6.04688V7.04688H16.8438V6.04688H15.8438ZM5.71875 6.04688V5.04688H4.71875V6.04688H5.71875ZM5.71875 11.9219H4.71875V12.9219H5.71875V11.9219ZM14.7188 11.9219H15.7188V10.9219H14.7188V11.9219ZM14.7188 14.7031H5.71875V16.7031H14.7188V14.7031ZM4.71875 15.7031V25H6.71875V15.7031H4.71875ZM5.71875 24H1.03125V26H5.71875V24ZM2.03125 25V2.25H0.03125V25H2.03125ZM1.03125 3.25H15.8438V1.25H1.03125V3.25ZM14.8438 2.25V6.04688H16.8438V2.25H14.8438ZM15.8438 5.04688H5.71875V7.04688H15.8438V5.04688ZM4.71875 6.04688V11.9219H6.71875V6.04688H4.71875ZM5.71875 12.9219H14.7188V10.9219H5.71875V12.9219ZM13.7188 11.9219V15.7031H15.7188V11.9219H13.7188ZM26.9844 16.6719L27.8744 16.216L27.5957 15.6719H26.9844V16.6719ZM23.25 16.6719V15.6719H22.25V16.6719H23.25ZM23.25 25V26H24.25V25H23.25ZM18.5625 25H17.5625V26H18.5625V25ZM18.5625 2.25V1.25H17.5625V2.25H18.5625ZM33.2344 4.04688L33.8691 3.27415L33.2344 4.04688ZM34.4062 13.0156L33.5678 12.4706L33.5665 12.4727L34.4062 13.0156ZM31.3594 15.4844L30.9487 14.5726L29.9769 15.0103L30.4756 15.9523L31.3594 15.4844ZM36.2812 24.7812H37.2812V24.5329L37.165 24.3134L36.2812 24.7812ZM36.2812 25V26H37.2812V25H36.2812ZM31.25 25L30.36 25.4559L30.6387 26H31.25V25ZM23.25 12.875H22.25V13.875H23.25V12.875ZM29.7656 11.9844L30.4424 12.7206L30.4488 12.7146L29.7656 11.9844ZM29.8125 6.96875L29.0993 7.66981L29.1054 7.67586L29.8125 6.96875ZM23.25 6.04688V5.04688H22.25V6.04688H23.25ZM26.9844 15.6719H23.25V17.6719H26.9844V15.6719ZM22.25 16.6719V25H24.25V16.6719H22.25ZM23.25 24H18.5625V26H23.25V24ZM19.5625 25V2.25H17.5625V25H19.5625ZM18.5625 3.25H27.0156V1.25H18.5625V3.25ZM27.0156 3.25C29.5679 3.25 31.3826 3.81992 32.5996 4.8196L33.8691 3.27415C32.1695 1.878 29.8384 1.25 27.0156 1.25V3.25ZM32.5996 4.8196C33.7885 5.79619 34.4219 7.18353 34.4219 9.125H36.4219C36.4219 6.69147 35.5969 4.6934 33.8691 3.27415L32.5996 4.8196ZM34.4219 9.125C34.4219 10.5318 34.1159 11.6273 33.5678 12.4706L35.2447 13.5606C36.0507 12.3206 36.4219 10.8224 36.4219 9.125H34.4219ZM33.5665 12.4727C33.0252 13.31 32.1764 14.0197 30.9487 14.5726L31.77 16.3962C33.2715 15.7199 34.454 14.7838 35.246 13.5585L33.5665 12.4727ZM30.4756 15.9523L35.3975 25.2491L37.165 24.3134L32.2432 15.0165L30.4756 15.9523ZM35.2812 24.7812V25H37.2812V24.7812H35.2812ZM36.2812 24H31.25V26H36.2812V24ZM32.14 24.5441L27.8744 16.216L26.0943 17.1278L30.36 25.4559L32.14 24.5441ZM23.25 13.875H27.0312V11.875H23.25V13.875ZM27.0312 13.875C28.3718 13.875 29.5566 13.535 30.4424 12.7205L29.0888 11.2482C28.683 11.6213 28.0448 11.875 27.0312 11.875V13.875ZM30.4488 12.7146C31.3349 11.8857 31.7344 10.7719 31.7344 9.5H29.7344C29.7344 10.3322 29.488 10.8747 29.0825 11.2541L30.4488 12.7146ZM31.7344 9.5C31.7344 8.22781 31.3637 7.10575 30.5196 6.26164L29.1054 7.67586C29.4905 8.06092 29.7344 8.62635 29.7344 9.5H31.7344ZM30.5256 6.26771C29.6614 5.38854 28.4201 5.04688 27.0156 5.04688V7.04688C28.132 7.04688 28.7553 7.31979 29.0994 7.66979L30.5256 6.26771ZM27.0156 5.04688H23.25V7.04688H27.0156V5.04688ZM22.25 6.04688V12.875H24.25V6.04688H22.25ZM52.6875 15.1406V16.1406H53.6875V15.1406H52.6875ZM43.6875 15.1406V14.1406H42.6875V15.1406H43.6875ZM43.6875 21.2344H42.6875V22.2344H43.6875V21.2344ZM54.25 21.2344H55.25V20.2344H54.25V21.2344ZM54.25 25V26H55.25V25H54.25ZM39 25H38V26H39V25ZM39 2.25V1.25H38V2.25H39ZM54.2188 2.25H55.2188V1.25H54.2188V2.25ZM54.2188 6.04688V7.04688H55.2188V6.04688H54.2188ZM43.6875 6.04688V5.04688H42.6875V6.04688H43.6875ZM43.6875 11.4688H42.6875V12.4688H43.6875V11.4688ZM52.6875 11.4688H53.6875V10.4688H52.6875V11.4688ZM52.6875 14.1406H43.6875V16.1406H52.6875V14.1406ZM42.6875 15.1406V21.2344H44.6875V15.1406H42.6875ZM43.6875 22.2344H54.25V20.2344H43.6875V22.2344ZM53.25 21.2344V25H55.25V21.2344H53.25ZM54.25 24H39V26H54.25V24ZM40 25V2.25H38V25H40ZM39 3.25H54.2188V1.25H39V3.25ZM53.2188 2.25V6.04688H55.2188V2.25H53.2188ZM54.2188 5.04688H43.6875V7.04688H54.2188V5.04688ZM42.6875 6.04688V11.4688H44.6875V6.04688H42.6875ZM43.6875 12.4688H52.6875V10.4688H43.6875V12.4688ZM51.6875 11.4688V15.1406H53.6875V11.4688H51.6875ZM67.8594 17L67.2509 17.7937L67.2594 17.8L67.8594 17ZM64.4844 15.5L64.1736 16.4505L64.1792 16.4523L64.4844 15.5ZM60.625 13.9375L60.1496 14.8173L60.1509 14.818L60.625 13.9375ZM57.7812 5.01562L56.9699 4.43109L56.9687 4.43272L57.7812 5.01562ZM60.7656 2.75L60.3815 1.8267L60.3789 1.82781L60.7656 2.75ZM69.4844 2.82812L69.0611 3.73414L69.0672 3.73695L69.4844 2.82812ZM72.4375 5.3125L71.5992 5.85779L71.603 5.86345L72.4375 5.3125ZM73.5 8.96875V9.96875H74.5V8.96875H73.5ZM68.8125 8.96875H67.8125V9.96875H68.8125V8.96875ZM67.8281 6.54688L67.1637 7.29431L67.1705 7.30019L67.8281 6.54688ZM62.3906 6.40625L62.9927 7.20472L63.001 7.19839L62.3906 6.40625ZM62.5469 10.1719L61.9868 11.0003L61.9922 11.0039L62.5469 10.1719ZM65.8438 11.5781L65.5545 12.5354L65.5557 12.5357L65.8438 11.5781ZM71.2656 23.6406L71.8647 24.4413L71.8683 24.4386L71.2656 23.6406ZM60.4688 24.3594L60.0589 25.2716L60.0645 25.274L60.4688 24.3594ZM57.1719 21.7188L56.3422 22.277L56.3458 22.2823L57.1719 21.7188ZM56.0469 17.8438V16.8438H55.0469V17.8438H56.0469ZM60.75 17.8438H61.75V16.8438H60.75V17.8438ZM67.8594 20.9375L68.4419 21.7504L68.4507 21.7439L67.8594 20.9375ZM69.7969 19.0312C69.7969 17.8791 69.3723 16.8847 68.4594 16.2L67.2594 17.8C67.5965 18.0528 67.7969 18.4126 67.7969 19.0312H69.7969ZM68.4678 16.2064C67.6956 15.6144 66.4266 15.0724 64.7896 14.5477L64.1792 16.4523C65.7922 16.9693 66.7731 17.4273 67.2509 17.7936L68.4678 16.2064ZM64.7951 14.5495C63.1978 14.0273 61.9736 13.5279 61.0991 13.057L60.1509 14.818C61.1723 15.3679 62.5209 15.9102 64.1736 16.4505L64.7951 14.5495ZM61.1004 13.0577C58.7479 11.7866 57.75 10.1998 57.75 8.29688H55.75C55.75 11.1231 57.3355 13.2967 60.1496 14.8173L61.1004 13.0577ZM57.75 8.29688C57.75 7.26744 58.0336 6.37947 58.5938 5.59853L56.9687 4.43272C56.1539 5.56845 55.75 6.86798 55.75 8.29688H57.75ZM58.5926 5.60016C59.1654 4.80516 60.0008 4.15509 61.1524 3.67219L60.3789 1.82781C58.9471 2.42824 57.793 3.28859 56.9699 4.43109L58.5926 5.60016ZM61.1497 3.6733C62.3137 3.18907 63.6389 2.9375 65.1406 2.9375V0.9375C63.4132 0.9375 61.8217 1.2276 60.3815 1.8267L61.1497 3.6733ZM65.1406 2.9375C66.6424 2.9375 67.9422 3.21136 69.0611 3.73412L69.9077 1.92213C68.4849 1.25738 66.8888 0.9375 65.1406 0.9375V2.9375ZM69.0672 3.73695C70.1826 4.24895 71.0139 4.958 71.5992 5.85777L73.2758 4.76723C72.4652 3.52117 71.3278 2.57397 69.9015 1.9193L69.0672 3.73695ZM71.603 5.86345C72.1966 6.76265 72.5 7.78742 72.5 8.96875H74.5C74.5 7.42091 74.0951 6.00818 73.272 4.76155L71.603 5.86345ZM73.5 7.96875H68.8125V9.96875H73.5V7.96875ZM69.8125 8.96875C69.8125 7.70025 69.4022 6.59363 68.4858 5.79356L67.1705 7.30019C67.5665 7.64596 67.8125 8.15391 67.8125 8.96875H69.8125ZM68.4925 5.79947C67.5971 5.00356 66.4077 4.67188 65.0625 4.67188V6.67188C66.0923 6.67188 66.7467 6.92352 67.1638 7.29428L68.4925 5.79947ZM65.0625 4.67188C63.7878 4.67188 62.6516 4.94274 61.7803 5.61411L63.001 7.19839C63.4004 6.8906 64.0456 6.67188 65.0625 6.67188V4.67188ZM61.7885 5.60782C60.9041 6.27477 60.4375 7.20505 60.4375 8.3125H62.4375C62.4375 7.83662 62.6063 7.49606 62.9927 7.20468L61.7885 5.60782ZM60.4375 8.3125C60.4375 9.45575 61.0373 10.3584 61.9868 11.0003L63.1069 9.34343C62.5773 8.98536 62.4375 8.64842 62.4375 8.3125H60.4375ZM61.9922 11.0039C62.8608 11.583 64.067 12.0859 65.5545 12.5354L66.133 10.6209C64.7247 10.1953 63.733 9.76075 63.1016 9.33982L61.9922 11.0039ZM65.5557 12.5357C68.1553 13.3176 69.9215 14.2532 70.974 15.2787L72.3697 13.8463C70.9848 12.4968 68.8656 11.4428 66.1318 10.6205L65.5557 12.5357ZM70.974 15.2787C71.991 16.2696 72.5 17.4866 72.5 19H74.5C74.5 16.9717 73.7903 15.2304 72.3697 13.8463L70.974 15.2787ZM72.5 19C72.5 20.6752 71.8868 21.9184 70.6629 22.8426L71.8683 24.4386C73.6237 23.1129 74.5 21.2623 74.5 19H72.5ZM70.6665 22.84C69.402 23.7861 67.6305 24.3125 65.25 24.3125V26.3125C67.9111 26.3125 70.1501 25.7243 71.8647 24.4413L70.6665 22.84ZM65.25 24.3125C63.6234 24.3125 62.1694 24.0178 60.873 23.4447L60.0645 25.274C61.6431 25.9718 63.3766 26.3125 65.25 26.3125V24.3125ZM60.8786 23.4472C59.5806 22.8641 58.638 22.0934 57.9979 21.1552L56.3458 22.2823C57.2266 23.5733 58.4819 24.563 60.0589 25.2715L60.8786 23.4472ZM58.0015 21.1605C57.3729 20.2263 57.0469 19.133 57.0469 17.8438H55.0469C55.0469 19.492 55.4708 20.9821 56.3422 22.277L58.0015 21.1605ZM56.0469 18.8438H60.75V16.8438H56.0469V18.8438ZM59.75 17.8438C59.75 19.3045 60.1949 20.566 61.2332 21.4349C62.2375 22.2752 63.635 22.6094 65.25 22.6094V20.6094C63.865 20.6094 63.0125 20.3159 62.5168 19.9011C62.0551 19.5147 61.75 18.8934 61.75 17.8438H59.75ZM65.25 22.6094C66.4835 22.6094 67.5862 22.3636 68.4419 21.7503L67.2769 20.1247C66.8826 20.4073 66.2456 20.6094 65.25 20.6094V22.6094ZM68.4507 21.7439C69.3469 21.0868 69.7969 20.1442 69.7969 19.0312H67.7969C67.7969 19.5433 67.6219 19.8716 67.268 20.1311L68.4507 21.7439ZM95.2031 25V26H96.2031V25H95.2031ZM90.5156 25H89.5156V26H90.5156V25ZM90.5156 15.25H91.5156V14.25H90.5156V15.25ZM81.375 15.25V14.25H80.375V15.25H81.375ZM81.375 25V26H82.375V25H81.375ZM76.6875 25H75.6875V26H76.6875V25ZM76.6875 2.25V1.25H75.6875V2.25H76.6875ZM81.375 2.25H82.375V1.25H81.375V2.25ZM81.375 11.4688H80.375V12.4688H81.375V11.4688ZM90.5156 11.4688V12.4688H91.5156V11.4688H90.5156ZM90.5156 2.25V1.25H89.5156V2.25H90.5156ZM95.2031 2.25H96.2031V1.25H95.2031V2.25ZM95.2031 24H90.5156V26H95.2031V24ZM91.5156 25V15.25H89.5156V25H91.5156ZM90.5156 14.25H81.375V16.25H90.5156V14.25ZM80.375 15.25V25H82.375V15.25H80.375ZM81.375 24H76.6875V26H81.375V24ZM77.6875 25V2.25H75.6875V25H77.6875ZM76.6875 3.25H81.375V1.25H76.6875V3.25ZM80.375 2.25V11.4688H82.375V2.25H80.375ZM81.375 12.4688H90.5156V10.4688H81.375V12.4688ZM91.5156 11.4688V2.25H89.5156V11.4688H91.5156ZM90.5156 3.25H95.2031V1.25H90.5156V3.25ZM94.2031 2.25V25H96.2031V2.25H94.2031Z" fill="black"/>
</svg>
