<svg width="264" height="32" viewBox="0 0 264 32" fill="none" xmlns="http://www.w3.org/2000/svg">
<g opacity="0.79">
<path d="M13.25 13.5156C13.25 12.651 12.9115 11.974 12.2344 11.4844C11.5573 10.9844 10.6615 10.7344 9.54688 10.7344C8.54688 10.7344 7.71354 10.9844 7.04688 11.4844C6.39062 11.974 6.0625 12.6146 6.0625 13.4062H1.375C1.375 12.1771 1.71875 11.0729 2.40625 10.0938C3.10417 9.10417 4.08854 8.33333 5.35938 7.78125C6.64062 7.22917 8.03646 6.95312 9.54688 6.95312C12.1719 6.95312 14.2292 7.51562 15.7188 8.64062C17.2083 9.76562 17.9531 11.3594 17.9531 13.4219C17.9531 14.4323 17.6458 15.3698 17.0312 16.2344C16.4271 17.099 15.5625 17.7917 14.4375 18.3125C15.6875 18.75 16.6458 19.4167 17.3125 20.3125C17.9792 21.1979 18.3125 22.3021 18.3125 23.625C18.3125 25.6667 17.5104 27.2917 15.9062 28.5C14.3125 29.6979 12.1927 30.2969 9.54688 30.2969C7.89062 30.2969 6.40104 30.0156 5.07812 29.4531C3.75521 28.8802 2.75 28.1042 2.0625 27.125C1.38542 26.1354 1.04688 24.9896 1.04688 23.6875H5.76562C5.76562 24.5 6.11979 25.1823 6.82812 25.7344C7.53646 26.276 8.44271 26.5469 9.54688 26.5469C10.7969 26.5469 11.7812 26.2656 12.5 25.7031C13.2292 25.1406 13.5938 24.4271 13.5938 23.5625C13.5938 22.375 13.2708 21.526 12.625 21.0156C11.9792 20.4948 11.0365 20.2344 9.79688 20.2344H7V16.5625H9.89062C12.1302 16.5312 13.25 15.5156 13.25 13.5156ZM40.4688 19.1406C40.4688 21.3802 40.0729 23.3438 39.2812 25.0312C38.4896 26.7188 37.3542 28.0208 35.875 28.9375C34.4062 29.8542 32.7188 30.3125 30.8125 30.3125C28.9271 30.3125 27.2448 29.8594 25.7656 28.9531C24.2865 28.0469 23.1406 26.7552 22.3281 25.0781C21.5156 23.3906 21.1042 21.4531 21.0938 19.2656V18.1406C21.0938 15.901 21.4948 13.9323 22.2969 12.2344C23.1094 10.526 24.25 9.21875 25.7188 8.3125C27.1979 7.39583 28.8854 6.9375 30.7812 6.9375C32.6771 6.9375 34.3594 7.39583 35.8281 8.3125C37.3073 9.21875 38.4479 10.526 39.25 12.2344C40.0625 13.9323 40.4688 15.8958 40.4688 18.125V19.1406ZM35.7188 18.1094C35.7188 15.724 35.2917 13.9115 34.4375 12.6719C33.5833 11.4323 32.3646 10.8125 30.7812 10.8125C29.2083 10.8125 27.9948 11.4271 27.1406 12.6562C26.2865 13.875 25.8542 15.6667 25.8438 18.0312V19.1406C25.8438 21.4635 26.2708 23.2656 27.125 24.5469C27.9792 25.8281 29.2083 26.4688 30.8125 26.4688C32.3854 26.4688 33.5938 25.8542 34.4375 24.625C35.2812 23.3854 35.7083 21.5833 35.7188 19.2188V18.1094ZM61.875 7.25V30H57.1719V11.0469H51.1094L50.7344 19.0781C50.5781 21.7865 50.2344 23.9219 49.7031 25.4844C49.1719 27.0365 48.3958 28.1771 47.375 28.9062C46.3542 29.625 44.9583 29.9896 43.1875 30H41.9688V26.2344L42.75 26.1562C43.9271 26 44.7656 25.3229 45.2656 24.125C45.776 22.9167 46.099 20.7708 46.2344 17.6875L46.625 7.25H61.875ZM84.6562 19.1406C84.6562 21.3802 84.2604 23.3438 83.4688 25.0312C82.6771 26.7188 81.5417 28.0208 80.0625 28.9375C78.5938 29.8542 76.9062 30.3125 75 30.3125C73.1146 30.3125 71.4323 29.8594 69.9531 28.9531C68.474 28.0469 67.3281 26.7552 66.5156 25.0781C65.7031 23.3906 65.2917 21.4531 65.2812 19.2656V18.1406C65.2812 15.901 65.6823 13.9323 66.4844 12.2344C67.2969 10.526 68.4375 9.21875 69.9062 8.3125C71.3854 7.39583 73.0729 6.9375 74.9688 6.9375C76.8646 6.9375 78.5469 7.39583 80.0156 8.3125C81.4948 9.21875 82.6354 10.526 83.4375 12.2344C84.25 13.9323 84.6562 15.8958 84.6562 18.125V19.1406ZM79.9062 18.1094C79.9062 15.724 79.4792 13.9115 78.625 12.6719C77.7708 11.4323 76.5521 10.8125 74.9688 10.8125C73.3958 10.8125 72.1823 11.4271 71.3281 12.6562C70.474 13.875 70.0417 15.6667 70.0312 18.0312V19.1406C70.0312 21.4635 70.4583 23.2656 71.3125 24.5469C72.1667 25.8281 73.3958 26.4688 75 26.4688C76.5729 26.4688 77.7812 25.8542 78.625 24.625C79.4688 23.3854 79.8958 21.5833 79.9062 19.2188V18.1094ZM103.844 11.0469H96.875V30H92.1875V11.0469H85.3125V7.25H103.844V11.0469ZM120.172 7.25H124.875V30H120.172V14.8906L111.062 30H106.375V7.25H111.062V22.3906L120.172 7.25ZM142.578 7.25H147.281V30H142.578V14.8906L133.469 30H128.781V7.25H133.469V22.3906L142.578 7.25ZM143.484 1.26562C143.484 2.65104 142.984 3.77083 141.984 4.625C140.995 5.47917 139.693 5.90625 138.078 5.90625C136.464 5.90625 135.156 5.48438 134.156 4.64062C133.167 3.79688 132.672 2.67188 132.672 1.26562H135.875C135.875 1.92188 136.068 2.43229 136.453 2.79688C136.849 3.15104 137.391 3.32812 138.078 3.32812C138.755 3.32812 139.286 3.15104 139.672 2.79688C140.057 2.43229 140.25 1.92188 140.25 1.26562H143.484ZM166.734 20.7031H164.031V30H159.344V7.25H164.031V16.3594H166.172L171.734 7.25H177.453L170.438 18.0156L178.188 30H172.594L166.734 20.7031ZM188.531 18L192.672 7.25H197.734L189.781 26.0156L189.141 27.25C187.964 29.3021 186.161 30.3281 183.734 30.3281L182.094 30.2656L182.047 26.5C182.297 26.5417 182.703 26.5625 183.266 26.5625C183.922 26.5625 184.448 26.4479 184.844 26.2188C185.25 25.9896 185.589 25.5677 185.859 24.9531L186.438 23.4688L178.453 7.25H183.5L188.531 18ZM215.062 11.0469H204.906V15.4531H208.562C211.24 15.4531 213.359 16.1042 214.922 17.4062C216.495 18.6979 217.281 20.4427 217.281 22.6406C217.281 24.849 216.5 26.625 214.938 27.9688C213.385 29.3021 211.318 29.9792 208.734 30H200.172V7.25H215.062V11.0469ZM204.906 19.2344V26.2344H208.641C209.839 26.2344 210.792 25.9062 211.5 25.25C212.219 24.5938 212.578 23.7135 212.578 22.6094C212.578 21.5781 212.234 20.7656 211.547 20.1719C210.87 19.5677 209.938 19.2552 208.75 19.2344H204.906ZM238.969 19.1406C238.969 21.3802 238.573 23.3438 237.781 25.0312C236.99 26.7188 235.854 28.0208 234.375 28.9375C232.906 29.8542 231.219 30.3125 229.312 30.3125C227.427 30.3125 225.745 29.8594 224.266 28.9531C222.786 28.0469 221.641 26.7552 220.828 25.0781C220.016 23.3906 219.604 21.4531 219.594 19.2656V18.1406C219.594 15.901 219.995 13.9323 220.797 12.2344C221.609 10.526 222.75 9.21875 224.219 8.3125C225.698 7.39583 227.385 6.9375 229.281 6.9375C231.177 6.9375 232.859 7.39583 234.328 8.3125C235.807 9.21875 236.948 10.526 237.75 12.2344C238.562 13.9323 238.969 15.8958 238.969 18.125V19.1406ZM234.219 18.1094C234.219 15.724 233.792 13.9115 232.938 12.6719C232.083 11.4323 230.865 10.8125 229.281 10.8125C227.708 10.8125 226.495 11.4271 225.641 12.6562C224.786 13.875 224.354 15.6667 224.344 18.0312V19.1406C224.344 21.4635 224.771 23.2656 225.625 24.5469C226.479 25.8281 227.708 26.4688 229.312 26.4688C230.885 26.4688 232.094 25.8542 232.938 24.625C233.781 23.3854 234.208 21.5833 234.219 19.2188V18.1094ZM249.797 20.7031H247.094V30H242.406V7.25H247.094V16.3594H249.234L254.797 7.25H260.516L253.5 18.0156L261.25 30H255.656L249.797 20.7031Z" fill="#E9FB1D"/>
<path d="M12.2344 11.4844L11.6403 12.2888L11.6484 12.2947L12.2344 11.4844ZM7.04688 11.4844L7.64484 12.2859L7.64687 12.2844L7.04688 11.4844ZM6.0625 13.4062V14.4062H7.0625V13.4062H6.0625ZM1.375 13.4062H0.375V14.4062H1.375V13.4062ZM2.40625 10.0938L1.58904 9.5174L1.58784 9.51912L2.40625 10.0938ZM5.35938 7.78125L4.96365 6.86287L4.96092 6.86406L5.35938 7.78125ZM17.0312 16.2344L16.2162 15.655L16.2116 15.6616L17.0312 16.2344ZM14.4375 18.3125L14.0174 17.405L11.7788 18.4414L14.1071 19.2564L14.4375 18.3125ZM17.3125 20.3125L16.5103 20.9095L16.5136 20.914L17.3125 20.3125ZM15.9062 28.5L16.5071 29.2994L16.5079 29.2988L15.9062 28.5ZM5.07812 29.4531L4.68071 30.3708L4.68683 30.3734L5.07812 29.4531ZM2.0625 27.125L1.23713 27.6897L1.24409 27.6996L2.0625 27.125ZM1.04688 23.6875V22.6875H0.046875V23.6875H1.04688ZM5.76562 23.6875H6.76562V22.6875H5.76562V23.6875ZM6.82812 25.7344L6.21336 26.5231L6.22067 26.5287L6.82812 25.7344ZM12.5 25.7031L11.8892 24.9113L11.8837 24.9156L12.5 25.7031ZM12.625 21.0156L11.9972 21.7941L12.0049 21.8002L12.625 21.0156ZM7 20.2344H6V21.2344H7V20.2344ZM7 16.5625V15.5625H6V16.5625H7ZM9.89062 16.5625V17.5626L9.90458 17.5624L9.89062 16.5625ZM14.25 13.5156C14.25 12.3433 13.7679 11.3592 12.8203 10.674L11.6484 12.2947C12.055 12.5887 12.25 12.9588 12.25 13.5156H14.25ZM12.8284 10.6799C11.9311 10.0173 10.8064 9.73438 9.54688 9.73438V11.7344C10.5165 11.7344 11.1835 11.9514 11.6403 12.2888L12.8284 10.6799ZM9.54688 9.73438C8.37501 9.73438 7.31915 10.0302 6.44688 10.6844L7.64687 12.2844C8.10794 11.9386 8.71874 11.7344 9.54688 11.7344V9.73438ZM6.44891 10.6829C5.54983 11.3536 5.0625 12.2865 5.0625 13.4062H7.0625C7.0625 12.9427 7.23142 12.5943 7.64484 12.2859L6.44891 10.6829ZM6.0625 12.4062H1.375V14.4062H6.0625V12.4062ZM2.375 13.4062C2.375 12.3767 2.65875 11.4744 3.22466 10.6684L1.58784 9.51912C0.778754 10.6714 0.375 11.9774 0.375 13.4062H2.375ZM3.22346 10.6701C3.80114 9.85099 4.63044 9.18821 5.75783 8.69844L4.96092 6.86406C3.54665 7.47846 2.40719 8.35734 1.58904 9.5174L3.22346 10.6701ZM5.7551 8.69962C6.90134 8.20571 8.16118 7.95312 9.54688 7.95312V5.95312C7.91173 5.95312 6.37991 6.25262 4.96365 6.86288L5.7551 8.69962ZM9.54688 7.95312C12.0405 7.95312 13.8581 8.48855 15.1161 9.43861L16.3214 7.84264C14.6002 6.5427 12.3032 5.95312 9.54688 5.95312V7.95312ZM15.1161 9.43861C16.3267 10.3529 16.9531 11.6351 16.9531 13.4219H18.9531C18.9531 11.0837 18.09 9.17834 16.3214 7.84264L15.1161 9.43861ZM16.9531 13.4219C16.9531 14.2139 16.7168 14.9507 16.2162 15.655L17.8463 16.8138C18.5748 15.7889 18.9531 14.6507 18.9531 13.4219H16.9531ZM16.2116 15.6616C15.7252 16.3576 15.0103 16.9453 14.0174 17.405L14.8576 19.22C16.1147 18.638 17.129 17.8403 17.8509 16.8072L16.2116 15.6616ZM14.1071 19.2564C15.2045 19.6404 15.9835 20.2017 16.5103 20.9095L18.1147 19.7155C17.3081 18.6316 16.1705 17.8596 14.7679 17.3686L14.1071 19.2564ZM16.5136 20.914C17.0259 21.5944 17.3125 22.4758 17.3125 23.625H19.3125C19.3125 22.1284 18.9324 20.8014 18.1114 19.711L16.5136 20.914ZM17.3125 23.625C17.3125 25.3588 16.6531 26.6855 15.3046 27.7012L16.5079 29.2988C18.3678 27.8978 19.3125 25.9746 19.3125 23.625H17.3125ZM15.3054 27.7006C13.9339 28.7315 12.0465 29.2969 9.54688 29.2969V31.2969C12.3389 31.2969 14.6911 30.6643 16.5071 29.2994L15.3054 27.7006ZM9.54688 29.2969C8.0048 29.2969 6.65119 29.0353 5.46942 28.5329L4.68683 30.3734C6.15089 30.9959 7.77645 31.2969 9.54688 31.2969V29.2969ZM5.47553 28.5355C4.28703 28.0208 3.4425 27.3502 2.88091 26.5504L1.24409 27.6996C2.0575 28.8581 3.22339 29.7396 4.68072 30.3708L5.47553 28.5355ZM2.88781 26.5603C2.33436 25.7514 2.04688 24.8062 2.04688 23.6875H0.046875C0.046875 25.173 0.436472 26.5194 1.23719 27.6897L2.88781 26.5603ZM1.04688 24.6875H5.76562V22.6875H1.04688V24.6875ZM4.76562 23.6875C4.76562 24.8436 5.29124 25.8044 6.21338 26.5231L7.44287 24.9456C6.94834 24.5602 6.76562 24.1564 6.76562 23.6875H4.76562ZM6.22067 26.5287C7.14155 27.2329 8.27653 27.5469 9.54688 27.5469V25.5469C8.60888 25.5469 7.93137 25.3192 7.43558 24.94L6.22067 26.5287ZM9.54688 27.5469C10.9386 27.5469 12.1666 27.2339 13.1163 26.4906L11.8837 24.9156C11.3959 25.2974 10.6551 25.5469 9.54688 25.5469V27.5469ZM13.1108 26.4949C14.0669 25.7574 14.5938 24.7597 14.5938 23.5625H12.5938C12.5938 24.0944 12.3915 24.5239 11.8892 24.9113L13.1108 26.4949ZM14.5938 23.5625C14.5938 22.2103 14.2233 21.0042 13.2451 20.2311L12.0049 21.8002C12.3184 22.0479 12.5938 22.5397 12.5938 23.5625H14.5938ZM13.2528 20.2372C12.3599 19.5172 11.1565 19.2344 9.79688 19.2344V21.2344C10.9164 21.2344 11.5984 21.4724 11.9972 21.794L13.2528 20.2372ZM9.79688 19.2344H7V21.2344H9.79688V19.2344ZM8 20.2344V16.5625H6V20.2344H8ZM7 17.5625H9.89062V15.5625H7V17.5625ZM9.90458 17.5624C11.1535 17.545 12.2719 17.2528 13.082 16.5181C13.9127 15.7646 14.25 14.7019 14.25 13.5156H12.25C12.25 14.3294 12.0274 14.7744 11.7383 15.0366C11.4286 15.3176 10.8673 15.5488 9.87667 15.5626L9.90458 17.5624ZM35.875 28.9375L35.3482 28.0875L35.3455 28.0892L35.875 28.9375ZM22.3281 25.0781L21.4271 25.5119L21.4282 25.5141L22.3281 25.0781ZM21.0938 19.2656H20.0937L20.0938 19.2704L21.0938 19.2656ZM22.2969 12.2344L21.3938 11.8049L21.3927 11.8072L22.2969 12.2344ZM25.7188 8.3125L26.2439 9.16354L26.2455 9.16251L25.7188 8.3125ZM35.8281 8.3125L35.2986 9.16086L35.3057 9.16519L35.8281 8.3125ZM39.25 12.2344L38.3448 12.6594L38.348 12.666L39.25 12.2344ZM27.1406 12.6562L27.9595 13.2302L27.9618 13.2269L27.1406 12.6562ZM25.8438 18.0312L24.8438 18.0268V18.0312H25.8438ZM34.4375 24.625L35.262 25.1909L35.2642 25.1877L34.4375 24.625ZM35.7188 19.2188L36.7188 19.2232V19.2188H35.7188ZM39.4688 19.1406C39.4688 21.2625 39.0939 23.076 38.3759 24.6065L40.1866 25.456C41.0519 23.6115 41.4688 21.4979 41.4688 19.1406H39.4688ZM38.3759 24.6065C37.6604 26.1316 36.6508 27.2803 35.3482 28.0875L36.4018 29.7875C38.0575 28.7614 39.3187 27.3059 40.1866 25.456L38.3759 24.6065ZM35.3455 28.0892C34.0514 28.8968 32.5511 29.3125 30.8125 29.3125V31.3125C32.8864 31.3125 34.7611 30.8115 36.4045 29.7858L35.3455 28.0892ZM30.8125 29.3125C29.0949 29.3125 27.5964 28.902 26.288 28.1004L25.2432 29.8058C26.8932 30.8167 28.7593 31.3125 30.8125 31.3125V29.3125ZM26.288 28.1004C24.9842 27.3016 23.9636 26.1604 23.2281 24.6421L21.4282 25.5141C22.3176 27.35 23.5887 28.7922 25.2432 29.8058L26.288 28.1004ZM23.2291 24.6443C22.4911 23.1114 22.1036 21.3246 22.0937 19.2609L20.0938 19.2704C20.1048 21.5817 20.5402 23.6699 21.4271 25.5119L23.2291 24.6443ZM22.0938 19.2656V18.1406H20.0938V19.2656H22.0938ZM22.0938 18.1406C22.0938 16.0206 22.4731 14.2026 23.2011 12.6615L21.3927 11.8072C20.5165 13.662 20.0938 15.7814 20.0938 18.1406H22.0938ZM23.1999 12.6639C23.938 11.1122 24.9547 9.95897 26.2439 9.16354L25.1936 7.46146C23.5453 8.47853 22.2808 9.93993 21.3938 11.8049L23.1999 12.6639ZM26.2455 9.16251C27.5524 8.3526 29.0543 7.9375 30.7812 7.9375V5.9375C28.7166 5.9375 26.8434 6.43907 25.192 7.46249L26.2455 9.16251ZM30.7812 7.9375C32.5083 7.9375 34.0037 8.35261 35.2987 9.16084L36.3576 7.46416C34.7151 6.43906 32.8459 5.9375 30.7812 5.9375V7.9375ZM35.3057 9.16519C36.6036 9.96036 37.6182 11.1117 38.3448 12.6594L40.1552 11.8094C39.2777 9.94037 38.011 8.47714 36.3505 7.45981L35.3057 9.16519ZM38.348 12.666C39.0852 14.2066 39.4688 16.018 39.4688 18.125H41.4688C41.4688 15.7737 41.0398 13.658 40.152 11.8027L38.348 12.666ZM39.4688 18.125V19.1406H41.4688V18.125H39.4688ZM36.7188 18.1094C36.7188 15.6304 36.2794 13.5825 35.2609 12.1045L33.6141 13.2393C34.3039 14.2404 34.7188 15.8175 34.7188 18.1094H36.7188ZM35.2609 12.1045C34.209 10.5778 32.6733 9.8125 30.7812 9.8125V11.8125C32.0559 11.8125 32.9577 12.2868 33.6141 13.2393L35.2609 12.1045ZM30.7812 9.8125C28.9006 9.8125 27.3715 10.5717 26.3194 12.0856L27.9618 13.2269C28.6181 12.2825 29.5161 11.8125 30.7812 11.8125V9.8125ZM26.3217 12.0823C25.3001 13.5401 24.8546 15.5689 24.8438 18.0268L26.8437 18.0357C26.8537 15.7644 27.2729 14.2099 27.9595 13.2302L26.3217 12.0823ZM24.8438 18.0312V19.1406H26.8438V18.0312H24.8438ZM24.8438 19.1406C24.8438 21.567 25.2867 23.5922 26.2929 25.1016L27.9571 23.9922C27.2549 22.939 26.8438 21.3601 26.8438 19.1406H24.8438ZM26.2929 25.1016C27.3417 26.6747 28.8907 27.4688 30.8125 27.4688V25.4688C29.526 25.4688 28.6167 24.9816 27.9571 23.9922L26.2929 25.1016ZM30.8125 27.4688C32.6934 27.4688 34.2198 26.7091 35.2619 25.1909L33.6131 24.0591C32.9677 24.9993 32.0774 25.4688 30.8125 25.4688V27.4688ZM35.2642 25.1877C36.2676 23.7135 36.7079 21.6811 36.7187 19.2232L34.7188 19.2143C34.7088 21.4855 34.2949 23.0573 33.6108 24.0623L35.2642 25.1877ZM36.7188 19.2188V18.1094H34.7188V19.2188H36.7188ZM61.875 7.25H62.875V6.25H61.875V7.25ZM61.875 30V31H62.875V30H61.875ZM57.1719 30H56.1719V31H57.1719V30ZM57.1719 11.0469H58.1719V10.0469H57.1719V11.0469ZM51.1094 11.0469V10.0469H50.155L50.1105 11.0002L51.1094 11.0469ZM50.7344 19.0781L51.7328 19.1357L51.7333 19.1248L50.7344 19.0781ZM49.7031 25.4844L50.6492 25.8082L50.6499 25.8063L49.7031 25.4844ZM47.375 28.9062L47.9507 29.7239L47.9562 29.72L47.375 28.9062ZM43.1875 30V31L43.1934 31L43.1875 30ZM41.9688 30H40.9688V31H41.9688V30ZM41.9688 26.2344L41.8692 25.2393L40.9688 25.3294V26.2344H41.9688ZM42.75 26.1562L42.8495 27.1513L42.8656 27.1497L42.8816 27.1476L42.75 26.1562ZM45.2656 24.125L44.3444 23.7359L44.3428 23.7398L45.2656 24.125ZM46.2344 17.6875L47.2334 17.7314L47.2337 17.7249L46.2344 17.6875ZM46.625 7.25V6.25H45.6617L45.6257 7.2126L46.625 7.25ZM60.875 7.25V30H62.875V7.25H60.875ZM61.875 29H57.1719V31H61.875V29ZM58.1719 30V11.0469H56.1719V30H58.1719ZM57.1719 10.0469H51.1094V12.0469H57.1719V10.0469ZM50.1105 11.0002L49.7355 19.0315L51.7333 19.1248L52.1083 11.0935L50.1105 11.0002ZM49.736 19.0205C49.5821 21.6887 49.246 23.7223 48.7564 25.1625L50.6499 25.8063C51.2228 24.1214 51.5741 21.8842 51.7327 19.1357L49.736 19.0205ZM48.757 25.1605C48.2726 26.5756 47.5994 27.5171 46.7938 28.0925L47.9562 29.72C49.1923 28.8371 50.0711 27.4973 50.6492 25.8082L48.757 25.1605ZM46.7993 28.0886C46.0019 28.65 44.8306 28.9903 43.1816 29L43.1934 31C45.0861 30.9888 46.7065 30.6 47.9507 29.7239L46.7993 28.0886ZM43.1875 29H41.9688V31H43.1875V29ZM42.9688 30V26.2344H40.9688V30H42.9688ZM42.0683 27.2294L42.8495 27.1513L42.6505 25.1612L41.8692 25.2393L42.0683 27.2294ZM42.8816 27.1476C44.4496 26.9394 45.5669 25.9994 46.1885 24.5102L44.3428 23.7398C43.9644 24.6464 43.4045 25.0606 42.6184 25.1649L42.8816 27.1476ZM46.1868 24.5141C46.774 23.1241 47.0979 20.8158 47.2334 17.7314L45.2353 17.6436C45.1 20.7258 44.7781 22.7092 44.3444 23.7359L46.1868 24.5141ZM47.2337 17.7249L47.6243 7.2874L45.6257 7.2126L45.2351 17.6501L47.2337 17.7249ZM46.625 8.25H61.875V6.25H46.625V8.25ZM80.0625 28.9375L79.5357 28.0875L79.533 28.0892L80.0625 28.9375ZM66.5156 25.0781L65.6146 25.5119L65.6157 25.5141L66.5156 25.0781ZM65.2812 19.2656H64.2812L64.2813 19.2704L65.2812 19.2656ZM66.4844 12.2344L65.5813 11.8049L65.5802 11.8072L66.4844 12.2344ZM69.9062 8.3125L70.4314 9.16354L70.433 9.16251L69.9062 8.3125ZM80.0156 8.3125L79.4862 9.16086L79.4932 9.16519L80.0156 8.3125ZM83.4375 12.2344L82.5323 12.6594L82.5355 12.666L83.4375 12.2344ZM71.3281 12.6562L72.147 13.2302L72.1493 13.2269L71.3281 12.6562ZM70.0312 18.0312L69.0312 18.0268V18.0312H70.0312ZM78.625 24.625L79.4495 25.1909L79.4517 25.1877L78.625 24.625ZM79.9062 19.2188L80.9062 19.2232V19.2188H79.9062ZM83.6562 19.1406C83.6562 21.2625 83.2814 23.076 82.5634 24.6065L84.3741 25.456C85.2394 23.6115 85.6562 21.4979 85.6562 19.1406H83.6562ZM82.5634 24.6065C81.8479 26.1316 80.8383 27.2803 79.5357 28.0875L80.5893 29.7875C82.245 28.7614 83.5062 27.3059 84.3741 25.456L82.5634 24.6065ZM79.533 28.0892C78.2389 28.8968 76.7386 29.3125 75 29.3125V31.3125C77.0739 31.3125 78.9486 30.8115 80.592 29.7858L79.533 28.0892ZM75 29.3125C73.2824 29.3125 71.7839 28.902 70.4755 28.1004L69.4307 29.8058C71.0807 30.8167 72.9468 31.3125 75 31.3125V29.3125ZM70.4755 28.1004C69.1717 27.3016 68.1511 26.1604 67.4156 24.6421L65.6157 25.5141C66.5051 27.35 67.7762 28.7922 69.4307 29.8058L70.4755 28.1004ZM67.4166 24.6443C66.6786 23.1114 66.2911 21.3246 66.2812 19.2609L64.2813 19.2704C64.2923 21.5817 64.7277 23.6699 65.6146 25.5119L67.4166 24.6443ZM66.2812 19.2656V18.1406H64.2812V19.2656H66.2812ZM66.2812 18.1406C66.2812 16.0206 66.6606 14.2026 67.3886 12.6615L65.5802 11.8072C64.704 13.662 64.2812 15.7814 64.2812 18.1406H66.2812ZM67.3874 12.6639C68.1255 11.1122 69.1422 9.95897 70.4314 9.16354L69.3811 7.46146C67.7328 8.47853 66.4683 9.93993 65.5813 11.8049L67.3874 12.6639ZM70.433 9.16251C71.7399 8.3526 73.2418 7.9375 74.9688 7.9375V5.9375C72.9041 5.9375 71.0309 6.43907 69.3795 7.46249L70.433 9.16251ZM74.9688 7.9375C76.6958 7.9375 78.1912 8.35261 79.4862 9.16084L80.5451 7.46416C78.9026 6.43906 77.0334 5.9375 74.9688 5.9375V7.9375ZM79.4932 9.16519C80.7911 9.96036 81.8057 11.1117 82.5323 12.6594L84.3427 11.8094C83.4652 9.94037 82.1985 8.47714 80.538 7.45981L79.4932 9.16519ZM82.5355 12.666C83.2727 14.2066 83.6562 16.018 83.6562 18.125H85.6562C85.6562 15.7737 85.2273 13.658 84.3395 11.8027L82.5355 12.666ZM83.6562 18.125V19.1406H85.6562V18.125H83.6562ZM80.9062 18.1094C80.9062 15.6304 80.4669 13.5825 79.4484 12.1045L77.8016 13.2393C78.4914 14.2404 78.9062 15.8175 78.9062 18.1094H80.9062ZM79.4484 12.1045C78.3965 10.5778 76.8608 9.8125 74.9688 9.8125V11.8125C76.2434 11.8125 77.1452 12.2868 77.8016 13.2393L79.4484 12.1045ZM74.9688 9.8125C73.0881 9.8125 71.559 10.5717 70.5069 12.0856L72.1493 13.2269C72.8056 12.2825 73.7036 11.8125 74.9688 11.8125V9.8125ZM70.5092 12.0823C69.4876 13.5401 69.0421 15.5689 69.0313 18.0268L71.0312 18.0357C71.0412 15.7644 71.4604 14.2099 72.147 13.2302L70.5092 12.0823ZM69.0312 18.0312V19.1406H71.0312V18.0312H69.0312ZM69.0312 19.1406C69.0312 21.567 69.4742 23.5922 70.4805 25.1016L72.1445 23.9922C71.4424 22.939 71.0312 21.3601 71.0312 19.1406H69.0312ZM70.4805 25.1016C71.5292 26.6747 73.0782 27.4688 75 27.4688V25.4688C73.7135 25.4688 72.8042 24.9816 72.1445 23.9922L70.4805 25.1016ZM75 27.4688C76.8809 27.4688 78.4073 26.7091 79.4494 25.1909L77.8006 24.0591C77.1552 24.9993 76.2649 25.4688 75 25.4688V27.4688ZM79.4517 25.1877C80.4551 23.7135 80.8954 21.6811 80.9062 19.2232L78.9063 19.2143C78.8963 21.4855 78.4824 23.0573 77.7983 24.0623L79.4517 25.1877ZM80.9062 19.2188V18.1094H78.9062V19.2188H80.9062ZM103.844 11.0469V12.0469H104.844V11.0469H103.844ZM96.875 11.0469V10.0469H95.875V11.0469H96.875ZM96.875 30V31H97.875V30H96.875ZM92.1875 30H91.1875V31H92.1875V30ZM92.1875 11.0469H93.1875V10.0469H92.1875V11.0469ZM85.3125 11.0469H84.3125V12.0469H85.3125V11.0469ZM85.3125 7.25V6.25H84.3125V7.25H85.3125ZM103.844 7.25H104.844V6.25H103.844V7.25ZM103.844 10.0469H96.875V12.0469H103.844V10.0469ZM95.875 11.0469V30H97.875V11.0469H95.875ZM96.875 29H92.1875V31H96.875V29ZM93.1875 30V11.0469H91.1875V30H93.1875ZM92.1875 10.0469H85.3125V12.0469H92.1875V10.0469ZM86.3125 11.0469V7.25H84.3125V11.0469H86.3125ZM85.3125 8.25H103.844V6.25H85.3125V8.25ZM102.844 7.25V11.0469H104.844V7.25H102.844ZM120.172 7.25V6.25H119.606L119.315 6.73446L120.172 7.25ZM124.875 7.25H125.875V6.25H124.875V7.25ZM124.875 30V31H125.875V30H124.875ZM120.172 30H119.172V31H120.172V30ZM120.172 14.8906H121.172V11.2952L119.315 14.3743L120.172 14.8906ZM111.062 30V31H111.627L111.919 30.5163L111.062 30ZM106.375 30H105.375V31H106.375V30ZM106.375 7.25V6.25H105.375V7.25H106.375ZM111.062 7.25H112.062V6.25H111.062V7.25ZM111.062 22.3906H110.062V25.9924L111.919 22.9062L111.062 22.3906ZM120.172 8.25H124.875V6.25H120.172V8.25ZM123.875 7.25V30H125.875V7.25H123.875ZM124.875 29H120.172V31H124.875V29ZM121.172 30V14.8906H119.172V30H121.172ZM119.315 14.3743L110.206 29.4837L111.919 30.5163L121.028 15.4069L119.315 14.3743ZM111.062 29H106.375V31H111.062V29ZM107.375 30V7.25H105.375V30H107.375ZM106.375 8.25H111.062V6.25H106.375V8.25ZM110.062 7.25V22.3906H112.062V7.25H110.062ZM111.919 22.9062L121.029 7.76554L119.315 6.73446L110.206 21.8751L111.919 22.9062ZM142.578 7.25V6.25H142.013L141.721 6.73446L142.578 7.25ZM147.281 7.25H148.281V6.25H147.281V7.25ZM147.281 30V31H148.281V30H147.281ZM142.578 30H141.578V31H142.578V30ZM142.578 14.8906H143.578V11.2952L141.722 14.3743L142.578 14.8906ZM133.469 30V31H134.034L134.325 30.5163L133.469 30ZM128.781 30H127.781V31H128.781V30ZM128.781 7.25V6.25H127.781V7.25H128.781ZM133.469 7.25H134.469V6.25H133.469V7.25ZM133.469 22.3906H132.469V25.9924L134.326 22.9062L133.469 22.3906ZM143.484 1.26562H144.484V0.265625H143.484V1.26562ZM141.984 4.625L141.335 3.86462L141.331 3.868L141.984 4.625ZM134.156 4.64062L133.507 5.40159L133.511 5.40492L134.156 4.64062ZM132.672 1.26562V0.265625H131.672V1.26562H132.672ZM135.875 1.26562H136.875V0.265625H135.875V1.26562ZM136.453 2.79688L135.766 3.52334L135.776 3.53287L135.786 3.54212L136.453 2.79688ZM139.672 2.79688L140.348 3.5332L140.354 3.52831L140.359 3.52334L139.672 2.79688ZM140.25 1.26562V0.265625H139.25V1.26562H140.25ZM142.578 8.25H147.281V6.25H142.578V8.25ZM146.281 7.25V30H148.281V7.25H146.281ZM147.281 29H142.578V31H147.281V29ZM143.578 30V14.8906H141.578V30H143.578ZM141.722 14.3743L132.612 29.4837L134.325 30.5163L143.435 15.4069L141.722 14.3743ZM133.469 29H128.781V31H133.469V29ZM129.781 30V7.25H127.781V30H129.781ZM128.781 8.25H133.469V6.25H128.781V8.25ZM132.469 7.25V22.3906H134.469V7.25H132.469ZM134.326 22.9062L143.435 7.76554L141.721 6.73446L132.612 21.8751L134.326 22.9062ZM142.484 1.26562C142.484 2.37636 142.099 3.21174 141.335 3.86463L142.634 5.38537C143.87 4.32993 144.484 2.92573 144.484 1.26562H142.484ZM141.331 3.868C140.563 4.53099 139.511 4.90625 138.078 4.90625V6.90625C139.874 6.90625 141.427 6.42735 142.638 5.382L141.331 3.868ZM138.078 4.90625C136.642 4.90625 135.581 4.53468 134.801 3.87633L133.511 5.40492C134.731 6.43407 136.285 6.90625 138.078 6.90625V4.90625ZM134.805 3.87967C134.058 3.24277 133.672 2.40604 133.672 1.26562H131.672C131.672 2.93771 132.275 4.35098 133.507 5.40158L134.805 3.87967ZM132.672 2.26562H135.875V0.265625H132.672V2.26562ZM134.875 1.26562C134.875 2.12708 135.135 2.92683 135.766 3.52334L137.14 2.07041C137 1.93775 136.875 1.71667 136.875 1.26562H134.875ZM135.786 3.54212C136.414 4.10395 137.219 4.32812 138.078 4.32812V2.32812C137.562 2.32812 137.284 2.19813 137.12 2.05163L135.786 3.54212ZM138.078 4.32812C138.93 4.32812 139.729 4.10209 140.348 3.5332L138.995 2.06055C138.843 2.2 138.58 2.32812 138.078 2.32812V4.32812ZM140.359 3.52334C140.99 2.92683 141.25 2.12708 141.25 1.26562H139.25C139.25 1.71667 139.125 1.93775 138.985 2.07041L140.359 3.52334ZM140.25 2.26562H143.484V0.265625H140.25V2.26562ZM166.734 20.7031L167.58 20.1699L167.286 19.7031H166.734V20.7031ZM164.031 20.7031V19.7031H163.031V20.7031H164.031ZM164.031 30V31H165.031V30H164.031ZM159.344 30H158.344V31H159.344V30ZM159.344 7.25V6.25H158.344V7.25H159.344ZM164.031 7.25H165.031V6.25H164.031V7.25ZM164.031 16.3594H163.031V17.3594H164.031V16.3594ZM166.172 16.3594V17.3594H166.733L167.025 16.8805L166.172 16.3594ZM171.734 7.25V6.25H171.173L170.881 6.72885L171.734 7.25ZM177.453 7.25L178.291 7.79597L179.298 6.25H177.453V7.25ZM170.438 18.0156L169.6 17.4697L169.245 18.0135L169.598 18.5586L170.438 18.0156ZM178.188 30V31H180.025L179.027 29.457L178.188 30ZM172.594 30L171.748 30.5332L172.042 31H172.594V30ZM166.734 19.7031H164.031V21.7031H166.734V19.7031ZM163.031 20.7031V30H165.031V20.7031H163.031ZM164.031 29H159.344V31H164.031V29ZM160.344 30V7.25H158.344V30H160.344ZM159.344 8.25H164.031V6.25H159.344V8.25ZM163.031 7.25V16.3594H165.031V7.25H163.031ZM164.031 17.3594H166.172V15.3594H164.031V17.3594ZM167.025 16.8805L172.588 7.77115L170.881 6.72885L165.318 15.8382L167.025 16.8805ZM171.734 8.25H177.453V6.25H171.734V8.25ZM176.615 6.70403L169.6 17.4697L171.275 18.5616L178.291 7.79597L176.615 6.70403ZM169.598 18.5586L177.348 30.543L179.027 29.457L171.277 17.4726L169.598 18.5586ZM178.188 29H172.594V31H178.188V29ZM173.44 29.4668L167.58 20.1699L165.888 21.2363L171.748 30.5332L173.44 29.4668ZM188.531 18L187.626 18.4239L188.621 20.5501L189.464 18.3594L188.531 18ZM192.672 7.25V6.25H191.985L191.739 6.89057L192.672 7.25ZM197.734 7.25L198.655 7.64021L199.244 6.25H197.734V7.25ZM189.781 26.0156L190.669 26.4763L190.687 26.4417L190.702 26.4058L189.781 26.0156ZM189.141 27.25L190.008 27.7476L190.019 27.7293L190.028 27.7106L189.141 27.25ZM183.734 30.3281L183.696 31.3274L183.715 31.3281H183.734V30.3281ZM182.094 30.2656L181.094 30.2781L181.106 31.2287L182.056 31.2649L182.094 30.2656ZM182.047 26.5L182.211 25.5136L181.032 25.3171L181.047 26.5124L182.047 26.5ZM184.844 26.2188L184.352 25.3477L184.343 25.3533L184.844 26.2188ZM185.859 24.9531L186.774 25.3564L186.783 25.3364L186.791 25.316L185.859 24.9531ZM186.438 23.4688L187.369 23.8317L187.529 23.4218L187.335 23.0271L186.438 23.4688ZM178.453 7.25V6.25H176.846L177.556 7.69167L178.453 7.25ZM183.5 7.25L184.406 6.82611L184.136 6.25H183.5V7.25ZM189.464 18.3594L193.605 7.60943L191.739 6.89057L187.598 17.6406L189.464 18.3594ZM192.672 8.25H197.734V6.25H192.672V8.25ZM196.814 6.85979L188.861 25.6254L190.702 26.4058L198.655 7.64021L196.814 6.85979ZM188.894 25.555L188.253 26.7894L190.028 27.7106L190.669 26.4763L188.894 25.555ZM188.273 26.7524C187.28 28.4839 185.815 29.3281 183.734 29.3281V31.3281C186.508 31.3281 188.647 30.1203 190.008 27.7476L188.273 26.7524ZM183.772 29.3288L182.132 29.2663L182.056 31.2649L183.696 31.3274L183.772 29.3288ZM183.094 30.2532L183.047 26.4876L181.047 26.5124L181.094 30.2781L183.094 30.2532ZM181.882 27.4864C182.22 27.5427 182.698 27.5625 183.266 27.5625V25.5625C182.708 25.5625 182.373 25.5406 182.211 25.5136L181.882 27.4864ZM183.266 27.5625C184.026 27.5625 184.745 27.4317 185.345 27.0842L184.343 25.3533C184.151 25.4642 183.818 25.5625 183.266 25.5625V27.5625ZM185.335 27.0897C185.996 26.7169 186.454 26.0846 186.774 25.3564L184.944 24.5499C184.724 25.0508 184.504 25.2623 184.352 25.3478L185.335 27.0897ZM186.791 25.316L187.369 23.8317L185.506 23.1058L184.928 24.5902L186.791 25.316ZM187.335 23.0271L179.35 6.80833L177.556 7.69167L185.54 23.9104L187.335 23.0271ZM178.453 8.25H183.5V6.25H178.453V8.25ZM182.594 7.67389L187.626 18.4239L189.437 17.5761L184.406 6.82611L182.594 7.67389ZM215.062 11.0469V12.0469H216.062V11.0469H215.062ZM204.906 11.0469V10.0469H203.906V11.0469H204.906ZM204.906 15.4531H203.906V16.4531H204.906V15.4531ZM214.922 17.4062L214.282 18.1745L214.287 18.1791L214.922 17.4062ZM214.938 27.9688L215.589 28.7273L215.59 28.7269L214.938 27.9688ZM208.734 30V31L208.742 31L208.734 30ZM200.172 30H199.172V31H200.172V30ZM200.172 7.25V6.25H199.172V7.25H200.172ZM215.062 7.25H216.062V6.25H215.062V7.25ZM204.906 19.2344V18.2344H203.906V19.2344H204.906ZM204.906 26.2344H203.906V27.2344H204.906V26.2344ZM211.5 25.25L210.826 24.5115L210.82 24.5164L211.5 25.25ZM211.547 20.1719L210.881 20.918L210.887 20.9234L210.893 20.9287L211.547 20.1719ZM208.75 19.2344L208.768 18.2345L208.759 18.2344H208.75V19.2344ZM215.062 10.0469H204.906V12.0469H215.062V10.0469ZM203.906 11.0469V15.4531H205.906V11.0469H203.906ZM204.906 16.4531H208.562V14.4531H204.906V16.4531ZM208.562 16.4531C211.08 16.4531 212.949 17.0639 214.282 18.1745L215.562 16.638C213.77 15.1444 211.399 14.4531 208.562 14.4531V16.4531ZM214.287 18.1791C215.609 19.2641 216.281 20.7147 216.281 22.6406H218.281C218.281 20.1707 217.381 18.1317 215.557 16.6334L214.287 18.1791ZM216.281 22.6406C216.281 24.5813 215.61 26.0717 214.285 27.2106L215.59 28.7269C217.39 27.1783 218.281 25.1166 218.281 22.6406H216.281ZM214.286 27.2102C212.956 28.3526 211.137 28.9806 208.726 29L208.742 31C211.498 30.9777 213.815 30.2516 215.589 28.7273L214.286 27.2102ZM208.734 29H200.172V31H208.734V29ZM201.172 30V7.25H199.172V30H201.172ZM200.172 8.25H215.062V6.25H200.172V8.25ZM214.062 7.25V11.0469H216.062V7.25H214.062ZM203.906 19.2344V26.2344H205.906V19.2344H203.906ZM204.906 27.2344H208.641V25.2344H204.906V27.2344ZM208.641 27.2344C210.027 27.2344 211.245 26.8498 212.18 25.9836L210.82 24.5164C210.339 24.9627 209.65 25.2344 208.641 25.2344V27.2344ZM212.174 25.9885C213.129 25.1163 213.578 23.9528 213.578 22.6094H211.578C211.578 23.4743 211.308 24.0712 210.826 24.5115L212.174 25.9885ZM213.578 22.6094C213.578 21.3313 213.139 20.2256 212.201 19.4151L210.893 20.9287C211.33 21.3056 211.578 21.8249 211.578 22.6094H213.578ZM212.213 19.4257C211.308 18.6183 210.119 18.2582 208.768 18.2345L208.732 20.2342C209.756 20.2522 210.432 20.5172 210.881 20.918L212.213 19.4257ZM208.75 18.2344H204.906V20.2344H208.75V18.2344ZM234.375 28.9375L233.848 28.0875L233.846 28.0892L234.375 28.9375ZM220.828 25.0781L219.927 25.5119L219.928 25.5141L220.828 25.0781ZM219.594 19.2656H218.594L218.594 19.2704L219.594 19.2656ZM220.797 12.2344L219.894 11.8049L219.893 11.8072L220.797 12.2344ZM224.219 8.3125L224.744 9.16354L224.746 9.16251L224.219 8.3125ZM234.328 8.3125L233.799 9.16086L233.806 9.16519L234.328 8.3125ZM237.75 12.2344L236.845 12.6594L236.848 12.666L237.75 12.2344ZM225.641 12.6562L226.46 13.2302L226.462 13.2269L225.641 12.6562ZM224.344 18.0312L223.344 18.0268V18.0312H224.344ZM232.938 24.625L233.762 25.1909L233.764 25.1877L232.938 24.625ZM234.219 19.2188L235.219 19.2232V19.2188H234.219ZM237.969 19.1406C237.969 21.2625 237.594 23.076 236.876 24.6065L238.687 25.456C239.552 23.6115 239.969 21.4979 239.969 19.1406H237.969ZM236.876 24.6065C236.16 26.1316 235.151 27.2803 233.848 28.0875L234.902 29.7875C236.558 28.7614 237.819 27.3059 238.687 25.456L236.876 24.6065ZM233.846 28.0892C232.551 28.8968 231.051 29.3125 229.312 29.3125V31.3125C231.386 31.3125 233.261 30.8115 234.904 29.7858L233.846 28.0892ZM229.312 29.3125C227.595 29.3125 226.096 28.902 224.788 28.1004L223.743 29.8058C225.393 30.8167 227.259 31.3125 229.312 31.3125V29.3125ZM224.788 28.1004C223.484 27.3016 222.464 26.1604 221.728 24.6421L219.928 25.5141C220.818 27.35 222.089 28.7922 223.743 29.8058L224.788 28.1004ZM221.729 24.6443C220.991 23.1114 220.604 21.3246 220.594 19.2609L218.594 19.2704C218.605 21.5817 219.04 23.6699 219.927 25.5119L221.729 24.6443ZM220.594 19.2656V18.1406H218.594V19.2656H220.594ZM220.594 18.1406C220.594 16.0206 220.973 14.2026 221.701 12.6615L219.893 11.8072C219.017 13.662 218.594 15.7814 218.594 18.1406H220.594ZM221.7 12.6639C222.438 11.1122 223.455 9.95897 224.744 9.16354L223.694 7.46146C222.045 8.47853 220.781 9.93993 219.894 11.8049L221.7 12.6639ZM224.746 9.16251C226.052 8.3526 227.554 7.9375 229.281 7.9375V5.9375C227.217 5.9375 225.343 6.43907 223.692 7.46249L224.746 9.16251ZM229.281 7.9375C231.008 7.9375 232.504 8.35261 233.799 9.16084L234.858 7.46416C233.215 6.43906 231.346 5.9375 229.281 5.9375V7.9375ZM233.806 9.16519C235.104 9.96036 236.118 11.1117 236.845 12.6594L238.655 11.8094C237.778 9.94037 236.511 8.47714 234.851 7.45981L233.806 9.16519ZM236.848 12.666C237.585 14.2066 237.969 16.018 237.969 18.125H239.969C239.969 15.7737 239.54 13.658 238.652 11.8027L236.848 12.666ZM237.969 18.125V19.1406H239.969V18.125H237.969ZM235.219 18.1094C235.219 15.6304 234.779 13.5825 233.761 12.1045L232.114 13.2393C232.804 14.2404 233.219 15.8175 233.219 18.1094H235.219ZM233.761 12.1045C232.709 10.5778 231.173 9.8125 229.281 9.8125V11.8125C230.556 11.8125 231.458 12.2868 232.114 13.2393L233.761 12.1045ZM229.281 9.8125C227.401 9.8125 225.871 10.5717 224.819 12.0856L226.462 13.2269C227.118 12.2825 228.016 11.8125 229.281 11.8125V9.8125ZM224.822 12.0823C223.8 13.5401 223.355 15.5689 223.344 18.0268L225.344 18.0357C225.354 15.7644 225.773 14.2099 226.46 13.2302L224.822 12.0823ZM223.344 18.0312V19.1406H225.344V18.0312H223.344ZM223.344 19.1406C223.344 21.567 223.787 23.5922 224.793 25.1016L226.457 23.9922C225.755 22.939 225.344 21.3601 225.344 19.1406H223.344ZM224.793 25.1016C225.842 26.6747 227.391 27.4688 229.312 27.4688V25.4688C228.026 25.4688 227.117 24.9816 226.457 23.9922L224.793 25.1016ZM229.312 27.4688C231.193 27.4688 232.72 26.7091 233.762 25.1909L232.113 24.0591C231.468 24.9993 230.577 25.4688 229.312 25.4688V27.4688ZM233.764 25.1877C234.768 23.7135 235.208 21.6811 235.219 19.2232L233.219 19.2143C233.209 21.4855 232.795 23.0573 232.111 24.0623L233.764 25.1877ZM235.219 19.2188V18.1094H233.219V19.2188H235.219ZM249.797 20.7031L250.643 20.1699L250.349 19.7031H249.797V20.7031ZM247.094 20.7031V19.7031H246.094V20.7031H247.094ZM247.094 30V31H248.094V30H247.094ZM242.406 30H241.406V31H242.406V30ZM242.406 7.25V6.25H241.406V7.25H242.406ZM247.094 7.25H248.094V6.25H247.094V7.25ZM247.094 16.3594H246.094V17.3594H247.094V16.3594ZM249.234 16.3594V17.3594H249.795L250.088 16.8805L249.234 16.3594ZM254.797 7.25V6.25H254.236L253.943 6.72885L254.797 7.25ZM260.516 7.25L261.353 7.79597L262.361 6.25H260.516V7.25ZM253.5 18.0156L252.662 17.4697L252.308 18.0135L252.66 18.5586L253.5 18.0156ZM261.25 30V31H263.088L262.09 29.457L261.25 30ZM255.656 30L254.81 30.5332L255.104 31H255.656V30ZM249.797 19.7031H247.094V21.7031H249.797V19.7031ZM246.094 20.7031V30H248.094V20.7031H246.094ZM247.094 29H242.406V31H247.094V29ZM243.406 30V7.25H241.406V30H243.406ZM242.406 8.25H247.094V6.25H242.406V8.25ZM246.094 7.25V16.3594H248.094V7.25H246.094ZM247.094 17.3594H249.234V15.3594H247.094V17.3594ZM250.088 16.8805L255.65 7.77115L253.943 6.72885L248.381 15.8382L250.088 16.8805ZM254.797 8.25H260.516V6.25H254.797V8.25ZM259.678 6.70403L252.662 17.4697L254.338 18.5616L261.353 7.79597L259.678 6.70403ZM252.66 18.5586L260.41 30.543L262.09 29.457L254.34 17.4726L252.66 18.5586ZM261.25 29H255.656V31H261.25V29ZM256.502 29.4668L250.643 20.1699L248.951 21.2363L254.81 30.5332L256.502 29.4668Z" fill="black"/>
</g>
</svg>
