<svg width="176" height="27" viewBox="0 0 176 27" fill="none" xmlns="http://www.w3.org/2000/svg">
<path d="M8.45312 15.7031H5.75V25H1.0625V2.25H5.75V11.3594H7.89062L13.4531 2.25H19.1719L12.1562 13.0156L19.9062 25H14.3125L8.45312 15.7031ZM39.9062 14.1406C39.9062 16.3802 39.5104 18.3438 38.7188 20.0312C37.9271 21.7188 36.7917 23.0208 35.3125 23.9375C33.8438 24.8542 32.1562 25.3125 30.25 25.3125C28.3646 25.3125 26.6823 24.8594 25.2031 23.9531C23.724 23.0469 22.5781 21.7552 21.7656 20.0781C20.9531 18.3906 20.5417 16.4531 20.5312 14.2656V13.1406C20.5312 10.901 20.9323 8.93229 21.7344 7.23438C22.5469 5.52604 23.6875 4.21875 25.1562 3.3125C26.6354 2.39583 28.3229 1.9375 30.2188 1.9375C32.1146 1.9375 33.7969 2.39583 35.2656 3.3125C36.7448 4.21875 37.8854 5.52604 38.6875 7.23438C39.5 8.93229 39.9062 10.8958 39.9062 13.125V14.1406ZM35.1562 13.1094C35.1562 10.724 34.7292 8.91146 33.875 7.67188C33.0208 6.43229 31.8021 5.8125 30.2188 5.8125C28.6458 5.8125 27.4323 6.42708 26.5781 7.65625C25.724 8.875 25.2917 10.6667 25.2812 13.0312V14.1406C25.2812 16.4635 25.7083 18.2656 26.5625 19.5469C27.4167 20.8281 28.6458 21.4688 30.25 21.4688C31.8229 21.4688 33.0312 20.8542 33.875 19.625C34.7188 18.3854 35.1458 16.5833 35.1562 14.2188V13.1094ZM61.1719 17.4219C60.9948 19.8698 60.0885 21.7969 58.4531 23.2031C56.8281 24.6094 54.6823 25.3125 52.0156 25.3125C49.099 25.3125 46.8021 24.3333 45.125 22.375C43.4583 20.4062 42.625 17.7083 42.625 14.2812V12.8906C42.625 10.7031 43.0104 8.77604 43.7812 7.10938C44.5521 5.44271 45.651 4.16667 47.0781 3.28125C48.5156 2.38542 50.1823 1.9375 52.0781 1.9375C54.7031 1.9375 56.8177 2.64062 58.4219 4.04688C60.026 5.45312 60.9531 7.42708 61.2031 9.96875H56.5156C56.401 8.5 55.9896 7.4375 55.2812 6.78125C54.5833 6.11458 53.5156 5.78125 52.0781 5.78125C50.5156 5.78125 49.3438 6.34375 48.5625 7.46875C47.7917 8.58333 47.3958 10.3177 47.375 12.6719V14.3906C47.375 16.849 47.7448 18.6458 48.4844 19.7812C49.2344 20.9167 50.4115 21.4844 52.0156 21.4844C53.4635 21.4844 54.5417 21.1562 55.25 20.5C55.9688 19.8333 56.3802 18.8073 56.4844 17.4219H61.1719ZM70.375 2.25L76.2188 18.75L82.0312 2.25H88.1875V25H83.4844V18.7812L83.9531 8.04688L77.8125 25H74.5938L68.4688 8.0625L68.9375 18.7812V25H64.25V2.25H70.375ZM110.969 14.1406C110.969 16.3802 110.573 18.3438 109.781 20.0312C108.99 21.7188 107.854 23.0208 106.375 23.9375C104.906 24.8542 103.219 25.3125 101.312 25.3125C99.4271 25.3125 97.7448 24.8594 96.2656 23.9531C94.7865 23.0469 93.6406 21.7552 92.8281 20.0781C92.0156 18.3906 91.6042 16.4531 91.5938 14.2656V13.1406C91.5938 10.901 91.9948 8.93229 92.7969 7.23438C93.6094 5.52604 94.75 4.21875 96.2188 3.3125C97.6979 2.39583 99.3854 1.9375 101.281 1.9375C103.177 1.9375 104.859 2.39583 106.328 3.3125C107.807 4.21875 108.948 5.52604 109.75 7.23438C110.562 8.93229 110.969 10.8958 110.969 13.125V14.1406ZM106.219 13.1094C106.219 10.724 105.792 8.91146 104.938 7.67188C104.083 6.43229 102.865 5.8125 101.281 5.8125C99.7083 5.8125 98.4948 6.42708 97.6406 7.65625C96.7865 8.875 96.3542 10.6667 96.3438 13.0312V14.1406C96.3438 16.4635 96.7708 18.2656 97.625 19.5469C98.4792 20.8281 99.7083 21.4688 101.312 21.4688C102.885 21.4688 104.094 20.8542 104.938 19.625C105.781 18.3854 106.208 16.5833 106.219 14.2188V13.1094ZM132.375 2.25V25H127.672V6.04688H121.609L121.234 14.0781C121.078 16.7865 120.734 18.9219 120.203 20.4844C119.672 22.0365 118.896 23.1771 117.875 23.9062C116.854 24.625 115.458 24.9896 113.688 25H112.469V21.2344L113.25 21.1562C114.427 21 115.266 20.3229 115.766 19.125C116.276 17.9167 116.599 15.7708 116.734 12.6875L117.125 2.25H132.375ZM155.156 14.1406C155.156 16.3802 154.76 18.3438 153.969 20.0312C153.177 21.7188 152.042 23.0208 150.562 23.9375C149.094 24.8542 147.406 25.3125 145.5 25.3125C143.615 25.3125 141.932 24.8594 140.453 23.9531C138.974 23.0469 137.828 21.7552 137.016 20.0781C136.203 18.3906 135.792 16.4531 135.781 14.2656V13.1406C135.781 10.901 136.182 8.93229 136.984 7.23438C137.797 5.52604 138.938 4.21875 140.406 3.3125C141.885 2.39583 143.573 1.9375 145.469 1.9375C147.365 1.9375 149.047 2.39583 150.516 3.3125C151.995 4.21875 153.135 5.52604 153.938 7.23438C154.75 8.93229 155.156 10.8958 155.156 13.125V14.1406ZM150.406 13.1094C150.406 10.724 149.979 8.91146 149.125 7.67188C148.271 6.43229 147.052 5.8125 145.469 5.8125C143.896 5.8125 142.682 6.42708 141.828 7.65625C140.974 8.875 140.542 10.6667 140.531 13.0312V14.1406C140.531 16.4635 140.958 18.2656 141.812 19.5469C142.667 20.8281 143.896 21.4688 145.5 21.4688C147.073 21.4688 148.281 20.8542 149.125 19.625C149.969 18.3854 150.396 16.5833 150.406 14.2188V13.1094ZM174.344 6.04688H167.375V25H162.688V6.04688H155.812V2.25H174.344V6.04688Z" fill="#E9FB1D"/>
<path d="M8.45312 15.7031L9.29912 15.1699L9.00491 14.7031H8.45312V15.7031ZM5.75 15.7031V14.7031H4.75V15.7031H5.75ZM5.75 25V26H6.75V25H5.75ZM1.0625 25H0.0625V26H1.0625V25ZM1.0625 2.25V1.25H0.0625V2.25H1.0625ZM5.75 2.25H6.75V1.25H5.75V2.25ZM5.75 11.3594H4.75V12.3594H5.75V11.3594ZM7.89062 11.3594V12.3594H8.45169L8.74409 11.8805L7.89062 11.3594ZM13.4531 2.25V1.25H12.8921L12.5997 1.72885L13.4531 2.25ZM19.1719 2.25L20.0097 2.79597L21.0171 1.25H19.1719V2.25ZM12.1562 13.0156L11.3184 12.4697L10.964 13.0135L11.3165 13.5586L12.1562 13.0156ZM19.9062 25V26H21.7438L20.746 24.457L19.9062 25ZM14.3125 25L13.4665 25.5332L13.7607 26H14.3125V25ZM8.45312 14.7031H5.75V16.7031H8.45312V14.7031ZM4.75 15.7031V25H6.75V15.7031H4.75ZM5.75 24H1.0625V26H5.75V24ZM2.0625 25V2.25H0.0625V25H2.0625ZM1.0625 3.25H5.75V1.25H1.0625V3.25ZM4.75 2.25V11.3594H6.75V2.25H4.75ZM5.75 12.3594H7.89062V10.3594H5.75V12.3594ZM8.74409 11.8805L14.3066 2.77115L12.5997 1.72885L7.03716 10.8382L8.74409 11.8805ZM13.4531 3.25H19.1719V1.25H13.4531V3.25ZM18.3341 1.70403L11.3184 12.4697L12.9941 13.5616L20.0097 2.79597L18.3341 1.70403ZM11.3165 13.5586L19.0665 25.543L20.746 24.457L12.996 12.4726L11.3165 13.5586ZM19.9062 24H14.3125V26H19.9062V24ZM15.1585 24.4668L9.29912 15.1699L7.60713 16.2363L13.4665 25.5332L15.1585 24.4668ZM35.3125 23.9375L34.7857 23.0875L34.783 23.0892L35.3125 23.9375ZM21.7656 20.0781L20.8646 20.5119L20.8657 20.5141L21.7656 20.0781ZM20.5312 14.2656H19.5312L19.5313 14.2704L20.5312 14.2656ZM21.7344 7.23438L20.8313 6.80487L20.8302 6.80724L21.7344 7.23438ZM25.1562 3.3125L25.6814 4.16354L25.683 4.16251L25.1562 3.3125ZM35.2656 3.3125L34.7361 4.16086L34.7432 4.16519L35.2656 3.3125ZM38.6875 7.23438L37.7823 7.65939L37.7855 7.66603L38.6875 7.23438ZM26.5781 7.65625L27.397 8.23019L27.3993 8.22691L26.5781 7.65625ZM25.2812 13.0312L24.2812 13.0268V13.0312H25.2812ZM33.875 19.625L34.6995 20.1909L34.7017 20.1877L33.875 19.625ZM35.1562 14.2188L36.1562 14.2232V14.2188H35.1562ZM38.9062 14.1406C38.9062 16.2625 38.5314 18.076 37.8134 19.6065L39.6241 20.456C40.4894 18.6115 40.9062 16.4979 40.9062 14.1406H38.9062ZM37.8134 19.6065C37.0979 21.1316 36.0883 22.2803 34.7857 23.0875L35.8393 24.7875C37.495 23.7614 38.7562 22.3059 39.6241 20.456L37.8134 19.6065ZM34.783 23.0892C33.4889 23.8968 31.9886 24.3125 30.25 24.3125V26.3125C32.3239 26.3125 34.1986 25.8115 35.842 24.7858L34.783 23.0892ZM30.25 24.3125C28.5324 24.3125 27.0339 23.902 25.7255 23.1004L24.6807 24.8058C26.3307 25.8167 28.1968 26.3125 30.25 26.3125V24.3125ZM25.7255 23.1004C24.4217 22.3016 23.4011 21.1604 22.6656 19.6421L20.8657 20.5141C21.7551 22.35 23.0262 23.7922 24.6807 24.8058L25.7255 23.1004ZM22.6666 19.6443C21.9286 18.1114 21.5411 16.3246 21.5312 14.2609L19.5313 14.2704C19.5423 16.5817 19.9777 18.6699 20.8646 20.5119L22.6666 19.6443ZM21.5312 14.2656V13.1406H19.5312V14.2656H21.5312ZM21.5312 13.1406C21.5312 11.0206 21.9106 9.20259 22.6386 7.66151L20.8302 6.80724C19.954 8.66199 19.5312 10.7814 19.5312 13.1406H21.5312ZM22.6374 7.66388C23.3755 6.11215 24.3922 4.95897 25.6814 4.16354L24.6311 2.46146C22.9828 3.47853 21.7183 4.93993 20.8313 6.80487L22.6374 7.66388ZM25.683 4.16251C26.9899 3.3526 28.4918 2.9375 30.2188 2.9375V0.9375C28.1541 0.9375 26.2809 1.43907 24.6295 2.46249L25.683 4.16251ZM30.2188 2.9375C31.9458 2.9375 33.4412 3.35261 34.7362 4.16084L35.7951 2.46416C34.1526 1.43906 32.2834 0.9375 30.2188 0.9375V2.9375ZM34.7432 4.16519C36.0411 4.96036 37.0557 6.11171 37.7823 7.65937L39.5927 6.80938C38.7152 4.94037 37.4485 3.47714 35.788 2.45981L34.7432 4.16519ZM37.7855 7.66603C38.5227 9.20657 38.9062 11.018 38.9062 13.125H40.9062C40.9062 10.7737 40.4773 8.65801 39.5895 6.80272L37.7855 7.66603ZM38.9062 13.125V14.1406H40.9062V13.125H38.9062ZM36.1562 13.1094C36.1562 10.6304 35.7169 8.58254 34.6984 7.10447L33.0516 8.23928C33.7414 9.24038 34.1562 10.8175 34.1562 13.1094H36.1562ZM34.6984 7.10447C33.6465 5.5778 32.1108 4.8125 30.2188 4.8125V6.8125C31.4934 6.8125 32.3952 7.28678 33.0516 8.23928L34.6984 7.10447ZM30.2188 4.8125C28.3381 4.8125 26.809 5.57165 25.7569 7.08559L27.3993 8.22691C28.0556 7.28251 28.9536 6.8125 30.2188 6.8125V4.8125ZM25.7592 7.08232C24.7376 8.54006 24.2921 10.5689 24.2813 13.0268L26.2812 13.0357C26.2912 10.7644 26.7104 9.20994 27.397 8.23018L25.7592 7.08232ZM24.2812 13.0312V14.1406H26.2812V13.0312H24.2812ZM24.2812 14.1406C24.2812 16.567 24.7242 18.5922 25.7304 20.1016L27.3946 18.9922C26.6924 17.939 26.2812 16.3601 26.2812 14.1406H24.2812ZM25.7304 20.1016C26.7792 21.6747 28.3282 22.4688 30.25 22.4688V20.4688C28.9635 20.4688 28.0542 19.9816 27.3946 18.9922L25.7304 20.1016ZM30.25 22.4688C32.1309 22.4688 33.6573 21.7091 34.6994 20.1909L33.0506 19.0591C32.4052 19.9993 31.5149 20.4688 30.25 20.4688V22.4688ZM34.7017 20.1877C35.7051 18.7135 36.1454 16.6811 36.1562 14.2232L34.1563 14.2143C34.1463 16.4855 33.7324 18.0573 33.0483 19.0623L34.7017 20.1877ZM36.1562 14.2188V13.1094H34.1562V14.2188H36.1562ZM61.1719 17.4219L62.1693 17.494L62.2468 16.4219H61.1719V17.4219ZM58.4531 23.2031L57.8011 22.4449L57.7987 22.447L58.4531 23.2031ZM45.125 22.375L44.3618 23.0211L44.3655 23.0255L45.125 22.375ZM43.7812 7.10938L42.8736 6.6896L43.7812 7.10938ZM47.0781 3.28125L47.6053 4.13099L47.607 4.12994L47.0781 3.28125ZM58.4219 4.04688L57.7627 4.79885L58.4219 4.04688ZM61.2031 9.96875V10.9688H62.3063L62.1983 9.87086L61.2031 9.96875ZM56.5156 9.96875L55.5187 10.0465L55.5906 10.9688H56.5156V9.96875ZM55.2812 6.78125L54.5905 7.50436L54.596 7.50963L54.6016 7.51481L55.2812 6.78125ZM48.5625 7.46875L47.7411 6.89835L47.74 6.89994L48.5625 7.46875ZM47.375 12.6719L46.375 12.663V12.6719H47.375ZM48.4844 19.7812L47.6464 20.3271L47.65 20.3324L48.4844 19.7812ZM55.25 20.5L55.9296 21.2336L55.93 21.2332L55.25 20.5ZM56.4844 17.4219V16.4219H55.5567L55.4872 17.3469L56.4844 17.4219ZM60.1745 17.3497C60.0137 19.572 59.2063 21.2367 57.8011 22.4449L59.1051 23.9614C60.9708 22.3571 61.9759 20.1676 62.1693 17.494L60.1745 17.3497ZM57.7987 22.447C56.3962 23.6607 54.502 24.3125 52.0156 24.3125V26.3125C54.8626 26.3125 57.26 25.5581 59.1075 23.9593L57.7987 22.447ZM52.0156 24.3125C49.3482 24.3125 47.3454 23.4304 45.8845 21.7245L44.3655 23.0255C46.2587 25.2362 48.8497 26.3125 52.0156 26.3125V24.3125ZM45.8882 21.7289C44.4185 19.9927 43.625 17.5502 43.625 14.2812H41.625C41.625 17.8664 42.4982 20.8198 44.3618 23.0211L45.8882 21.7289ZM43.625 14.2812V12.8906H41.625V14.2812H43.625ZM43.625 12.8906C43.625 10.8207 43.9894 9.04149 44.6889 7.52915L42.8736 6.6896C42.0314 8.5106 41.625 10.5855 41.625 12.8906H43.625ZM44.6889 7.52915C45.3856 6.02264 46.3598 4.90376 47.6053 4.13099L46.5509 2.43151C44.9423 3.42958 43.7185 4.86277 42.8736 6.6896L44.6889 7.52915ZM47.607 4.12994C48.8674 3.34447 50.3463 2.9375 52.0781 2.9375V0.9375C50.0183 0.9375 48.1638 1.42636 46.5492 2.43256L47.607 4.12994ZM52.0781 2.9375C54.5188 2.9375 56.3804 3.58708 57.7627 4.79885L59.0811 3.2949C57.2551 1.69417 54.8875 0.9375 52.0781 0.9375V2.9375ZM57.7627 4.79885C59.1393 6.00564 59.9776 7.72489 60.2079 10.0666L62.1983 9.87086C61.9287 7.12927 60.9128 4.90061 59.0811 3.2949L57.7627 4.79885ZM61.2031 8.96875H56.5156V10.9688H61.2031V8.96875ZM57.5126 9.89097C57.3884 8.29935 56.93 6.9456 55.9609 6.04769L54.6016 7.51481C55.0491 7.9294 55.4137 8.70065 55.5187 10.0465L57.5126 9.89097ZM55.972 6.05814C55.0144 5.14345 53.649 4.78125 52.0781 4.78125V6.78125C53.3823 6.78125 54.1522 7.08571 54.5905 7.50436L55.972 6.05814ZM52.0781 4.78125C50.2414 4.78125 48.7378 5.46315 47.7411 6.89835L49.3839 8.03915C49.9497 7.22435 50.7898 6.78125 52.0781 6.78125V4.78125ZM47.74 6.89994C46.7987 8.2611 46.3965 10.2391 46.375 12.663L48.375 12.6807C48.3952 10.3963 48.7847 8.90557 49.385 8.03756L47.74 6.89994ZM46.375 12.6719V14.3906H48.375V12.6719H46.375ZM46.375 14.3906C46.375 16.9065 46.7455 18.9439 47.6465 20.327L49.3223 19.2355C48.7441 18.3478 48.375 16.7914 48.375 14.3906H46.375ZM47.65 20.3324C48.6204 21.8015 50.1451 22.4844 52.0156 22.4844V20.4844C50.6778 20.4844 49.8484 20.0318 49.3188 19.2301L47.65 20.3324ZM52.0156 22.4844C53.5925 22.4844 54.9626 22.1295 55.9296 21.2336L54.5704 19.7664C54.1208 20.183 53.3345 20.4844 52.0156 20.4844V22.4844ZM55.93 21.2332C56.8986 20.3348 57.3664 19.029 57.4816 17.4969L55.4872 17.3469C55.3941 18.5856 55.0389 19.3319 54.57 19.7668L55.93 21.2332ZM56.4844 18.4219H61.1719V16.4219H56.4844V18.4219ZM70.375 2.25L71.3176 1.91615L71.0817 1.25H70.375V2.25ZM76.2188 18.75L75.2761 19.0838L76.2213 21.7525L77.1619 19.0823L76.2188 18.75ZM82.0312 2.25V1.25H81.3233L81.0881 1.91774L82.0312 2.25ZM88.1875 2.25H89.1875V1.25H88.1875V2.25ZM88.1875 25V26H89.1875V25H88.1875ZM83.4844 25H82.4844V26H83.4844V25ZM83.4844 18.7812L82.4853 18.7376L82.4844 18.7594V18.7812H83.4844ZM83.9531 8.04688L84.9522 8.0905L83.0129 7.70632L83.9531 8.04688ZM77.8125 25V26H78.5139L78.7527 25.3406L77.8125 25ZM74.5938 25L73.6534 25.3401L73.892 26H74.5938V25ZM68.4688 8.0625L69.4091 7.72243L67.4697 8.10619L68.4688 8.0625ZM68.9375 18.7812H69.9375V18.7594L69.9365 18.7376L68.9375 18.7812ZM68.9375 25V26H69.9375V25H68.9375ZM64.25 25H63.25V26H64.25V25ZM64.25 2.25V1.25H63.25V2.25H64.25ZM69.4324 2.58385L75.2761 19.0838L77.1614 18.4162L71.3176 1.91615L69.4324 2.58385ZM77.1619 19.0823L82.9744 2.58226L81.0881 1.91774L75.2756 18.4177L77.1619 19.0823ZM82.0312 3.25H88.1875V1.25H82.0312V3.25ZM87.1875 2.25V25H89.1875V2.25H87.1875ZM88.1875 24H83.4844V26H88.1875V24ZM84.4844 25V18.7812H82.4844V25H84.4844ZM84.4834 18.8249L84.9522 8.0905L82.9541 8.00325L82.4853 18.7376L84.4834 18.8249ZM83.0129 7.70632L76.8723 24.6594L78.7527 25.3406L84.8933 8.38743L83.0129 7.70632ZM77.8125 24H74.5938V26H77.8125V24ZM75.5341 24.6599L69.4091 7.72243L67.5284 8.40257L73.6534 25.3401L75.5341 24.6599ZM67.4697 8.10619L67.9385 18.8249L69.9365 18.7376L69.4678 8.01881L67.4697 8.10619ZM67.9375 18.7812V25H69.9375V18.7812H67.9375ZM68.9375 24H64.25V26H68.9375V24ZM65.25 25V2.25H63.25V25H65.25ZM64.25 3.25H70.375V1.25H64.25V3.25ZM106.375 23.9375L105.848 23.0875L105.846 23.0892L106.375 23.9375ZM92.8281 20.0781L91.9271 20.5119L91.9282 20.5141L92.8281 20.0781ZM91.5938 14.2656H90.5937L90.5938 14.2704L91.5938 14.2656ZM92.7969 7.23438L91.8938 6.80487L91.8927 6.80724L92.7969 7.23438ZM96.2188 3.3125L96.7439 4.16354L96.7455 4.16251L96.2188 3.3125ZM106.328 3.3125L105.799 4.16086L105.806 4.16519L106.328 3.3125ZM109.75 7.23438L108.845 7.65939L108.848 7.66603L109.75 7.23438ZM97.6406 7.65625L98.4595 8.23019L98.4618 8.22691L97.6406 7.65625ZM96.3438 13.0312L95.3438 13.0268V13.0312H96.3438ZM104.938 19.625L105.762 20.1909L105.764 20.1877L104.938 19.625ZM106.219 14.2188L107.219 14.2232V14.2188H106.219ZM109.969 14.1406C109.969 16.2625 109.594 18.076 108.876 19.6065L110.687 20.456C111.552 18.6115 111.969 16.4979 111.969 14.1406H109.969ZM108.876 19.6065C108.16 21.1316 107.151 22.2803 105.848 23.0875L106.902 24.7875C108.558 23.7614 109.819 22.3059 110.687 20.456L108.876 19.6065ZM105.846 23.0892C104.551 23.8968 103.051 24.3125 101.312 24.3125V26.3125C103.386 26.3125 105.261 25.8115 106.904 24.7858L105.846 23.0892ZM101.312 24.3125C99.5949 24.3125 98.0964 23.902 96.788 23.1004L95.7432 24.8058C97.3932 25.8167 99.2593 26.3125 101.312 26.3125V24.3125ZM96.788 23.1004C95.4842 22.3016 94.4636 21.1604 93.7281 19.6421L91.9282 20.5141C92.8176 22.35 94.0887 23.7922 95.7432 24.8058L96.788 23.1004ZM93.7291 19.6443C92.9911 18.1114 92.6036 16.3246 92.5937 14.2609L90.5938 14.2704C90.6048 16.5817 91.0402 18.6699 91.9271 20.5119L93.7291 19.6443ZM92.5938 14.2656V13.1406H90.5938V14.2656H92.5938ZM92.5938 13.1406C92.5938 11.0206 92.9731 9.20259 93.7011 7.66151L91.8927 6.80724C91.0165 8.66199 90.5938 10.7814 90.5938 13.1406H92.5938ZM93.6999 7.66388C94.438 6.11215 95.4547 4.95897 96.7439 4.16354L95.6936 2.46146C94.0453 3.47853 92.7808 4.93993 91.8938 6.80487L93.6999 7.66388ZM96.7455 4.16251C98.0524 3.3526 99.5543 2.9375 101.281 2.9375V0.9375C99.2166 0.9375 97.3434 1.43907 95.692 2.46249L96.7455 4.16251ZM101.281 2.9375C103.008 2.9375 104.504 3.35261 105.799 4.16084L106.858 2.46416C105.215 1.43906 103.346 0.9375 101.281 0.9375V2.9375ZM105.806 4.16519C107.104 4.96036 108.118 6.11171 108.845 7.65937L110.655 6.80938C109.778 4.94037 108.511 3.47714 106.851 2.45981L105.806 4.16519ZM108.848 7.66603C109.585 9.20657 109.969 11.018 109.969 13.125H111.969C111.969 10.7737 111.54 8.65801 110.652 6.80272L108.848 7.66603ZM109.969 13.125V14.1406H111.969V13.125H109.969ZM107.219 13.1094C107.219 10.6304 106.779 8.58254 105.761 7.10447L104.114 8.23928C104.804 9.24038 105.219 10.8175 105.219 13.1094H107.219ZM105.761 7.10447C104.709 5.5778 103.173 4.8125 101.281 4.8125V6.8125C102.556 6.8125 103.458 7.28678 104.114 8.23928L105.761 7.10447ZM101.281 4.8125C99.4006 4.8125 97.8715 5.57165 96.8194 7.08559L98.4618 8.22691C99.1181 7.28251 100.016 6.8125 101.281 6.8125V4.8125ZM96.8217 7.08232C95.8001 8.54006 95.3546 10.5689 95.3438 13.0268L97.3437 13.0357C97.3537 10.7644 97.7729 9.20994 98.4595 8.23018L96.8217 7.08232ZM95.3438 13.0312V14.1406H97.3438V13.0312H95.3438ZM95.3438 14.1406C95.3438 16.567 95.7867 18.5922 96.793 20.1016L98.457 18.9922C97.7549 17.939 97.3438 16.3601 97.3438 14.1406H95.3438ZM96.793 20.1016C97.8417 21.6747 99.3907 22.4688 101.312 22.4688V20.4688C100.026 20.4688 99.1167 19.9816 98.457 18.9922L96.793 20.1016ZM101.312 22.4688C103.193 22.4688 104.72 21.7091 105.762 20.1909L104.113 19.0591C103.468 19.9993 102.577 20.4688 101.312 20.4688V22.4688ZM105.764 20.1877C106.768 18.7135 107.208 16.6811 107.219 14.2232L105.219 14.2143C105.209 16.4855 104.795 18.0573 104.111 19.0623L105.764 20.1877ZM107.219 14.2188V13.1094H105.219V14.2188H107.219ZM132.375 2.25H133.375V1.25H132.375V2.25ZM132.375 25V26H133.375V25H132.375ZM127.672 25H126.672V26H127.672V25ZM127.672 6.04688H128.672V5.04688H127.672V6.04688ZM121.609 6.04688V5.04688H120.655L120.61 6.00023L121.609 6.04688ZM121.234 14.0781L122.233 14.1357L122.233 14.1248L121.234 14.0781ZM120.203 20.4844L121.149 20.8082L121.15 20.8063L120.203 20.4844ZM117.875 23.9062L118.451 24.7239L118.456 24.72L117.875 23.9062ZM113.688 25V26L113.693 26L113.688 25ZM112.469 25H111.469V26H112.469V25ZM112.469 21.2344L112.369 20.2393L111.469 20.3294V21.2344H112.469ZM113.25 21.1562L113.35 22.1513L113.366 22.1497L113.382 22.1476L113.25 21.1562ZM115.766 19.125L114.844 18.7359L114.843 18.7398L115.766 19.125ZM116.734 12.6875L117.733 12.7314L117.734 12.7249L116.734 12.6875ZM117.125 2.25V1.25H116.162L116.126 2.2126L117.125 2.25ZM131.375 2.25V25H133.375V2.25H131.375ZM132.375 24H127.672V26H132.375V24ZM128.672 25V6.04688H126.672V25H128.672ZM127.672 5.04688H121.609V7.04688H127.672V5.04688ZM120.61 6.00023L120.235 14.0315L122.233 14.1248L122.608 6.09352L120.61 6.00023ZM120.236 14.0205C120.082 16.6887 119.746 18.7223 119.256 20.1625L121.15 20.8063C121.723 19.1214 122.074 16.8842 122.233 14.1357L120.236 14.0205ZM119.257 20.1605C118.773 21.5756 118.099 22.5171 117.294 23.0925L118.456 24.72C119.692 23.8371 120.571 22.4973 121.149 20.8082L119.257 20.1605ZM117.299 23.0886C116.502 23.65 115.331 23.9903 113.682 24L113.693 26C115.586 25.9888 117.206 25.6 118.451 24.7239L117.299 23.0886ZM113.688 24H112.469V26H113.688V24ZM113.469 25V21.2344H111.469V25H113.469ZM112.568 22.2294L113.35 22.1513L113.15 20.1612L112.369 20.2393L112.568 22.2294ZM113.382 22.1476C114.95 21.9394 116.067 20.9994 116.688 19.5102L114.843 18.7398C114.464 19.6464 113.905 20.0606 113.118 20.1649L113.382 22.1476ZM116.687 19.5141C117.274 18.1241 117.598 15.8158 117.733 12.7314L115.735 12.6436C115.6 15.7258 115.278 17.7092 114.844 18.7359L116.687 19.5141ZM117.734 12.7249L118.124 2.2874L116.126 2.2126L115.735 12.6501L117.734 12.7249ZM117.125 3.25H132.375V1.25H117.125V3.25ZM150.562 23.9375L150.036 23.0875L150.033 23.0892L150.562 23.9375ZM137.016 20.0781L136.115 20.5119L136.116 20.5141L137.016 20.0781ZM135.781 14.2656H134.781L134.781 14.2704L135.781 14.2656ZM136.984 7.23438L136.081 6.80487L136.08 6.80724L136.984 7.23438ZM140.406 3.3125L140.931 4.16354L140.933 4.16251L140.406 3.3125ZM150.516 3.3125L149.986 4.16086L149.993 4.16519L150.516 3.3125ZM153.938 7.23438L153.032 7.65939L153.035 7.66603L153.938 7.23438ZM141.828 7.65625L142.647 8.23019L142.649 8.22691L141.828 7.65625ZM140.531 13.0312L139.531 13.0268V13.0312H140.531ZM149.125 19.625L149.949 20.1909L149.952 20.1877L149.125 19.625ZM150.406 14.2188L151.406 14.2232V14.2188H150.406ZM154.156 14.1406C154.156 16.2625 153.781 18.076 153.063 19.6065L154.874 20.456C155.739 18.6115 156.156 16.4979 156.156 14.1406H154.156ZM153.063 19.6065C152.348 21.1316 151.338 22.2803 150.036 23.0875L151.089 24.7875C152.745 23.7614 154.006 22.3059 154.874 20.456L153.063 19.6065ZM150.033 23.0892C148.739 23.8968 147.239 24.3125 145.5 24.3125V26.3125C147.574 26.3125 149.449 25.8115 151.092 24.7858L150.033 23.0892ZM145.5 24.3125C143.782 24.3125 142.284 23.902 140.976 23.1004L139.931 24.8058C141.581 25.8167 143.447 26.3125 145.5 26.3125V24.3125ZM140.976 23.1004C139.672 22.3016 138.651 21.1604 137.916 19.6421L136.116 20.5141C137.005 22.35 138.276 23.7922 139.931 24.8058L140.976 23.1004ZM137.917 19.6443C137.179 18.1114 136.791 16.3246 136.781 14.2609L134.781 14.2704C134.792 16.5817 135.228 18.6699 136.115 20.5119L137.917 19.6443ZM136.781 14.2656V13.1406H134.781V14.2656H136.781ZM136.781 13.1406C136.781 11.0206 137.161 9.20259 137.889 7.66151L136.08 6.80724C135.204 8.66199 134.781 10.7814 134.781 13.1406H136.781ZM137.887 7.66388C138.625 6.11215 139.642 4.95897 140.931 4.16354L139.881 2.46146C138.233 3.47853 136.968 4.93993 136.081 6.80487L137.887 7.66388ZM140.933 4.16251C142.24 3.3526 143.742 2.9375 145.469 2.9375V0.9375C143.404 0.9375 141.531 1.43907 139.879 2.46249L140.933 4.16251ZM145.469 2.9375C147.196 2.9375 148.691 3.35261 149.986 4.16084L151.045 2.46416C149.403 1.43906 147.533 0.9375 145.469 0.9375V2.9375ZM149.993 4.16519C151.291 4.96036 152.306 6.11171 153.032 7.65937L154.843 6.80938C153.965 4.94037 152.699 3.47714 151.038 2.45981L149.993 4.16519ZM153.035 7.66603C153.773 9.20657 154.156 11.018 154.156 13.125H156.156C156.156 10.7737 155.727 8.65801 154.84 6.80272L153.035 7.66603ZM154.156 13.125V14.1406H156.156V13.125H154.156ZM151.406 13.1094C151.406 10.6304 150.967 8.58254 149.948 7.10447L148.302 8.23928C148.991 9.24038 149.406 10.8175 149.406 13.1094H151.406ZM149.948 7.10447C148.896 5.5778 147.361 4.8125 145.469 4.8125V6.8125C146.743 6.8125 147.645 7.28678 148.302 8.23928L149.948 7.10447ZM145.469 4.8125C143.588 4.8125 142.059 5.57165 141.007 7.08559L142.649 8.22691C143.306 7.28251 144.204 6.8125 145.469 6.8125V4.8125ZM141.009 7.08232C139.988 8.54006 139.542 10.5689 139.531 13.0268L141.531 13.0357C141.541 10.7644 141.96 9.20994 142.647 8.23018L141.009 7.08232ZM139.531 13.0312V14.1406H141.531V13.0312H139.531ZM139.531 14.1406C139.531 16.567 139.974 18.5922 140.98 20.1016L142.645 18.9922C141.942 17.939 141.531 16.3601 141.531 14.1406H139.531ZM140.98 20.1016C142.029 21.6747 143.578 22.4688 145.5 22.4688V20.4688C144.213 20.4688 143.304 19.9816 142.645 18.9922L140.98 20.1016ZM145.5 22.4688C147.381 22.4688 148.907 21.7091 149.949 20.1909L148.301 19.0591C147.655 19.9993 146.765 20.4688 145.5 20.4688V22.4688ZM149.952 20.1877C150.955 18.7135 151.395 16.6811 151.406 14.2232L149.406 14.2143C149.396 16.4855 148.982 18.0573 148.298 19.0623L149.952 20.1877ZM151.406 14.2188V13.1094H149.406V14.2188H151.406ZM174.344 6.04688V7.04688H175.344V6.04688H174.344ZM167.375 6.04688V5.04688H166.375V6.04688H167.375ZM167.375 25V26H168.375V25H167.375ZM162.688 25H161.688V26H162.688V25ZM162.688 6.04688H163.688V5.04688H162.688V6.04688ZM155.812 6.04688H154.812V7.04688H155.812V6.04688ZM155.812 2.25V1.25H154.812V2.25H155.812ZM174.344 2.25H175.344V1.25H174.344V2.25ZM174.344 5.04688H167.375V7.04688H174.344V5.04688ZM166.375 6.04688V25H168.375V6.04688H166.375ZM167.375 24H162.688V26H167.375V24ZM163.688 25V6.04688H161.688V25H163.688ZM162.688 5.04688H155.812V7.04688H162.688V5.04688ZM156.812 6.04688V2.25H154.812V6.04688H156.812ZM155.812 3.25H174.344V1.25H155.812V3.25ZM173.344 2.25V6.04688H175.344V2.25H173.344Z" fill="black"/>
</svg>
