<svg width="174" height="27" viewBox="0 0 174 27" fill="none" xmlns="http://www.w3.org/2000/svg">
<path d="M19.8906 17.4219C19.7135 19.8698 18.8073 21.7969 17.1719 23.2031C15.5469 24.6094 13.401 25.3125 10.7344 25.3125C7.81771 25.3125 5.52083 24.3333 3.84375 22.375C2.17708 20.4062 1.34375 17.7083 1.34375 14.2812V12.8906C1.34375 10.7031 1.72917 8.77604 2.5 7.10938C3.27083 5.44271 4.36979 4.16667 5.79688 3.28125C7.23438 2.38542 8.90104 1.9375 10.7969 1.9375C13.4219 1.9375 15.5365 2.64062 17.1406 4.04688C18.7448 5.45312 19.6719 7.42708 19.9219 9.96875H15.2344C15.1198 8.5 14.7083 7.4375 14 6.78125C13.3021 6.11458 12.2344 5.78125 10.7969 5.78125C9.23438 5.78125 8.0625 6.34375 7.28125 7.46875C6.51042 8.58333 6.11458 10.3177 6.09375 12.6719V14.3906C6.09375 16.849 6.46354 18.6458 7.20312 19.7812C7.95312 20.9167 9.13021 21.4844 10.7344 21.4844C12.1823 21.4844 13.2604 21.1562 13.9688 20.5C14.6875 19.8333 15.099 18.8073 15.2031 17.4219H19.8906ZM31.5 13L35.6406 2.25H40.7031L32.75 21.0156L32.1094 22.25C30.9323 24.3021 29.1302 25.3281 26.7031 25.3281L25.0625 25.2656L25.0156 21.5C25.2656 21.5417 25.6719 21.5625 26.2344 21.5625C26.8906 21.5625 27.4167 21.4479 27.8125 21.2188C28.2188 20.9896 28.5573 20.5677 28.8281 19.9531L29.4062 18.4688L21.4219 2.25H26.4688L31.5 13ZM61.7188 25H57.0156V6.04688H47.9062V25H43.2188V2.25H61.7188V25ZM79.5312 15.1406H70.5312V21.2344H81.0938V25H65.8438V2.25H81.0625V6.04688H70.5312V11.4688H79.5312V15.1406ZM88.5312 16.9844V25H83.8438V2.25H92.7188C94.4271 2.25 95.9271 2.5625 97.2188 3.1875C98.5208 3.8125 99.5208 4.70312 100.219 5.85938C100.917 7.00521 101.266 8.3125 101.266 9.78125C101.266 12.0104 100.5 13.7708 98.9688 15.0625C97.4479 16.3438 95.3385 16.9844 92.6406 16.9844H88.5312ZM88.5312 13.1875H92.7188C93.9583 13.1875 94.901 12.8958 95.5469 12.3125C96.2031 11.7292 96.5312 10.8958 96.5312 9.8125C96.5312 8.69792 96.2031 7.79688 95.5469 7.10938C94.8906 6.42188 93.9844 6.06771 92.8281 6.04688H88.5312V13.1875ZM127.312 6.04688H117.156V10.4531H120.812C123.49 10.4531 125.609 11.1042 127.172 12.4062C128.745 13.6979 129.531 15.4427 129.531 17.6406C129.531 19.849 128.75 21.625 127.188 22.9688C125.635 24.3021 123.568 24.9792 120.984 25H112.422V2.25H127.312V6.04688ZM117.156 14.2344V21.2344H120.891C122.089 21.2344 123.042 20.9062 123.75 20.25C124.469 19.5938 124.828 18.7135 124.828 17.6094C124.828 16.5781 124.484 15.7656 123.797 15.1719C123.12 14.5677 122.188 14.2552 121 14.2344H117.156ZM151.219 14.1406C151.219 16.3802 150.823 18.3438 150.031 20.0312C149.24 21.7188 148.104 23.0208 146.625 23.9375C145.156 24.8542 143.469 25.3125 141.562 25.3125C139.677 25.3125 137.995 24.8594 136.516 23.9531C135.036 23.0469 133.891 21.7552 133.078 20.0781C132.266 18.3906 131.854 16.4531 131.844 14.2656V13.1406C131.844 10.901 132.245 8.93229 133.047 7.23438C133.859 5.52604 135 4.21875 136.469 3.3125C137.948 2.39583 139.635 1.9375 141.531 1.9375C143.427 1.9375 145.109 2.39583 146.578 3.3125C148.057 4.21875 149.198 5.52604 150 7.23438C150.812 8.93229 151.219 10.8958 151.219 13.125V14.1406ZM146.469 13.1094C146.469 10.724 146.042 8.91146 145.188 7.67188C144.333 6.43229 143.115 5.8125 141.531 5.8125C139.958 5.8125 138.745 6.42708 137.891 7.65625C137.036 8.875 136.604 10.6667 136.594 13.0312V14.1406C136.594 16.4635 137.021 18.2656 137.875 19.5469C138.729 20.8281 139.958 21.4688 141.562 21.4688C143.135 21.4688 144.344 20.8542 145.188 19.625C146.031 18.3854 146.458 16.5833 146.469 14.2188V13.1094ZM172.484 17.4219C172.307 19.8698 171.401 21.7969 169.766 23.2031C168.141 24.6094 165.995 25.3125 163.328 25.3125C160.411 25.3125 158.115 24.3333 156.438 22.375C154.771 20.4062 153.938 17.7083 153.938 14.2812V12.8906C153.938 10.7031 154.323 8.77604 155.094 7.10938C155.865 5.44271 156.964 4.16667 158.391 3.28125C159.828 2.38542 161.495 1.9375 163.391 1.9375C166.016 1.9375 168.13 2.64062 169.734 4.04688C171.339 5.45312 172.266 7.42708 172.516 9.96875H167.828C167.714 8.5 167.302 7.4375 166.594 6.78125C165.896 6.11458 164.828 5.78125 163.391 5.78125C161.828 5.78125 160.656 6.34375 159.875 7.46875C159.104 8.58333 158.708 10.3177 158.688 12.6719V14.3906C158.688 16.849 159.057 18.6458 159.797 19.7812C160.547 20.9167 161.724 21.4844 163.328 21.4844C164.776 21.4844 165.854 21.1562 166.562 20.5C167.281 19.8333 167.693 18.8073 167.797 17.4219H172.484Z" fill="#E9FB1D"/>
<path d="M19.8906 17.4219L20.888 17.494L20.9656 16.4219H19.8906V17.4219ZM17.1719 23.2031L16.5199 22.4449L16.5175 22.447L17.1719 23.2031ZM3.84375 22.375L3.0805 23.0211L3.08421 23.0255L3.84375 22.375ZM2.5 7.10938L1.59237 6.6896L2.5 7.10938ZM5.79688 3.28125L6.32408 4.13099L6.32577 4.12994L5.79688 3.28125ZM17.1406 4.04688L16.4814 4.79885L17.1406 4.04688ZM19.9219 9.96875V10.9688H21.0251L20.9171 9.87086L19.9219 9.96875ZM15.2344 9.96875L14.2374 10.0465L14.3094 10.9688H15.2344V9.96875ZM14 6.78125L13.3093 7.50436L13.3148 7.50963L13.3204 7.51481L14 6.78125ZM7.28125 7.46875L6.45988 6.89835L6.45878 6.89994L7.28125 7.46875ZM6.09375 12.6719L5.09375 12.663V12.6719H6.09375ZM7.20312 19.7812L6.36519 20.3271L6.36873 20.3324L7.20312 19.7812ZM13.9688 20.5L14.6484 21.2336L14.6488 21.2332L13.9688 20.5ZM15.2031 17.4219V16.4219H14.2755L14.2059 17.3469L15.2031 17.4219ZM18.8932 17.3497C18.7325 19.572 17.925 21.2367 16.5199 22.4449L17.8239 23.9614C19.6896 22.3571 20.6946 20.1676 20.888 17.494L18.8932 17.3497ZM16.5175 22.447C15.115 23.6607 13.2207 24.3125 10.7344 24.3125V26.3125C13.5814 26.3125 15.9788 25.5581 17.8263 23.9593L16.5175 22.447ZM10.7344 24.3125C8.06693 24.3125 6.06418 23.4304 4.60329 21.7245L3.08421 23.0255C4.97749 25.2362 7.56849 26.3125 10.7344 26.3125V24.3125ZM4.60698 21.7289C3.13723 19.9927 2.34375 17.5502 2.34375 14.2812H0.34375C0.34375 17.8664 1.21694 20.8198 3.08052 23.0211L4.60698 21.7289ZM2.34375 14.2812V12.8906H0.34375V14.2812H2.34375ZM2.34375 12.8906C2.34375 10.8207 2.70817 9.04149 3.40763 7.52915L1.59237 6.6896C0.750161 8.5106 0.34375 10.5855 0.34375 12.8906H2.34375ZM3.40763 7.52915C4.10439 6.02264 5.07856 4.90376 6.32408 4.13099L5.26967 2.43151C3.66102 3.42958 2.43728 4.86277 1.59237 6.6896L3.40763 7.52915ZM6.32577 4.12994C7.58617 3.34447 9.06506 2.9375 10.7969 2.9375V0.9375C8.73702 0.9375 6.88258 1.42636 5.26798 2.43256L6.32577 4.12994ZM10.7969 2.9375C13.2375 2.9375 15.0991 3.58708 16.4814 4.79885L17.7998 3.2949C15.9738 1.69417 13.6062 0.9375 10.7969 0.9375V2.9375ZM16.4814 4.79885C17.8581 6.00564 18.6963 7.72489 18.9267 10.0666L20.9171 9.87086C20.6474 7.12927 19.6315 4.90061 17.7998 3.2949L16.4814 4.79885ZM19.9219 8.96875H15.2344V10.9688H19.9219V8.96875ZM16.2313 9.89097C16.1072 8.29935 15.6488 6.9456 14.6796 6.04769L13.3204 7.51481C13.7679 7.9294 14.1324 8.70065 14.2374 10.0465L16.2313 9.89097ZM14.6907 6.05814C13.7332 5.14345 12.3677 4.78125 10.7969 4.78125V6.78125C12.101 6.78125 12.871 7.08571 13.3093 7.50436L14.6907 6.05814ZM10.7969 4.78125C8.96017 4.78125 7.45655 5.46315 6.45988 6.89835L8.10262 8.03915C8.66845 7.22435 9.50858 6.78125 10.7969 6.78125V4.78125ZM6.45878 6.89994C5.51742 8.2611 5.11524 10.2391 5.09379 12.663L7.09371 12.6807C7.11393 10.3963 7.50341 8.90557 8.10372 8.03756L6.45878 6.89994ZM5.09375 12.6719V14.3906H7.09375V12.6719H5.09375ZM5.09375 14.3906C5.09375 16.9065 5.46425 18.9439 6.36521 20.327L8.04104 19.2355C7.46283 18.3478 7.09375 16.7914 7.09375 14.3906H5.09375ZM6.36873 20.3324C7.33914 21.8015 8.86388 22.4844 10.7344 22.4844V20.4844C9.39653 20.4844 8.56711 20.0318 8.03752 19.2301L6.36873 20.3324ZM10.7344 22.4844C12.3113 22.4844 13.6813 22.1295 14.6484 21.2336L13.2891 19.7664C12.8395 20.183 12.0533 20.4844 10.7344 20.4844V22.4844ZM14.6488 21.2332C15.6173 20.3348 16.0851 19.029 16.2003 17.4969L14.2059 17.3469C14.1128 18.5856 13.7577 19.3319 13.2887 19.7668L14.6488 21.2332ZM15.2031 18.4219H19.8906V16.4219H15.2031V18.4219ZM31.5 13L30.5943 13.4239L31.5894 15.5501L32.4332 13.3594L31.5 13ZM35.6406 2.25V1.25H34.9542L34.7075 1.89057L35.6406 2.25ZM40.7031 2.25L41.6238 2.64021L42.213 1.25H40.7031V2.25ZM32.75 21.0156L33.6376 21.4763L33.6555 21.4417L33.6707 21.4058L32.75 21.0156ZM32.1094 22.25L32.9768 22.7476L32.9873 22.7293L32.997 22.7106L32.1094 22.25ZM26.7031 25.3281L26.6651 26.3274L26.6841 26.3281H26.7031V25.3281ZM25.0625 25.2656L24.0626 25.2781L24.0744 26.2287L25.0244 26.2649L25.0625 25.2656ZM25.0156 21.5L25.18 20.5136L24.0008 20.3171L24.0157 21.5124L25.0156 21.5ZM27.8125 21.2188L27.3211 20.3477L27.3115 20.3533L27.8125 21.2188ZM28.8281 19.9531L29.7432 20.3564L29.752 20.3364L29.7599 20.316L28.8281 19.9531ZM29.4062 18.4688L30.3381 18.8317L30.4977 18.4218L30.3034 18.0271L29.4062 18.4688ZM21.4219 2.25V1.25H19.815L20.5247 2.69167L21.4219 2.25ZM26.4688 2.25L27.3745 1.82611L27.1048 1.25H26.4688V2.25ZM32.4332 13.3594L36.5738 2.60943L34.7075 1.89057L30.5668 12.6406L32.4332 13.3594ZM35.6406 3.25H40.7031V1.25H35.6406V3.25ZM39.7824 1.85979L31.8293 20.6254L33.6707 21.4058L41.6238 2.64021L39.7824 1.85979ZM31.8624 20.555L31.2218 21.7894L32.997 22.7106L33.6376 21.4763L31.8624 20.555ZM31.2419 21.7524C30.2488 23.4839 28.7834 24.3281 26.7031 24.3281V26.3281C29.477 26.3281 31.6158 25.1203 32.9768 22.7476L31.2419 21.7524ZM26.7412 24.3288L25.1006 24.2663L25.0244 26.2649L26.6651 26.3274L26.7412 24.3288ZM26.0624 25.2532L26.0155 21.4876L24.0157 21.5124L24.0626 25.2781L26.0624 25.2532ZM24.8512 22.4864C25.1891 22.5427 25.6666 22.5625 26.2344 22.5625V20.5625C25.6771 20.5625 25.3422 20.5406 25.18 20.5136L24.8512 22.4864ZM26.2344 22.5625C26.9945 22.5625 27.7133 22.4317 28.3135 22.0842L27.3115 20.3533C27.12 20.4642 26.7867 20.5625 26.2344 20.5625V22.5625ZM28.3038 22.0897C28.9648 21.7169 29.4223 21.0846 29.7432 20.3564L27.913 19.5499C27.6923 20.0508 27.4727 20.2623 27.3212 20.3478L28.3038 22.0897ZM29.7599 20.316L30.3381 18.8317L28.4744 18.1058L27.8963 19.5902L29.7599 20.316ZM30.3034 18.0271L22.3191 1.80833L20.5247 2.69167L28.5091 18.9104L30.3034 18.0271ZM21.4219 3.25H26.4688V1.25H21.4219V3.25ZM25.563 2.67389L30.5943 13.4239L32.4057 12.5761L27.3745 1.82611L25.563 2.67389ZM61.7188 25V26H62.7188V25H61.7188ZM57.0156 25H56.0156V26H57.0156V25ZM57.0156 6.04688H58.0156V5.04688H57.0156V6.04688ZM47.9062 6.04688V5.04688H46.9062V6.04688H47.9062ZM47.9062 25V26H48.9062V25H47.9062ZM43.2188 25H42.2188V26H43.2188V25ZM43.2188 2.25V1.25H42.2188V2.25H43.2188ZM61.7188 2.25H62.7188V1.25H61.7188V2.25ZM61.7188 24H57.0156V26H61.7188V24ZM58.0156 25V6.04688H56.0156V25H58.0156ZM57.0156 5.04688H47.9062V7.04688H57.0156V5.04688ZM46.9062 6.04688V25H48.9062V6.04688H46.9062ZM47.9062 24H43.2188V26H47.9062V24ZM44.2188 25V2.25H42.2188V25H44.2188ZM43.2188 3.25H61.7188V1.25H43.2188V3.25ZM60.7188 2.25V25H62.7188V2.25H60.7188ZM79.5312 15.1406V16.1406H80.5312V15.1406H79.5312ZM70.5312 15.1406V14.1406H69.5312V15.1406H70.5312ZM70.5312 21.2344H69.5312V22.2344H70.5312V21.2344ZM81.0938 21.2344H82.0938V20.2344H81.0938V21.2344ZM81.0938 25V26H82.0938V25H81.0938ZM65.8438 25H64.8438V26H65.8438V25ZM65.8438 2.25V1.25H64.8438V2.25H65.8438ZM81.0625 2.25H82.0625V1.25H81.0625V2.25ZM81.0625 6.04688V7.04688H82.0625V6.04688H81.0625ZM70.5312 6.04688V5.04688H69.5312V6.04688H70.5312ZM70.5312 11.4688H69.5312V12.4688H70.5312V11.4688ZM79.5312 11.4688H80.5312V10.4688H79.5312V11.4688ZM79.5312 14.1406H70.5312V16.1406H79.5312V14.1406ZM69.5312 15.1406V21.2344H71.5312V15.1406H69.5312ZM70.5312 22.2344H81.0938V20.2344H70.5312V22.2344ZM80.0938 21.2344V25H82.0938V21.2344H80.0938ZM81.0938 24H65.8438V26H81.0938V24ZM66.8438 25V2.25H64.8438V25H66.8438ZM65.8438 3.25H81.0625V1.25H65.8438V3.25ZM80.0625 2.25V6.04688H82.0625V2.25H80.0625ZM81.0625 5.04688H70.5312V7.04688H81.0625V5.04688ZM69.5312 6.04688V11.4688H71.5312V6.04688H69.5312ZM70.5312 12.4688H79.5312V10.4688H70.5312V12.4688ZM78.5312 11.4688V15.1406H80.5312V11.4688H78.5312ZM88.5312 16.9844V15.9844H87.5312V16.9844H88.5312ZM88.5312 25V26H89.5312V25H88.5312ZM83.8438 25H82.8438V26H83.8438V25ZM83.8438 2.25V1.25H82.8438V2.25H83.8438ZM97.2188 3.1875L96.7832 4.08766L96.786 4.08902L97.2188 3.1875ZM100.219 5.85938L99.3626 6.37614L99.3647 6.37957L100.219 5.85938ZM98.9688 15.0625L99.613 15.8273L99.6135 15.8269L98.9688 15.0625ZM88.5312 13.1875H87.5312V14.1875H88.5312V13.1875ZM95.5469 12.3125L94.8825 11.5651L94.8766 11.5704L95.5469 12.3125ZM92.8281 6.04688L92.8461 5.04704L92.8371 5.04688H92.8281V6.04688ZM88.5312 6.04688V5.04688H87.5312V6.04688H88.5312ZM87.5312 16.9844V25H89.5312V16.9844H87.5312ZM88.5312 24H83.8438V26H88.5312V24ZM84.8438 25V2.25H82.8438V25H84.8438ZM83.8438 3.25H92.7188V1.25H83.8438V3.25ZM92.7188 3.25C94.3047 3.25 95.6508 3.53973 96.7832 4.08766L97.6543 2.28734C96.2034 1.58527 94.5495 1.25 92.7188 1.25V3.25ZM96.786 4.08902C97.9253 4.63587 98.7724 5.39837 99.3626 6.37614L101.075 5.34261C100.269 4.00788 99.1164 2.98913 97.6515 2.28598L96.786 4.08902ZM99.3647 6.37957C99.9582 7.35401 100.266 8.47804 100.266 9.78125H102.266C102.266 8.14696 101.875 6.6564 101.073 5.33918L99.3647 6.37957ZM100.266 9.78125C100.266 11.7532 99.6029 13.2193 98.324 14.2981L99.6135 15.8269C101.397 14.3223 102.266 12.2677 102.266 9.78125H100.266ZM98.3245 14.2977C97.0393 15.3804 95.187 15.9844 92.6406 15.9844V17.9844C95.4901 17.9844 97.8565 17.3071 99.613 15.8273L98.3245 14.2977ZM92.6406 15.9844H88.5312V17.9844H92.6406V15.9844ZM88.5312 14.1875H92.7188V12.1875H88.5312V14.1875ZM92.7188 14.1875C94.1016 14.1875 95.3225 13.8627 96.2172 13.0546L94.8766 11.5704C94.4796 11.929 93.8151 12.1875 92.7188 12.1875V14.1875ZM96.2112 13.0599C97.1296 12.2436 97.5312 11.1093 97.5312 9.8125H95.5312C95.5312 10.6824 95.2767 11.2147 94.8825 11.5651L96.2112 13.0599ZM97.5312 9.8125C97.5312 8.48829 97.1344 7.32418 96.2702 6.4189L94.8235 7.79985C95.2719 8.26957 95.5312 8.90754 95.5312 9.8125H97.5312ZM96.2702 6.4189C95.3909 5.49772 94.2076 5.07157 92.8461 5.04704L92.8101 7.04671C93.7611 7.06385 94.3903 7.34603 94.8235 7.79985L96.2702 6.4189ZM92.8281 5.04688H88.5312V7.04688H92.8281V5.04688ZM87.5312 6.04688V13.1875H89.5312V6.04688H87.5312ZM127.312 6.04688V7.04688H128.312V6.04688H127.312ZM117.156 6.04688V5.04688H116.156V6.04688H117.156ZM117.156 10.4531H116.156V11.4531H117.156V10.4531ZM127.172 12.4062L126.532 13.1745L126.537 13.1791L127.172 12.4062ZM127.188 22.9688L127.839 23.7273L127.84 23.7269L127.188 22.9688ZM120.984 25V26L120.992 26L120.984 25ZM112.422 25H111.422V26H112.422V25ZM112.422 2.25V1.25H111.422V2.25H112.422ZM127.312 2.25H128.312V1.25H127.312V2.25ZM117.156 14.2344V13.2344H116.156V14.2344H117.156ZM117.156 21.2344H116.156V22.2344H117.156V21.2344ZM123.75 20.25L123.076 19.5115L123.07 19.5164L123.75 20.25ZM123.797 15.1719L123.131 15.918L123.137 15.9234L123.143 15.9287L123.797 15.1719ZM121 14.2344L121.018 13.2345L121.009 13.2344H121V14.2344ZM127.312 5.04688H117.156V7.04688H127.312V5.04688ZM116.156 6.04688V10.4531H118.156V6.04688H116.156ZM117.156 11.4531H120.812V9.45312H117.156V11.4531ZM120.812 11.4531C123.33 11.4531 125.199 12.0639 126.532 13.1745L127.812 11.638C126.02 10.1444 123.649 9.45312 120.812 9.45312V11.4531ZM126.537 13.1791C127.859 14.2641 128.531 15.7147 128.531 17.6406H130.531C130.531 15.1707 129.631 13.1317 127.807 11.6334L126.537 13.1791ZM128.531 17.6406C128.531 19.5813 127.86 21.0717 126.535 22.2106L127.84 23.7269C129.64 22.1783 130.531 20.1166 130.531 17.6406H128.531ZM126.536 22.2102C125.206 23.3526 123.387 23.9806 120.976 24L120.992 26C123.748 25.9777 126.065 25.2516 127.839 23.7273L126.536 22.2102ZM120.984 24H112.422V26H120.984V24ZM113.422 25V2.25H111.422V25H113.422ZM112.422 3.25H127.312V1.25H112.422V3.25ZM126.312 2.25V6.04688H128.312V2.25H126.312ZM116.156 14.2344V21.2344H118.156V14.2344H116.156ZM117.156 22.2344H120.891V20.2344H117.156V22.2344ZM120.891 22.2344C122.277 22.2344 123.495 21.8498 124.43 20.9836L123.07 19.5164C122.589 19.9627 121.9 20.2344 120.891 20.2344V22.2344ZM124.424 20.9885C125.379 20.1163 125.828 18.9528 125.828 17.6094H123.828C123.828 18.4743 123.558 19.0712 123.076 19.5115L124.424 20.9885ZM125.828 17.6094C125.828 16.3313 125.389 15.2256 124.45 14.4151L123.143 15.9287C123.58 16.3056 123.828 16.8249 123.828 17.6094H125.828ZM124.463 14.4257C123.558 13.6183 122.369 13.2582 121.018 13.2345L120.982 15.2342C122.006 15.2522 122.682 15.5172 123.131 15.918L124.463 14.4257ZM121 13.2344H117.156V15.2344H121V13.2344ZM146.625 23.9375L146.098 23.0875L146.096 23.0892L146.625 23.9375ZM133.078 20.0781L132.177 20.5119L132.178 20.5141L133.078 20.0781ZM131.844 14.2656H130.844L130.844 14.2704L131.844 14.2656ZM133.047 7.23438L132.144 6.80487L132.143 6.80724L133.047 7.23438ZM136.469 3.3125L136.994 4.16354L136.996 4.16251L136.469 3.3125ZM146.578 3.3125L146.049 4.16086L146.056 4.16519L146.578 3.3125ZM150 7.23438L149.095 7.65939L149.098 7.66603L150 7.23438ZM137.891 7.65625L138.71 8.23019L138.712 8.22691L137.891 7.65625ZM136.594 13.0312L135.594 13.0268V13.0312H136.594ZM145.188 19.625L146.012 20.1909L146.014 20.1877L145.188 19.625ZM146.469 14.2188L147.469 14.2232V14.2188H146.469ZM150.219 14.1406C150.219 16.2625 149.844 18.076 149.126 19.6065L150.937 20.456C151.802 18.6115 152.219 16.4979 152.219 14.1406H150.219ZM149.126 19.6065C148.41 21.1316 147.401 22.2803 146.098 23.0875L147.152 24.7875C148.808 23.7614 150.069 22.3059 150.937 20.456L149.126 19.6065ZM146.096 23.0892C144.801 23.8968 143.301 24.3125 141.562 24.3125V26.3125C143.636 26.3125 145.511 25.8115 147.154 24.7858L146.096 23.0892ZM141.562 24.3125C139.845 24.3125 138.346 23.902 137.038 23.1004L135.993 24.8058C137.643 25.8167 139.509 26.3125 141.562 26.3125V24.3125ZM137.038 23.1004C135.734 22.3016 134.714 21.1604 133.978 19.6421L132.178 20.5141C133.068 22.35 134.339 23.7922 135.993 24.8058L137.038 23.1004ZM133.979 19.6443C133.241 18.1114 132.854 16.3246 132.844 14.2609L130.844 14.2704C130.855 16.5817 131.29 18.6699 132.177 20.5119L133.979 19.6443ZM132.844 14.2656V13.1406H130.844V14.2656H132.844ZM132.844 13.1406C132.844 11.0206 133.223 9.20259 133.951 7.66151L132.143 6.80724C131.267 8.66199 130.844 10.7814 130.844 13.1406H132.844ZM133.95 7.66388C134.688 6.11215 135.705 4.95897 136.994 4.16354L135.944 2.46146C134.295 3.47853 133.031 4.93993 132.144 6.80487L133.95 7.66388ZM136.996 4.16251C138.302 3.3526 139.804 2.9375 141.531 2.9375V0.9375C139.467 0.9375 137.593 1.43907 135.942 2.46249L136.996 4.16251ZM141.531 2.9375C143.258 2.9375 144.754 3.35261 146.049 4.16084L147.108 2.46416C145.465 1.43906 143.596 0.9375 141.531 0.9375V2.9375ZM146.056 4.16519C147.354 4.96036 148.368 6.11171 149.095 7.65937L150.905 6.80938C150.028 4.94037 148.761 3.47714 147.101 2.45981L146.056 4.16519ZM149.098 7.66603C149.835 9.20657 150.219 11.018 150.219 13.125H152.219C152.219 10.7737 151.79 8.65801 150.902 6.80272L149.098 7.66603ZM150.219 13.125V14.1406H152.219V13.125H150.219ZM147.469 13.1094C147.469 10.6304 147.029 8.58254 146.011 7.10447L144.364 8.23928C145.054 9.24038 145.469 10.8175 145.469 13.1094H147.469ZM146.011 7.10447C144.959 5.5778 143.423 4.8125 141.531 4.8125V6.8125C142.806 6.8125 143.708 7.28678 144.364 8.23928L146.011 7.10447ZM141.531 4.8125C139.651 4.8125 138.121 5.57165 137.069 7.08559L138.712 8.22691C139.368 7.28251 140.266 6.8125 141.531 6.8125V4.8125ZM137.072 7.08232C136.05 8.54006 135.605 10.5689 135.594 13.0268L137.594 13.0357C137.604 10.7644 138.023 9.20994 138.71 8.23018L137.072 7.08232ZM135.594 13.0312V14.1406H137.594V13.0312H135.594ZM135.594 14.1406C135.594 16.567 136.037 18.5922 137.043 20.1016L138.707 18.9922C138.005 17.939 137.594 16.3601 137.594 14.1406H135.594ZM137.043 20.1016C138.092 21.6747 139.641 22.4688 141.562 22.4688V20.4688C140.276 20.4688 139.367 19.9816 138.707 18.9922L137.043 20.1016ZM141.562 22.4688C143.443 22.4688 144.97 21.7091 146.012 20.1909L144.363 19.0591C143.718 19.9993 142.827 20.4688 141.562 20.4688V22.4688ZM146.014 20.1877C147.018 18.7135 147.458 16.6811 147.469 14.2232L145.469 14.2143C145.459 16.4855 145.045 18.0573 144.361 19.0623L146.014 20.1877ZM147.469 14.2188V13.1094H145.469V14.2188H147.469ZM172.484 17.4219L173.482 17.494L173.559 16.4219H172.484V17.4219ZM169.766 23.2031L169.114 22.4449L169.111 22.447L169.766 23.2031ZM156.438 22.375L155.674 23.0211L155.678 23.0255L156.438 22.375ZM155.094 7.10938L154.186 6.6896L155.094 7.10938ZM158.391 3.28125L158.918 4.13099L158.92 4.12994L158.391 3.28125ZM169.734 4.04688L169.075 4.79885L169.734 4.04688ZM172.516 9.96875V10.9688H173.619L173.511 9.87086L172.516 9.96875ZM167.828 9.96875L166.831 10.0465L166.903 10.9688H167.828V9.96875ZM166.594 6.78125L165.903 7.50436L165.909 7.50963L165.914 7.51481L166.594 6.78125ZM159.875 7.46875L159.054 6.89835L159.053 6.89994L159.875 7.46875ZM158.688 12.6719L157.688 12.663V12.6719H158.688ZM159.797 19.7812L158.959 20.3271L158.962 20.3324L159.797 19.7812ZM166.562 20.5L167.242 21.2336L167.243 21.2332L166.562 20.5ZM167.797 17.4219V16.4219H166.869L166.8 17.3469L167.797 17.4219ZM171.487 17.3497C171.326 19.572 170.519 21.2367 169.114 22.4449L170.418 23.9614C172.283 22.3571 173.288 20.1676 173.482 17.494L171.487 17.3497ZM169.111 22.447C167.709 23.6607 165.814 24.3125 163.328 24.3125V26.3125C166.175 26.3125 168.573 25.5581 170.42 23.9593L169.111 22.447ZM163.328 24.3125C160.661 24.3125 158.658 23.4304 157.197 21.7245L155.678 23.0255C157.571 25.2362 160.162 26.3125 163.328 26.3125V24.3125ZM157.201 21.7289C155.731 19.9927 154.938 17.5502 154.938 14.2812H152.938C152.938 17.8664 153.811 20.8198 155.674 23.0211L157.201 21.7289ZM154.938 14.2812V12.8906H152.938V14.2812H154.938ZM154.938 12.8906C154.938 10.8207 155.302 9.04149 156.001 7.52915L154.186 6.6896C153.344 8.5106 152.938 10.5855 152.938 12.8906H154.938ZM156.001 7.52915C156.698 6.02264 157.672 4.90376 158.918 4.13099L157.863 2.43151C156.255 3.42958 155.031 4.86277 154.186 6.6896L156.001 7.52915ZM158.92 4.12994C160.18 3.34447 161.659 2.9375 163.391 2.9375V0.9375C161.331 0.9375 159.476 1.42636 157.862 2.43256L158.92 4.12994ZM163.391 2.9375C165.831 2.9375 167.693 3.58708 169.075 4.79885L170.394 3.2949C168.568 1.69417 166.2 0.9375 163.391 0.9375V2.9375ZM169.075 4.79885C170.452 6.00564 171.29 7.72489 171.52 10.0666L173.511 9.87086C173.241 7.12927 172.225 4.90061 170.394 3.2949L169.075 4.79885ZM172.516 8.96875H167.828V10.9688H172.516V8.96875ZM168.825 9.89097C168.701 8.29935 168.243 6.9456 167.273 6.04769L165.914 7.51481C166.362 7.9294 166.726 8.70065 166.831 10.0465L168.825 9.89097ZM167.284 6.05814C166.327 5.14345 164.961 4.78125 163.391 4.78125V6.78125C164.695 6.78125 165.465 7.08571 165.903 7.50436L167.284 6.05814ZM163.391 4.78125C161.554 4.78125 160.05 5.46315 159.054 6.89835L160.696 8.03915C161.262 7.22435 162.102 6.78125 163.391 6.78125V4.78125ZM159.053 6.89994C158.111 8.2611 157.709 10.2391 157.688 12.663L159.687 12.6807C159.708 10.3963 160.097 8.90557 160.697 8.03756L159.053 6.89994ZM157.688 12.6719V14.3906H159.688V12.6719H157.688ZM157.688 14.3906C157.688 16.9065 158.058 18.9439 158.959 20.327L160.635 19.2355C160.057 18.3478 159.688 16.7914 159.688 14.3906H157.688ZM158.962 20.3324C159.933 21.8015 161.458 22.4844 163.328 22.4844V20.4844C161.99 20.4844 161.161 20.0318 160.631 19.2301L158.962 20.3324ZM163.328 22.4844C164.905 22.4844 166.275 22.1295 167.242 21.2336L165.883 19.7664C165.433 20.183 164.647 20.4844 163.328 20.4844V22.4844ZM167.243 21.2332C168.211 20.3348 168.679 19.029 168.794 17.4969L166.8 17.3469C166.707 18.5856 166.351 19.3319 165.882 19.7668L167.243 21.2332ZM167.797 18.4219H172.484V16.4219H167.797V18.4219Z" fill="black"/>
</svg>
